Besley-Black.ufo
<glyph name="six" format="2">
	<advance width="1330" height="2310"/>
	<unicode hex="0036"/>
	<outline>
		<contour>
			<point x="826" y="1312" type="curve" smooth="yes"/>
			<point x="826" y="1338"/>
			<point x="806" y="1366"/>
			<point x="738" y="1366" type="curve" smooth="yes"/>
			<point x="620" y="1366"/>
			<point x="504" y="1197"/>
			<point x="484" y="864" type="curve" smooth="yes"/>
			<point x="482" y="829"/>
			<point x="477" y="815"/>
			<point x="484" y="811" type="curve" smooth="yes"/>
			<point x="493" y="806"/>
			<point x="497" y="822"/>
			<point x="517" y="842" type="curve" smooth="yes"/>
			<point x="588" y="914"/>
			<point x="702" y="960"/>
			<point x="832" y="960" type="curve" smooth="yes"/>
			<point x="1054" y="960"/>
			<point x="1270" y="810"/>
			<point x="1270" y="500" type="curve" smooth="yes"/>
			<point x="1270" y="130"/>
			<point x="980" y="-20"/>
			<point x="678" y="-20" type="curve" smooth="yes"/>
			<point x="356" y="-20"/>
			<point x="80" y="170"/>
			<point x="80" y="740" type="curve" smooth="yes"/>
			<point x="80" y="1220"/>
			<point x="356" y="1520"/>
			<point x="728" y="1520" type="curve" smooth="yes"/>
			<point x="1032" y="1520"/>
			<point x="1220" y="1386"/>
			<point x="1220" y="1222" type="curve" smooth="yes"/>
			<point x="1220" y="1086"/>
			<point x="1141" y="990"/>
			<point x="1002" y="990" type="curve" smooth="yes"/>
			<point x="868" y="990"/>
			<point x="778" y="1062"/>
			<point x="778" y="1176" type="curve" smooth="yes"/>
			<point x="778" y="1248"/>
			<point x="826" y="1286"/>
		</contour>
		<contour>
			<point x="870" y="470" type="curve" smooth="yes"/>
			<point x="870" y="658"/>
			<point x="786" y="722"/>
			<point x="678" y="722" type="curve" smooth="yes"/>
			<point x="572" y="722"/>
			<point x="480" y="620"/>
			<point x="480" y="460" type="curve" smooth="yes"/>
			<point x="480" y="302"/>
			<point x="550" y="210"/>
			<point x="678" y="210" type="curve" smooth="yes"/>
			<point x="796" y="210"/>
			<point x="870" y="292"/>
		</contour>
	</outline>
</glyph>
<glyph name="C" format="2">
	<advance width="1702" height="0"/>
	<unicode hex="0043"/>
	<anchor x="916" y="1500" name="Anchor-0"/>
	<anchor x="917" y="0" name="Anchor-1"/>
	<anchor x="917" y="0" name="Anchor-2"/>
	<outline>
		<contour>
			<point x="70" y="750" type="curve" smooth="yes"/>
			<point x="70" y="1196"/>
			<point x="424" y="1540"/>
			<point x="910" y="1540" type="curve" smooth="yes"/>
			<point x="1050" y="1540"/>
			<point x="1161" y="1497"/>
			<point x="1246" y="1431" type="curve" smooth="yes"/>
			<point x="1287" y="1400"/>
			<point x="1295" y="1401"/>
			<point x="1329" y="1444" type="curve" smooth="yes"/>
			<point x="1362" y="1488" type="line" smooth="yes"/>
			<point x="1377" y="1507"/>
			<point x="1383" y="1510"/>
			<point x="1420" y="1510" type="curve" smooth="yes"/>
			<point x="1560" y="1510" type="line" smooth="yes"/>
			<point x="1609" y="1510"/>
			<point x="1610" y="1501"/>
			<point x="1610" y="1452" type="curve" smooth="yes"/>
			<point x="1610" y="974" type="line" smooth="yes"/>
			<point x="1610" y="936"/>
			<point x="1605" y="930"/>
			<point x="1565" y="930" type="curve" smooth="yes"/>
			<point x="1352" y="930" type="line" smooth="yes"/>
			<point x="1304" y="930"/>
			<point x="1298" y="941"/>
			<point x="1289" y="977" type="curve" smooth="yes"/>
			<point x="1244" y="1157"/>
			<point x="1150" y="1284"/>
			<point x="940" y="1284" type="curve" smooth="yes"/>
			<point x="732" y="1284"/>
			<point x="590" y="1094"/>
			<point x="590" y="750" type="curve" smooth="yes"/>
			<point x="590" y="406"/>
			<point x="732" y="228"/>
			<point x="960" y="228" type="curve" smooth="yes"/>
			<point x="1146" y="228"/>
			<point x="1290" y="338"/>
			<point x="1330" y="522" type="curve" smooth="yes"/>
			<point x="1342" y="577"/>
			<point x="1349" y="590"/>
			<point x="1398" y="590" type="curve" smooth="yes"/>
			<point x="1594" y="590" type="line" smooth="yes"/>
			<point x="1647" y="590"/>
			<point x="1651" y="579"/>
			<point x="1646" y="542" type="curve" smooth="yes"/>
			<point x="1604" y="202"/>
			<point x="1365" y="-40"/>
			<point x="920" y="-40" type="curve" smooth="yes"/>
			<point x="414" y="-40"/>
			<point x="70" y="264"/>
		</contour>
	</outline>
</glyph>
<glyph name="F" format="2">
	<advance width="1625" height="0"/>
	<unicode hex="0046"/>
	<anchor x="824" y="1500" name="Anchor-0"/>
	<anchor x="516" y="0" name="Anchor-1"/>
	<anchor x="516" y="0" name="Anchor-2"/>
	<outline>
		<contour>
			<point x="234" y="1230" type="curve" smooth="yes"/>
			<point x="75" y="1230" type="line" smooth="yes"/>
			<point x="52" y="1230"/>
			<point x="50" y="1238"/>
			<point x="50" y="1262" type="curve" smooth="yes"/>
			<point x="50" y="1474" type="line" smooth="yes"/>
			<point x="50" y="1499"/>
			<point x="59" y="1500"/>
			<point x="84" y="1500" type="curve" smooth="yes"/>
			<point x="1524" y="1500" type="line" smooth="yes"/>
			<point x="1556" y="1500"/>
			<point x="1560" y="1493"/>
			<point x="1560" y="1460" type="curve" smooth="yes"/>
			<point x="1560" y="921" type="line" smooth="yes"/>
			<point x="1560" y="893"/>
			<point x="1553" y="890"/>
			<point x="1524" y="890" type="curve" smooth="yes"/>
			<point x="1346" y="890" type="line" smooth="yes"/>
			<point x="1310" y="890"/>
			<point x="1301" y="890"/>
			<point x="1300" y="925" type="curve" smooth="yes"/>
			<point x="1295" y="1135"/>
			<point x="1242" y="1230"/>
			<point x="1020" y="1230" type="curve" smooth="yes"/>
			<point x="782" y="1230" type="line" smooth="yes"/>
			<point x="750" y="1230"/>
			<point x="740" y="1229"/>
			<point x="740" y="1197" type="curve" smooth="yes"/>
			<point x="740" y="851" type="line" smooth="yes"/>
			<point x="740" y="841"/>
			<point x="743" y="837"/>
			<point x="749" y="837" type="curve" smooth="yes"/>
			<point x="751" y="837" type="line" smooth="yes"/>
			<point x="854" y="837"/>
			<point x="941" y="929"/>
			<point x="949" y="1049" type="curve" smooth="yes"/>
			<point x="950" y="1064"/>
			<point x="948" y="1066"/>
			<point x="964" y="1066" type="curve" smooth="yes"/>
			<point x="1117" y="1066" type="line" smooth="yes"/>
			<point x="1138" y="1066"/>
			<point x="1140" y="1058"/>
			<point x="1140" y="1036" type="curve" smooth="yes"/>
			<point x="1140" y="406" type="line" smooth="yes"/>
			<point x="1140" y="382"/>
			<point x="1134" y="376"/>
			<point x="1108" y="376" type="curve" smooth="yes"/>
			<point x="988" y="376" type="line" smooth="yes"/>
			<point x="959" y="376"/>
			<point x="952" y="377"/>
			<point x="949" y="403" type="curve" smooth="yes"/>
			<point x="937" y="521"/>
			<point x="846" y="615"/>
			<point x="754" y="615" type="curve" smooth="yes"/>
			<point x="753" y="615" type="line" smooth="yes"/>
			<point x="741" y="615"/>
			<point x="740" y="607"/>
			<point x="740" y="603" type="curve" smooth="yes"/>
			<point x="740" y="317" type="line" smooth="yes"/>
			<point x="740" y="277"/>
			<point x="745" y="270"/>
			<point x="787" y="270" type="curve" smooth="yes"/>
			<point x="963" y="270" type="line" smooth="yes"/>
			<point x="1000" y="270"/>
			<point x="1000" y="270"/>
			<point x="1000" y="233" type="curve" smooth="yes"/>
			<point x="1000" y="47" type="line" smooth="yes"/>
			<point x="1000" y="5"/>
			<point x="994" y="0"/>
			<point x="953" y="0" type="curve" smooth="yes"/>
			<point x="91" y="0" type="line" smooth="yes"/>
			<point x="58" y="0"/>
			<point x="50" y="3"/>
			<point x="50" y="35" type="curve" smooth="yes"/>
			<point x="50" y="241" type="line" smooth="yes"/>
			<point x="50" y="269"/>
			<point x="59" y="270"/>
			<point x="88" y="270" type="curve" smooth="yes"/>
			<point x="227" y="270" type="line" smooth="yes"/>
			<point x="267" y="270"/>
			<point x="270" y="277"/>
			<point x="270" y="318" type="curve" smooth="yes"/>
			<point x="270" y="1195" type="line" smooth="yes"/>
			<point x="270" y="1225"/>
			<point x="262" y="1230"/>
		</contour>
	</outline>
</glyph>
<glyph name="I" format="2">
	<advance width="1120" height="0"/>
	<unicode hex="0049"/>
	<anchor x="547" y="1500" name="Anchor-0"/>
	<anchor x="543" y="0" name="Anchor-1"/>
	<anchor x="543" y="0" name="Anchor-2"/>
	<anchor x="543" y="0" name="Anchor-3"/>
	<outline>
		<contour>
			<point x="785" y="1178" type="curve" smooth="yes"/>
			<point x="785" y="314" type="line" smooth="yes"/>
			<point x="785" y="271"/>
			<point x="795" y="270"/>
			<point x="839" y="270" type="curve" smooth="yes"/>
			<point x="997" y="270" type="line" smooth="yes"/>
			<point x="1030" y="270"/>
			<point x="1045" y="269"/>
			<point x="1045" y="236" type="curve" smooth="yes"/>
			<point x="1045" y="50" type="line" smooth="yes"/>
			<point x="1045" y="5"/>
			<point x="1039" y="0"/>
			<point x="995" y="0" type="curve" smooth="yes"/>
			<point x="125" y="0" type="line" smooth="yes"/>
			<point x="79" y="0"/>
			<point x="75" y="9"/>
			<point x="75" y="56" type="curve" smooth="yes"/>
			<point x="75" y="221" type="line" smooth="yes"/>
			<point x="75" y="266"/>
			<point x="88" y="270"/>
			<point x="130" y="270" type="curve" smooth="yes"/>
			<point x="268" y="270" type="line" smooth="yes"/>
			<point x="306" y="270"/>
			<point x="315" y="276"/>
			<point x="315" y="317" type="curve" smooth="yes"/>
			<point x="315" y="1176" type="line" smooth="yes"/>
			<point x="315" y="1219"/>
			<point x="313" y="1230"/>
			<point x="270" y="1230" type="curve" smooth="yes"/>
			<point x="128" y="1230" type="line" smooth="yes"/>
			<point x="87" y="1230"/>
			<point x="75" y="1234"/>
			<point x="75" y="1278" type="curve" smooth="yes"/>
			<point x="75" y="1443" type="line" smooth="yes"/>
			<point x="75" y="1491"/>
			<point x="77" y="1500"/>
			<point x="125" y="1500" type="curve" smooth="yes"/>
			<point x="991" y="1500" type="line" smooth="yes"/>
			<point x="1039" y="1500"/>
			<point x="1045" y="1489"/>
			<point x="1045" y="1444" type="curve" smooth="yes"/>
			<point x="1045" y="1284" type="line" smooth="yes"/>
			<point x="1045" y="1236"/>
			<point x="1038" y="1230"/>
			<point x="992" y="1230" type="curve" smooth="yes"/>
			<point x="835" y="1230" type="line" smooth="yes"/>
			<point x="791" y="1230"/>
			<point x="785" y="1220"/>
		</contour>
	</outline>
</glyph>
<glyph name="M" format="2">
	<advance width="2410" height="0"/>
	<unicode hex="004D"/>
	<anchor x="1236" y="1500" name="Anchor-0"/>
	<anchor x="1135" y="0" name="Anchor-1"/>
	<anchor x="1135" y="0" name="Anchor-2"/>
	<outline>
		<contour>
			<point x="282" y="1230" type="curve" smooth="yes"/>
			<point x="168" y="1230" type="line" smooth="yes"/>
			<point x="121" y="1230"/>
			<point x="120" y="1229"/>
			<point x="120" y="1277" type="curve" smooth="yes"/>
			<point x="120" y="1469" type="line" smooth="yes"/>
			<point x="120" y="1510"/>
			<point x="138" y="1500"/>
			<point x="176" y="1500" type="curve" smooth="yes"/>
			<point x="906" y="1500" type="line" smooth="yes"/>
			<point x="985" y="1500"/>
			<point x="976" y="1473"/>
			<point x="995" y="1417" type="curve" smooth="yes"/>
			<point x="1186" y="819" type="line" smooth="yes"/>
			<point x="1207" y="755"/>
			<point x="1218" y="683"/>
			<point x="1238" y="683" type="curve" smooth="yes"/>
			<point x="1260" y="683"/>
			<point x="1270" y="719"/>
			<point x="1296" y="787" type="curve" smooth="yes"/>
			<point x="1547" y="1459" type="line" smooth="yes"/>
			<point x="1561" y="1496"/>
			<point x="1562" y="1500"/>
			<point x="1614" y="1500" type="curve" smooth="yes"/>
			<point x="2240" y="1500" type="line" smooth="yes"/>
			<point x="2291" y="1500"/>
			<point x="2310" y="1512"/>
			<point x="2310" y="1457" type="curve" smooth="yes"/>
			<point x="2310" y="1281" type="line" smooth="yes"/>
			<point x="2310" y="1232"/>
			<point x="2312" y="1230"/>
			<point x="2262" y="1230" type="curve" smooth="yes"/>
			<point x="2140" y="1230" type="line" smooth="yes"/>
			<point x="2097" y="1230"/>
			<point x="2099" y="1228"/>
			<point x="2100" y="1187" type="curve" smooth="yes"/>
			<point x="2130" y="311" type="line" smooth="yes"/>
			<point x="2131" y="276"/>
			<point x="2126" y="270"/>
			<point x="2164" y="270" type="curve" smooth="yes"/>
			<point x="2324" y="270" type="line" smooth="yes"/>
			<point x="2357" y="270"/>
			<point x="2360" y="263"/>
			<point x="2360" y="229" type="curve" smooth="yes"/>
			<point x="2360" y="55" type="line" smooth="yes"/>
			<point x="2360" y="12"/>
			<point x="2358" y="0"/>
			<point x="2312" y="0" type="curve" smooth="yes"/>
			<point x="1536" y="0" type="line" smooth="yes"/>
			<point x="1492" y="0"/>
			<point x="1490" y="8"/>
			<point x="1490" y="53" type="curve" smooth="yes"/>
			<point x="1490" y="223" type="line" smooth="yes"/>
			<point x="1490" y="268"/>
			<point x="1502" y="270"/>
			<point x="1544" y="270" type="curve" smooth="yes"/>
			<point x="1650" y="270" type="line" smooth="yes"/>
			<point x="1692" y="270"/>
			<point x="1703" y="280"/>
			<point x="1702" y="322" type="curve" smooth="yes"/>
			<point x="1690" y="773" type="line" smooth="yes"/>
			<point x="1686" y="912"/>
			<point x="1717" y="1047"/>
			<point x="1680" y="1047" type="curve" smooth="yes"/>
			<point x="1655" y="1047"/>
			<point x="1655" y="1013"/>
			<point x="1624" y="923" type="curve" smooth="yes"/>
			<point x="1317" y="21" type="line" smooth="yes"/>
			<point x="1302" y="-22"/>
			<point x="1295" y="-30"/>
			<point x="1236" y="-30" type="curve" smooth="yes"/>
			<point x="1056" y="-30" type="line" smooth="yes"/>
			<point x="997" y="-30"/>
			<point x="989" y="-22"/>
			<point x="974" y="21" type="curve" smooth="yes"/>
			<point x="677" y="887" type="line" smooth="yes"/>
			<point x="651" y="962"/>
			<point x="632" y="1097"/>
			<point x="606" y="1097" type="curve" smooth="yes"/>
			<point x="589" y="1097"/>
			<point x="590" y="1063"/>
			<point x="586" y="973" type="curve" smooth="yes"/>
			<point x="556" y="341" type="line" smooth="yes"/>
			<point x="554" y="293"/>
			<point x="549" y="270"/>
			<point x="604" y="270" type="curve" smooth="yes"/>
			<point x="736" y="270" type="line" smooth="yes"/>
			<point x="773" y="270"/>
			<point x="780" y="263"/>
			<point x="780" y="225" type="curve" smooth="yes"/>
			<point x="780" y="51" type="line" smooth="yes"/>
			<point x="780" y="2"/>
			<point x="768" y="0"/>
			<point x="722" y="0" type="curve" smooth="yes"/>
			<point x="102" y="0" type="line" smooth="yes"/>
			<point x="55" y="0"/>
			<point x="50" y="6"/>
			<point x="50" y="55" type="curve" smooth="yes"/>
			<point x="50" y="235" type="line" smooth="yes"/>
			<point x="50" y="263"/>
			<point x="53" y="270"/>
			<point x="80" y="270" type="curve" smooth="yes"/>
			<point x="238" y="270" type="line" smooth="yes"/>
			<point x="298" y="270"/>
			<point x="285" y="294"/>
			<point x="288" y="347" type="curve" smooth="yes"/>
			<point x="334" y="1195" type="line" smooth="yes"/>
			<point x="336" y="1238"/>
			<point x="324" y="1230"/>
		</contour>
	</outline>
</glyph>
<glyph name="N" format="2">
	<advance width="1910" height="0"/>
	<unicode hex="004E"/>
	<anchor x="946" y="1500" name="Anchor-0"/>
	<anchor x="906" y="0" name="Anchor-1"/>
	<anchor x="906" y="0" name="Anchor-2"/>
	<outline>
		<contour>
			<point x="209" y="1230" type="curve" smooth="yes"/>
			<point x="95" y="1230" type="line" smooth="yes"/>
			<point x="60" y="1230"/>
			<point x="50" y="1233"/>
			<point x="50" y="1267" type="curve" smooth="yes"/>
			<point x="50" y="1436" type="line" smooth="yes"/>
			<point x="50" y="1494"/>
			<point x="59" y="1500"/>
			<point x="115" y="1500" type="curve" smooth="yes"/>
			<point x="587" y="1500" type="line" smooth="yes"/>
			<point x="660" y="1500"/>
			<point x="685" y="1495"/>
			<point x="718" y="1459" type="curve" smooth="yes"/>
			<point x="1350" y="779" type="line" smooth="yes"/>
			<point x="1382" y="745"/>
			<point x="1400" y="738"/>
			<point x="1400" y="827" type="curve" smooth="yes"/>
			<point x="1400" y="1191" type="line" smooth="yes"/>
			<point x="1400" y="1220"/>
			<point x="1397" y="1230"/>
			<point x="1369" y="1230" type="curve" smooth="yes"/>
			<point x="1225" y="1230" type="line" smooth="yes"/>
			<point x="1181" y="1230"/>
			<point x="1180" y="1241"/>
			<point x="1180" y="1285" type="curve" smooth="yes"/>
			<point x="1180" y="1449" type="line" smooth="yes"/>
			<point x="1180" y="1497"/>
			<point x="1194" y="1500"/>
			<point x="1239" y="1500" type="curve" smooth="yes"/>
			<point x="1843" y="1500" type="line" smooth="yes"/>
			<point x="1870" y="1500"/>
			<point x="1880" y="1494"/>
			<point x="1880" y="1465" type="curve" smooth="yes"/>
			<point x="1880" y="1293" type="line" smooth="yes"/>
			<point x="1880" y="1234"/>
			<point x="1871" y="1230"/>
			<point x="1811" y="1230" type="curve" smooth="yes"/>
			<point x="1715" y="1230" type="line" smooth="yes"/>
			<point x="1678" y="1230"/>
			<point x="1670" y="1217"/>
			<point x="1670" y="1181" type="curve" smooth="yes"/>
			<point x="1670" y="10" type="line" smooth="yes"/>
			<point x="1670" y="-27"/>
			<point x="1661" y="-30"/>
			<point x="1623" y="-30" type="curve" smooth="yes"/>
			<point x="1480" y="-30" type="line" smooth="yes"/>
			<point x="1420" y="-30"/>
			<point x="1406" y="-13"/>
			<point x="1379" y="17" type="curve" smooth="yes"/>
			<point x="579" y="923" type="line" smooth="yes"/>
			<point x="545" y="962"/>
			<point x="530" y="954"/>
			<point x="530" y="861" type="curve" smooth="yes"/>
			<point x="530" y="325" type="line" smooth="yes"/>
			<point x="530" y="278"/>
			<point x="535" y="270"/>
			<point x="581" y="270" type="curve" smooth="yes"/>
			<point x="725" y="270" type="line" smooth="yes"/>
			<point x="753" y="270"/>
			<point x="760" y="262"/>
			<point x="760" y="232" type="curve" smooth="yes"/>
			<point x="760" y="50" type="line" smooth="yes"/>
			<point x="760" y="1"/>
			<point x="733" y="0"/>
			<point x="689" y="0" type="curve" smooth="yes"/>
			<point x="117" y="0" type="line" smooth="yes"/>
			<point x="59" y="0"/>
			<point x="50" y="5"/>
			<point x="50" y="65" type="curve" smooth="yes"/>
			<point x="50" y="219" type="line" smooth="yes"/>
			<point x="50" y="269"/>
			<point x="61" y="270"/>
			<point x="111" y="270" type="curve" smooth="yes"/>
			<point x="209" y="270" type="line" smooth="yes"/>
			<point x="255" y="270"/>
			<point x="260" y="279"/>
			<point x="260" y="326" type="curve" smooth="yes"/>
			<point x="260" y="1179" type="line" smooth="yes"/>
			<point x="260" y="1230"/>
			<point x="260" y="1230"/>
		</contour>
	</outline>
</glyph>
<glyph name="P" format="2">
	<advance width="1600" height="0"/>
	<unicode hex="0050"/>
	<anchor x="746" y="1500" name="Anchor-0"/>
	<anchor x="462" y="0" name="Anchor-1"/>
	<anchor x="462" y="0" name="Anchor-2"/>
	<outline>
		<contour>
			<point x="214" y="1230" type="curve" smooth="yes"/>
			<point x="104" y="1230" type="line" smooth="yes"/>
			<point x="58" y="1230"/>
			<point x="50" y="1232"/>
			<point x="50" y="1278" type="curve" smooth="yes"/>
			<point x="50" y="1448" type="line" smooth="yes"/>
			<point x="50" y="1496"/>
			<point x="61" y="1500"/>
			<point x="106" y="1500" type="curve" smooth="yes"/>
			<point x="880" y="1500" type="line" smooth="yes"/>
			<point x="1242" y="1500"/>
			<point x="1560" y="1380"/>
			<point x="1560" y="1040" type="curve" smooth="yes"/>
			<point x="1560" y="700"/>
			<point x="1242" y="560"/>
			<point x="880" y="560" type="curve" smooth="yes"/>
			<point x="784" y="560" type="line" smooth="yes"/>
			<point x="741" y="560"/>
			<point x="740" y="551"/>
			<point x="740" y="508" type="curve" smooth="yes"/>
			<point x="740" y="318" type="line" smooth="yes"/>
			<point x="740" y="274"/>
			<point x="747" y="270"/>
			<point x="792" y="270" type="curve" smooth="yes"/>
			<point x="956" y="270" type="line" smooth="yes"/>
			<point x="998" y="270"/>
			<point x="1000" y="262"/>
			<point x="1000" y="220" type="curve" smooth="yes"/>
			<point x="1000" y="56" type="line" smooth="yes"/>
			<point x="1000" y="10"/>
			<point x="1000" y="0"/>
			<point x="954" y="0" type="curve" smooth="yes"/>
			<point x="98" y="0" type="line" smooth="yes"/>
			<point x="58" y="0"/>
			<point x="50" y="4"/>
			<point x="50" y="46" type="curve" smooth="yes"/>
			<point x="50" y="220" type="line" smooth="yes"/>
			<point x="50" y="263"/>
			<point x="54" y="270"/>
			<point x="96" y="270" type="curve" smooth="yes"/>
			<point x="212" y="270" type="line" smooth="yes"/>
			<point x="268" y="270"/>
			<point x="270" y="280"/>
			<point x="270" y="334" type="curve" smooth="yes"/>
			<point x="270" y="1182" type="line" smooth="yes"/>
			<point x="270" y="1229"/>
			<point x="261" y="1230"/>
		</contour>
		<contour>
			<point x="782" y="830" type="curve" smooth="yes"/>
			<point x="840" y="830" type="line" smooth="yes"/>
			<point x="972" y="830"/>
			<point x="1060" y="902"/>
			<point x="1060" y="1040" type="curve" smooth="yes"/>
			<point x="1060" y="1178"/>
			<point x="972" y="1230"/>
			<point x="840" y="1230" type="curve" smooth="yes"/>
			<point x="776" y="1230" type="line" smooth="yes"/>
			<point x="741" y="1230"/>
			<point x="740" y="1221"/>
			<point x="740" y="1186" type="curve" smooth="yes"/>
			<point x="740" y="874" type="line" smooth="yes"/>
			<point x="740" y="836"/>
			<point x="745" y="830"/>
		</contour>
	</outline>
</glyph>
<glyph name="Y" format="2">
	<advance width="1770" height="0"/>
	<unicode hex="0059"/>
	<anchor x="986" y="1500" name="Anchor-0"/>
	<anchor x="901" y="0" name="Anchor-1"/>
	<anchor x="901" y="0" name="Anchor-2"/>
	<outline>
		<contour>
			<point x="450" y="36" type="curve" smooth="yes"/>
			<point x="450" y="224" type="line" smooth="yes"/>
			<point x="450" y="262"/>
			<point x="453" y="270"/>
			<point x="490" y="270" type="curve" smooth="yes"/>
			<point x="626" y="270" type="line" smooth="yes"/>
			<point x="666" y="270"/>
			<point x="670" y="278"/>
			<point x="670" y="319" type="curve" smooth="yes"/>
			<point x="670" y="463" type="line" smooth="yes"/>
			<point x="670" y="517"/>
			<point x="661" y="531"/>
			<point x="641" y="561" type="curve" smooth="yes"/>
			<point x="214" y="1184" type="line" smooth="yes"/>
			<point x="191" y="1218"/>
			<point x="189" y="1230"/>
			<point x="129" y="1230" type="curve" smooth="yes"/>
			<point x="23" y="1230" type="line" smooth="yes"/>
			<point x="-19" y="1230"/>
			<point x="-20" y="1239"/>
			<point x="-20" y="1281" type="curve" smooth="yes"/>
			<point x="-20" y="1430" type="line" smooth="yes"/>
			<point x="-20" y="1492"/>
			<point x="-1" y="1500"/>
			<point x="57" y="1500" type="curve" smooth="yes"/>
			<point x="851" y="1500" type="line" smooth="yes"/>
			<point x="902" y="1500"/>
			<point x="920" y="1497"/>
			<point x="920" y="1442" type="curve" smooth="yes"/>
			<point x="920" y="1277" type="line" smooth="yes"/>
			<point x="920" y="1237"/>
			<point x="913" y="1230"/>
			<point x="874" y="1230" type="curve" smooth="yes"/>
			<point x="789" y="1230" type="line" smooth="yes"/>
			<point x="739" y="1230"/>
			<point x="731" y="1219"/>
			<point x="760" y="1176" type="curve" smooth="yes"/>
			<point x="932" y="926" type="line" smooth="yes"/>
			<point x="987" y="847"/>
			<point x="986" y="857"/>
			<point x="1043" y="930" type="curve" smooth="yes"/>
			<point x="1236" y="1180" type="line" smooth="yes"/>
			<point x="1269" y="1222"/>
			<point x="1249" y="1230"/>
			<point x="1207" y="1230" type="curve" smooth="yes"/>
			<point x="1130" y="1230" type="line" smooth="yes"/>
			<point x="1079" y="1230"/>
			<point x="1070" y="1232"/>
			<point x="1070" y="1283" type="curve" smooth="yes"/>
			<point x="1070" y="1450" type="line" smooth="yes"/>
			<point x="1070" y="1495"/>
			<point x="1076" y="1500"/>
			<point x="1120" y="1500" type="curve" smooth="yes"/>
			<point x="1741" y="1500" type="line" smooth="yes"/>
			<point x="1775" y="1500"/>
			<point x="1790" y="1499"/>
			<point x="1790" y="1461" type="curve" smooth="yes"/>
			<point x="1790" y="1257" type="line" smooth="yes"/>
			<point x="1790" y="1232"/>
			<point x="1779" y="1230"/>
			<point x="1753" y="1230" type="curve" smooth="yes"/>
			<point x="1687" y="1230" type="line" smooth="yes"/>
			<point x="1628" y="1230"/>
			<point x="1624" y="1219"/>
			<point x="1599" y="1188" type="curve" smooth="yes"/>
			<point x="1180" y="669" type="line" smooth="yes"/>
			<point x="1154" y="636"/>
			<point x="1140" y="626"/>
			<point x="1140" y="563" type="curve" smooth="yes"/>
			<point x="1140" y="317" type="line" smooth="yes"/>
			<point x="1140" y="279"/>
			<point x="1143" y="270"/>
			<point x="1180" y="270" type="curve" smooth="yes"/>
			<point x="1339" y="270" type="line" smooth="yes"/>
			<point x="1378" y="270"/>
			<point x="1380" y="261"/>
			<point x="1380" y="221" type="curve" smooth="yes"/>
			<point x="1380" y="39" type="line" smooth="yes"/>
			<point x="1380" y="8"/>
			<point x="1376" y="0"/>
			<point x="1346" y="0" type="curve" smooth="yes"/>
			<point x="482" y="0" type="line" smooth="yes"/>
			<point x="455" y="0"/>
			<point x="450" y="7"/>
		</contour>
	</outline>
</glyph>
<glyph name="c" format="2">
	<advance width="1268" height="2310"/>
	<unicode hex="0063"/>
	<anchor x="686" y="1040" name="Anchor-0"/>
	<anchor x="684" y="0" name="Anchor-1"/>
	<anchor x="684" y="0" name="Anchor-2"/>
	<outline>
		<contour>
			<point x="50" y="500" type="curve" smooth="yes"/>
			<point x="50" y="800"/>
			<point x="266" y="1080"/>
			<point x="688" y="1080" type="curve" smooth="yes"/>
			<point x="1012" y="1080"/>
			<point x="1178" y="918"/>
			<point x="1178" y="744" type="curve" smooth="yes"/>
			<point x="1178" y="588"/>
			<point x="1070" y="500"/>
			<point x="932" y="500" type="curve" smooth="yes"/>
			<point x="778" y="500"/>
			<point x="698" y="582"/>
			<point x="698" y="696" type="curve" smooth="yes"/>
			<point x="698" y="798"/>
			<point x="780" y="818"/>
			<point x="780" y="852" type="curve" smooth="yes"/>
			<point x="780" y="878"/>
			<point x="754" y="898"/>
			<point x="698" y="898" type="curve" smooth="yes"/>
			<point x="568" y="898"/>
			<point x="520" y="768"/>
			<point x="520" y="540" type="curve" smooth="yes"/>
			<point x="520" y="352"/>
			<point x="552" y="166"/>
			<point x="690" y="166" type="curve" smooth="yes"/>
			<point x="788" y="166"/>
			<point x="845" y="218"/>
			<point x="893" y="321" type="curve" smooth="yes"/>
			<point x="902" y="341"/>
			<point x="911" y="346"/>
			<point x="942" y="346" type="curve" smooth="yes"/>
			<point x="1138" y="346" type="line" smooth="yes"/>
			<point x="1172" y="346"/>
			<point x="1176" y="342"/>
			<point x="1169" y="315" type="curve" smooth="yes"/>
			<point x="1107" y="64"/>
			<point x="898" y="-40"/>
			<point x="646" y="-40" type="curve" smooth="yes"/>
			<point x="244" y="-40"/>
			<point x="50" y="220"/>
		</contour>
	</outline>
</glyph>
<glyph name="d" format="2">
	<advance width="1471" height="2310"/>
	<unicode hex="0064"/>
	<anchor x="521" y="1040" name="Anchor-0"/>
	<anchor x="1509" y="1040" name="Anchor-1"/>
	<anchor x="742" y="0" name="Anchor-2"/>
	<anchor x="1509" y="1040" name="Anchor-3"/>
	<outline>
		<contour>
			<point x="490" y="518" type="curve" smooth="yes"/>
			<point x="490" y="330"/>
			<point x="562" y="202"/>
			<point x="650" y="202" type="curve" smooth="yes"/>
			<point x="752" y="202"/>
			<point x="826" y="330"/>
			<point x="826" y="518" type="curve" smooth="yes"/>
			<point x="826" y="706"/>
			<point x="752" y="834"/>
			<point x="650" y="834" type="curve" smooth="yes"/>
			<point x="562" y="834"/>
			<point x="490" y="706"/>
		</contour>
		<contour>
			<point x="50" y="518" type="curve" smooth="yes"/>
			<point x="50" y="878"/>
			<point x="256" y="1078"/>
			<point x="514" y="1078" type="curve" smooth="yes"/>
			<point x="663" y="1078"/>
			<point x="753" y="1023"/>
			<point x="807" y="935" type="curve" smooth="yes"/>
			<point x="825" y="906"/>
			<point x="826" y="918"/>
			<point x="826" y="973" type="curve" smooth="yes"/>
			<point x="826" y="1324" type="line" smooth="yes"/>
			<point x="826" y="1345"/>
			<point x="818" y="1350"/>
			<point x="799" y="1350" type="curve" smooth="yes"/>
			<point x="681" y="1350" type="line" smooth="yes"/>
			<point x="650" y="1350"/>
			<point x="646" y="1351"/>
			<point x="646" y="1382" type="curve" smooth="yes"/>
			<point x="646" y="1522" type="line" smooth="yes"/>
			<point x="646" y="1557"/>
			<point x="654" y="1560"/>
			<point x="690" y="1560" type="curve" smooth="yes"/>
			<point x="1211" y="1560" type="line" smooth="yes"/>
			<point x="1236" y="1560"/>
			<point x="1246" y="1556"/>
			<point x="1246" y="1529" type="curve" smooth="yes"/>
			<point x="1246" y="255" type="line" smooth="yes"/>
			<point x="1246" y="216"/>
			<point x="1250" y="210"/>
			<point x="1288" y="210" type="curve" smooth="yes"/>
			<point x="1403" y="210" type="line" smooth="yes"/>
			<point x="1425" y="210"/>
			<point x="1426" y="201"/>
			<point x="1426" y="178" type="curve" smooth="yes"/>
			<point x="1426" y="35" type="line" smooth="yes"/>
			<point x="1426" y="4"/>
			<point x="1420" y="0"/>
			<point x="1388" y="0" type="curve" smooth="yes"/>
			<point x="857" y="0" type="line" smooth="yes"/>
			<point x="829" y="0"/>
			<point x="826" y="7"/>
			<point x="826" y="36" type="curve" smooth="yes"/>
			<point x="826" y="87" type="line" smooth="yes"/>
			<point x="826" y="111"/>
			<point x="820" y="126"/>
			<point x="801" y="98" type="curve" smooth="yes"/>
			<point x="744" y="12"/>
			<point x="650" y="-40"/>
			<point x="494" y="-40" type="curve" smooth="yes"/>
			<point x="236" y="-40"/>
			<point x="50" y="158"/>
		</contour>
	</outline>
</glyph>
<glyph name="n" format="2">
	<advance width="1555" height="2310"/>
	<unicode hex="006E"/>
	<anchor x="801" y="1040" name="Anchor-0"/>
	<anchor x="790" y="0" name="Anchor-1"/>
	<anchor x="790" y="0" name="Anchor-2"/>
	<outline>
		<contour>
			<point x="189" y="830" type="curve" smooth="yes"/>
			<point x="105" y="830" type="line" smooth="yes"/>
			<point x="60" y="830"/>
			<point x="55" y="837"/>
			<point x="55" y="881" type="curve" smooth="yes"/>
			<point x="55" y="987" type="line" smooth="yes"/>
			<point x="55" y="1033"/>
			<point x="80" y="1040"/>
			<point x="121" y="1040" type="curve" smooth="yes"/>
			<point x="559" y="1040" type="line" smooth="yes"/>
			<point x="590" y="1040"/>
			<point x="615" y="1032"/>
			<point x="615" y="990" type="curve" smooth="yes"/>
			<point x="615" y="954" type="line" smooth="yes"/>
			<point x="615" y="905"/>
			<point x="628" y="890"/>
			<point x="656" y="922" type="curve" smooth="yes"/>
			<point x="728" y="1004"/>
			<point x="812" y="1080"/>
			<point x="981" y="1080" type="curve" smooth="yes"/>
			<point x="1215" y="1080"/>
			<point x="1345" y="952"/>
			<point x="1345" y="738" type="curve" smooth="yes"/>
			<point x="1345" y="253" type="line" smooth="yes"/>
			<point x="1345" y="213"/>
			<point x="1352" y="210"/>
			<point x="1393" y="210" type="curve" smooth="yes"/>
			<point x="1489" y="210" type="line" smooth="yes"/>
			<point x="1515" y="210"/>
			<point x="1525" y="201"/>
			<point x="1525" y="173" type="curve" smooth="yes"/>
			<point x="1525" y="52" type="line" smooth="yes"/>
			<point x="1525" y="2"/>
			<point x="1514" y="0"/>
			<point x="1467" y="0" type="curve" smooth="yes"/>
			<point x="865" y="0" type="line" smooth="yes"/>
			<point x="828" y="0"/>
			<point x="825" y="8"/>
			<point x="825" y="46" type="curve" smooth="yes"/>
			<point x="825" y="164" type="line" smooth="yes"/>
			<point x="825" y="192"/>
			<point x="826" y="210"/>
			<point x="857" y="210" type="curve" smooth="yes"/>
			<point x="883" y="210" type="line" smooth="yes"/>
			<point x="919" y="210"/>
			<point x="925" y="214"/>
			<point x="925" y="249" type="curve" smooth="yes"/>
			<point x="925" y="706" type="line" smooth="yes"/>
			<point x="925" y="814"/>
			<point x="897" y="846"/>
			<point x="835" y="846" type="curve" smooth="yes"/>
			<point x="759" y="846"/>
			<point x="655" y="772"/>
			<point x="655" y="566" type="curve" smooth="yes"/>
			<point x="655" y="249" type="line" smooth="yes"/>
			<point x="655" y="219"/>
			<point x="659" y="210"/>
			<point x="691" y="210" type="curve" smooth="yes"/>
			<point x="715" y="210" type="line" smooth="yes"/>
			<point x="746" y="210"/>
			<point x="755" y="206"/>
			<point x="755" y="173" type="curve" smooth="yes"/>
			<point x="755" y="37" type="line" smooth="yes"/>
			<point x="755" y="2"/>
			<point x="737" y="0"/>
			<point x="705" y="0" type="curve" smooth="yes"/>
			<point x="87" y="0" type="line" smooth="yes"/>
			<point x="56" y="0"/>
			<point x="55" y="9"/>
			<point x="55" y="41" type="curve" smooth="yes"/>
			<point x="55" y="168" type="line" smooth="yes"/>
			<point x="55" y="204"/>
			<point x="60" y="210"/>
			<point x="95" y="210" type="curve" smooth="yes"/>
			<point x="185" y="210" type="line" smooth="yes"/>
			<point x="226" y="210"/>
			<point x="235" y="211"/>
			<point x="235" y="252" type="curve" smooth="yes"/>
			<point x="235" y="784" type="line" smooth="yes"/>
			<point x="235" y="825"/>
			<point x="229" y="830"/>
		</contour>
	</outline>
</glyph>
<glyph name="p" format="2">
	<advance width="1471" height="2310"/>
	<unicode hex="0070"/>
	<anchor x="888" y="1040" name="Anchor-0"/>
	<anchor x="927" y="0" name="Anchor-1"/>
	<anchor x="927" y="0" name="Anchor-2"/>
	<outline>
		<contour>
			<point x="645" y="522" type="curve" smooth="yes"/>
			<point x="645" y="334"/>
			<point x="719" y="206"/>
			<point x="821" y="206" type="curve" smooth="yes"/>
			<point x="909" y="206"/>
			<point x="981" y="334"/>
			<point x="981" y="522" type="curve" smooth="yes"/>
			<point x="981" y="710"/>
			<point x="909" y="838"/>
			<point x="821" y="838" type="curve" smooth="yes"/>
			<point x="719" y="838"/>
			<point x="645" y="710"/>
		</contour>
		<contour>
			<point x="45" y="882" type="curve" smooth="yes"/>
			<point x="45" y="995" type="line" smooth="yes"/>
			<point x="45" y="1036"/>
			<point x="55" y="1040"/>
			<point x="94" y="1040" type="curve" smooth="yes"/>
			<point x="600" y="1040" type="line" smooth="yes"/>
			<point x="628" y="1040"/>
			<point x="645" y="1035"/>
			<point x="645" y="1004" type="curve" smooth="yes"/>
			<point x="645" y="950" type="line" smooth="yes"/>
			<point x="645" y="920"/>
			<point x="656" y="923"/>
			<point x="678" y="954" type="curve" smooth="yes"/>
			<point x="736" y="1033"/>
			<point x="829" y="1080"/>
			<point x="977" y="1080" type="curve" smooth="yes"/>
			<point x="1235" y="1080"/>
			<point x="1421" y="882"/>
			<point x="1421" y="522" type="curve" smooth="yes"/>
			<point x="1421" y="162"/>
			<point x="1215" y="-38"/>
			<point x="957" y="-38" type="curve" smooth="yes"/>
			<point x="827" y="-38"/>
			<point x="742" y="4"/>
			<point x="686" y="74" type="curve" smooth="yes"/>
			<point x="657" y="110"/>
			<point x="645" y="124"/>
			<point x="645" y="26" type="curve" smooth="yes"/>
			<point x="645" y="-258" type="line" smooth="yes"/>
			<point x="645" y="-301"/>
			<point x="649" y="-310"/>
			<point x="694" y="-310" type="curve" smooth="yes"/>
			<point x="790" y="-310" type="line" smooth="yes"/>
			<point x="816" y="-310"/>
			<point x="825" y="-314"/>
			<point x="825" y="-342" type="curve" smooth="yes"/>
			<point x="825" y="-478" type="line" smooth="yes"/>
			<point x="825" y="-518"/>
			<point x="817" y="-520"/>
			<point x="776" y="-520" type="curve" smooth="yes"/>
			<point x="90" y="-520" type="line" smooth="yes"/>
			<point x="50" y="-520"/>
			<point x="45" y="-514"/>
			<point x="45" y="-476" type="curve" smooth="yes"/>
			<point x="45" y="-348" type="line" smooth="yes"/>
			<point x="45" y="-318"/>
			<point x="50" y="-310"/>
			<point x="82" y="-310" type="curve" smooth="yes"/>
			<point x="176" y="-310" type="line" smooth="yes"/>
			<point x="220" y="-310"/>
			<point x="225" y="-303"/>
			<point x="225" y="-257" type="curve" smooth="yes"/>
			<point x="225" y="778" type="line" smooth="yes"/>
			<point x="225" y="825"/>
			<point x="215" y="830"/>
			<point x="170" y="830" type="curve" smooth="yes"/>
			<point x="100" y="830" type="line" smooth="yes"/>
			<point x="51" y="830"/>
			<point x="45" y="835"/>
		</contour>
	</outline>
</glyph>
<glyph name="w" format="2">
	<advance width="1890" height="2310"/>
	<unicode hex="0077"/>
	<anchor x="1017" y="1040" name="Anchor-0"/>
	<anchor x="957" y="0" name="Anchor-1"/>
	<anchor x="957" y="0" name="Anchor-2"/>
	<outline>
		<contour>
			<point x="720" y="567" type="curve" smooth="yes"/>
			<point x="895" y="1013" type="line" smooth="yes"/>
			<point x="903" y="1034"/>
			<point x="912" y="1040"/>
			<point x="942" y="1040" type="curve" smooth="yes"/>
			<point x="1096" y="1040" type="line" smooth="yes"/>
			<point x="1139" y="1040"/>
			<point x="1151" y="1038"/>
			<point x="1164" y="1009" type="curve" smooth="yes"/>
			<point x="1349" y="603" type="line" smooth="yes"/>
			<point x="1370" y="557"/>
			<point x="1367" y="532"/>
			<point x="1383" y="532" type="curve" smooth="yes"/>
			<point x="1401" y="532"/>
			<point x="1404" y="555"/>
			<point x="1419" y="603" type="curve" smooth="yes"/>
			<point x="1478" y="795" type="line" smooth="yes"/>
			<point x="1488" y="827"/>
			<point x="1481" y="830"/>
			<point x="1444" y="830" type="curve" smooth="yes"/>
			<point x="1364" y="830" type="line" smooth="yes"/>
			<point x="1335" y="830"/>
			<point x="1332" y="841"/>
			<point x="1332" y="867" type="curve" smooth="yes"/>
			<point x="1332" y="1013" type="line" smooth="yes"/>
			<point x="1332" y="1039"/>
			<point x="1341" y="1040"/>
			<point x="1368" y="1040" type="curve" smooth="yes"/>
			<point x="1862" y="1040" type="line" smooth="yes"/>
			<point x="1889" y="1040"/>
			<point x="1900" y="1032"/>
			<point x="1900" y="1002" type="curve" smooth="yes"/>
			<point x="1900" y="877" type="line" smooth="yes"/>
			<point x="1900" y="839"/>
			<point x="1898" y="830"/>
			<point x="1860" y="830" type="curve" smooth="yes"/>
			<point x="1786" y="830" type="line" smooth="yes"/>
			<point x="1742" y="830"/>
			<point x="1733" y="825"/>
			<point x="1722" y="793" type="curve" smooth="yes"/>
			<point x="1472" y="21" type="line" smooth="yes"/>
			<point x="1459" y="-18"/>
			<point x="1464" y="-30"/>
			<point x="1410" y="-30" type="curve" smooth="yes"/>
			<point x="1254" y="-30" type="line" smooth="yes"/>
			<point x="1195" y="-30"/>
			<point x="1195" y="-24"/>
			<point x="1177" y="15" type="curve" smooth="yes"/>
			<point x="987" y="423" type="line" smooth="yes"/>
			<point x="966" y="469"/>
			<point x="966" y="511"/>
			<point x="948" y="511" type="curve" smooth="yes"/>
			<point x="933" y="511"/>
			<point x="924" y="471"/>
			<point x="908" y="431" type="curve" smooth="yes"/>
			<point x="742" y="15" type="line" smooth="yes"/>
			<point x="727" y="-23"/>
			<point x="728" y="-30"/>
			<point x="672" y="-30" type="curve" smooth="yes"/>
			<point x="520" y="-30" type="line" smooth="yes"/>
			<point x="461" y="-30"/>
			<point x="463" y="-21"/>
			<point x="448" y="21" type="curve" smooth="yes"/>
			<point x="173" y="795" type="line" smooth="yes"/>
			<point x="162" y="825"/>
			<point x="163" y="830"/>
			<point x="120" y="830" type="curve" smooth="yes"/>
			<point x="26" y="830" type="line" smooth="yes"/>
			<point x="-9" y="830"/>
			<point x="-10" y="845"/>
			<point x="-10" y="877" type="curve" smooth="yes"/>
			<point x="-10" y="999" type="line" smooth="yes"/>
			<point x="-10" y="1036"/>
			<point x="-2" y="1040"/>
			<point x="32" y="1040" type="curve" smooth="yes"/>
			<point x="688" y="1040" type="line" smooth="yes"/>
			<point x="723" y="1040"/>
			<point x="732" y="1036"/>
			<point x="732" y="999" type="curve" smooth="yes"/>
			<point x="732" y="875" type="line" smooth="yes"/>
			<point x="732" y="837"/>
			<point x="729" y="830"/>
			<point x="692" y="830" type="curve" smooth="yes"/>
			<point x="612" y="830" type="line" smooth="yes"/>
			<point x="573" y="830"/>
			<point x="579" y="827"/>
			<point x="588" y="799" type="curve" smooth="yes"/>
			<point x="666" y="565" type="line" smooth="yes"/>
			<point x="679" y="526"/>
			<point x="673" y="507"/>
			<point x="689" y="507" type="curve" smooth="yes"/>
			<point x="706" y="507"/>
			<point x="704" y="527"/>
		</contour>
	</outline>
</glyph>
<glyph name="braceleft" format="2">
	<advance width="744" height="2310"/>
	<unicode hex="007B"/>
	<outline>
		<contour>
			<point x="627" y="-300" type="curve" smooth="yes"/>
			<point x="269" y="-294"/>
			<point x="70" y="-228"/>
			<point x="70" y="-20" type="curve" smooth="yes"/>
			<point x="70" y="174"/>
			<point x="230" y="284"/>
			<point x="230" y="410" type="curve" smooth="yes"/>
			<point x="230" y="477"/>
			<point x="190" y="495"/>
			<point x="142" y="510" type="curve" smooth="yes"/>
			<point x="107" y="521"/>
			<point x="110" y="535"/>
			<point x="110" y="581" type="curve" smooth="yes"/>
			<point x="110" y="716" type="line" smooth="yes"/>
			<point x="110" y="752"/>
			<point x="134" y="747"/>
			<point x="158" y="756" type="curve" smooth="yes"/>
			<point x="198" y="771"/>
			<point x="230" y="792"/>
			<point x="230" y="852" type="curve" smooth="yes"/>
			<point x="230" y="978"/>
			<point x="70" y="1088"/>
			<point x="70" y="1282" type="curve" smooth="yes"/>
			<point x="70" y="1491"/>
			<point x="276" y="1555"/>
			<point x="636" y="1560" type="curve" smooth="yes"/>
			<point x="679" y="1561"/>
			<point x="684" y="1551"/>
			<point x="684" y="1506" type="curve" smooth="yes"/>
			<point x="684" y="1393" type="line" smooth="yes"/>
			<point x="684" y="1342"/>
			<point x="671" y="1347"/>
			<point x="626" y="1345" type="curve" smooth="yes"/>
			<point x="535" y="1341"/>
			<point x="476" y="1322"/>
			<point x="476" y="1234" type="curve" smooth="yes"/>
			<point x="476" y="1102"/>
			<point x="564" y="1042"/>
			<point x="564" y="862" type="curve" smooth="yes"/>
			<point x="564" y="785"/>
			<point x="497" y="702"/>
			<point x="411" y="670" type="curve" smooth="yes"/>
			<point x="372" y="656"/>
			<point x="358" y="659"/>
			<point x="358" y="630" type="curve" smooth="yes"/>
			<point x="358" y="600"/>
			<point x="375" y="603"/>
			<point x="420" y="586" type="curve" smooth="yes"/>
			<point x="502" y="555"/>
			<point x="564" y="475"/>
			<point x="564" y="400" type="curve" smooth="yes"/>
			<point x="564" y="220"/>
			<point x="476" y="160"/>
			<point x="476" y="28" type="curve" smooth="yes"/>
			<point x="476" y="-60"/>
			<point x="535" y="-81"/>
			<point x="626" y="-85" type="curve" smooth="yes"/>
			<point x="666" y="-87"/>
			<point x="684" y="-85"/>
			<point x="684" y="-132" type="curve" smooth="yes"/>
			<point x="684" y="-236" type="line" smooth="yes"/>
			<point x="684" y="-289"/>
			<point x="680" y="-301"/>
		</contour>
	</outline>
</glyph>
<glyph name="ordfeminine" format="2">
	<advance width="907" height="2310"/>
	<unicode hex="00AA"/>
	<outline>
		<contour>
			<point x="40" y="1112" type="curve" smooth="yes"/>
			<point x="40" y="1249"/>
			<point x="187" y="1317"/>
			<point x="393" y="1317" type="curve" smooth="yes"/>
			<point x="434" y="1317" type="line" smooth="yes"/>
			<point x="448" y="1317"/>
			<point x="449" y="1318"/>
			<point x="449" y="1332" type="curve" smooth="yes"/>
			<point x="449" y="1404" type="line" smooth="yes"/>
			<point x="449" y="1466"/>
			<point x="410" y="1497"/>
			<point x="356" y="1497" type="curve" smooth="yes"/>
			<point x="338" y="1497"/>
			<point x="324" y="1492"/>
			<point x="324" y="1485" type="curve" smooth="yes"/>
			<point x="324" y="1471"/>
			<point x="345" y="1471"/>
			<point x="345" y="1418" type="curve" smooth="yes"/>
			<point x="345" y="1359"/>
			<point x="284" y="1324"/>
			<point x="219" y="1324" type="curve" smooth="yes"/>
			<point x="146" y="1324"/>
			<point x="88" y="1353"/>
			<point x="88" y="1418" type="curve" smooth="yes"/>
			<point x="88" y="1552"/>
			<point x="265" y="1600"/>
			<point x="434" y="1600" type="curve" smooth="yes"/>
			<point x="602" y="1600"/>
			<point x="701" y="1531"/>
			<point x="701" y="1380" type="curve" smooth="yes"/>
			<point x="701" y="1127" type="line" smooth="yes"/>
			<point x="701" y="1103"/>
			<point x="715" y="1092"/>
			<point x="732" y="1092" type="curve" smooth="yes"/>
			<point x="749" y="1092"/>
			<point x="765" y="1098"/>
			<point x="779" y="1124" type="curve" smooth="yes"/>
			<point x="783" y="1131"/>
			<point x="787" y="1133"/>
			<point x="793" y="1128" type="curve"/>
			<point x="861" y="1086" type="line" smooth="yes"/>
			<point x="868" y="1082"/>
			<point x="869" y="1080"/>
			<point x="865" y="1072" type="curve" smooth="yes"/>
			<point x="837" y="1019"/>
			<point x="777" y="952"/>
			<point x="668" y="952" type="curve" smooth="yes"/>
			<point x="667" y="952" type="line" smooth="yes"/>
			<point x="582" y="952"/>
			<point x="534" y="970"/>
			<point x="498" y="1010" type="curve" smooth="yes"/>
			<point x="478" y="1032"/>
			<point x="471" y="1032"/>
			<point x="458" y="1019" type="curve" smooth="yes"/>
			<point x="418" y="980"/>
			<point x="353" y="952"/>
			<point x="250" y="952" type="curve" smooth="yes"/>
			<point x="113" y="952"/>
			<point x="40" y="1005"/>
		</contour>
		<contour>
			<point x="324" y="1136" type="curve" smooth="yes"/>
			<point x="324" y="1104"/>
			<point x="340" y="1083"/>
			<point x="376" y="1083" type="curve" smooth="yes"/>
			<point x="428" y="1083"/>
			<point x="449" y="1114"/>
			<point x="449" y="1193" type="curve" smooth="yes"/>
			<point x="449" y="1214" type="line" smooth="yes"/>
			<point x="449" y="1224"/>
			<point x="447" y="1226"/>
			<point x="437" y="1226" type="curve" smooth="yes"/>
			<point x="432" y="1226" type="line" smooth="yes"/>
			<point x="377" y="1226"/>
			<point x="324" y="1180"/>
		</contour>
	</outline>
</glyph>
<glyph name="logicalnot" format="2">
	<advance width="1051" height="0"/>
	<unicode hex="00AC"/>
	<outline>
		<contour>
			<point x="739" y="406" type="line"/>
			<point x="739" y="666" type="line"/>
			<point x="120" y="666" type="line"/>
			<point x="120" y="880" type="line"/>
			<point x="932" y="880" type="line"/>
			<point x="932" y="406" type="line"/>
		</contour>
	</outline>
</glyph>
<glyph name="threesuperior" format="2">
	<advance width="776" height="2310"/>
	<unicode hex="00B3"/>
	<outline>
		<contour>
			<point x="40" y="1123" type="curve" smooth="yes"/>
			<point x="40" y="1205"/>
			<point x="94" y="1268"/>
			<point x="183" y="1268" type="curve" smooth="yes"/>
			<point x="263" y="1268"/>
			<point x="305" y="1224"/>
			<point x="305" y="1168" type="curve" smooth="yes"/>
			<point x="305" y="1089"/>
			<point x="230" y="1090"/>
			<point x="230" y="1062" type="curve" smooth="yes"/>
			<point x="230" y="1030"/>
			<point x="288" y="1012"/>
			<point x="335" y="1012" type="curve" smooth="yes"/>
			<point x="424" y="1012"/>
			<point x="495" y="1041"/>
			<point x="495" y="1166" type="curve" smooth="yes"/>
			<point x="495" y="1248"/>
			<point x="442" y="1307"/>
			<point x="332" y="1316" type="curve" smooth="yes"/>
			<point x="309" y="1318"/>
			<point x="300" y="1312"/>
			<point x="300" y="1338" type="curve" smooth="yes"/>
			<point x="300" y="1417" type="line" smooth="yes"/>
			<point x="300" y="1440"/>
			<point x="306" y="1435"/>
			<point x="326" y="1437" type="curve" smooth="yes"/>
			<point x="436" y="1445"/>
			<point x="471" y="1511"/>
			<point x="471" y="1599" type="curve" smooth="yes"/>
			<point x="471" y="1688"/>
			<point x="412" y="1722"/>
			<point x="335" y="1722" type="curve" smooth="yes"/>
			<point x="300" y="1722"/>
			<point x="261" y="1712"/>
			<point x="261" y="1692" type="curve" smooth="yes"/>
			<point x="261" y="1664"/>
			<point x="341" y="1670"/>
			<point x="341" y="1585" type="curve" smooth="yes"/>
			<point x="341" y="1535"/>
			<point x="293" y="1485"/>
			<point x="219" y="1485" type="curve" smooth="yes"/>
			<point x="148" y="1485"/>
			<point x="76" y="1530"/>
			<point x="76" y="1618" type="curve" smooth="yes"/>
			<point x="76" y="1734"/>
			<point x="195" y="1826"/>
			<point x="383" y="1826" type="curve" smooth="yes"/>
			<point x="582" y="1826"/>
			<point x="712" y="1737"/>
			<point x="712" y="1599" type="curve" smooth="yes"/>
			<point x="712" y="1513"/>
			<point x="661" y="1435"/>
			<point x="528" y="1393" type="curve" smooth="yes"/>
			<point x="502" y="1385"/>
			<point x="484" y="1387"/>
			<point x="484" y="1379" type="curve" smooth="yes"/>
			<point x="484" y="1369"/>
			<point x="495" y="1373"/>
			<point x="528" y="1365" type="curve" smooth="yes"/>
			<point x="671" y="1327"/>
			<point x="736" y="1251"/>
			<point x="736" y="1154" type="curve" smooth="yes"/>
			<point x="736" y="974"/>
			<point x="552" y="902"/>
			<point x="371" y="902" type="curve" smooth="yes"/>
			<point x="159" y="902"/>
			<point x="40" y="1007"/>
		</contour>
	</outline>
</glyph>
<glyph name="ordmasculine" format="2">
	<advance width="798" height="2310"/>
	<unicode hex="00BA"/>
	<outline>
		<contour>
			<point x="310" y="1286" type="curve" smooth="yes"/>
			<point x="310" y="1161"/>
			<point x="328" y="1058"/>
			<point x="399" y="1058" type="curve" smooth="yes"/>
			<point x="470" y="1058"/>
			<point x="488" y="1161"/>
			<point x="488" y="1262" type="curve" smooth="yes"/>
			<point x="488" y="1387"/>
			<point x="470" y="1490"/>
			<point x="399" y="1490" type="curve" smooth="yes"/>
			<point x="328" y="1490"/>
			<point x="310" y="1387"/>
		</contour>
		<contour>
			<point x="40" y="1256" type="curve" smooth="yes"/>
			<point x="40" y="1448"/>
			<point x="170" y="1610"/>
			<point x="399" y="1610" type="curve" smooth="yes"/>
			<point x="628" y="1610"/>
			<point x="758" y="1454"/>
			<point x="758" y="1286" type="curve" smooth="yes"/>
			<point x="758" y="1094"/>
			<point x="628" y="938"/>
			<point x="399" y="938" type="curve" smooth="yes"/>
			<point x="170" y="938"/>
			<point x="40" y="1088"/>
		</contour>
	</outline>
</glyph>
<glyph name="guillemotright" format="2">
	<advance width="1390" height="0"/>
	<unicode hex="00BB"/>
	<outline>
		<contour>
			<point x="388" y="775" type="line"/>
			<point x="40" y="1170" type="line"/>
			<point x="120" y="1280" type="line"/>
			<point x="800" y="800" type="line"/>
			<point x="800" y="750" type="line"/>
			<point x="120" y="270" type="line"/>
			<point x="40" y="380" type="line"/>
		</contour>
		<contour>
			<point x="948" y="775" type="line"/>
			<point x="600" y="1170" type="line"/>
			<point x="680" y="1280" type="line"/>
			<point x="1360" y="800" type="line"/>
			<point x="1360" y="750" type="line"/>
			<point x="680" y="270" type="line"/>
			<point x="600" y="380" type="line"/>
		</contour>
	</outline>
</glyph>
<glyph name="questiondown" format="2">
	<advance width="1170" height="0"/>
	<unicode hex="00BF"/>
	<outline>
		<contour>
			<point x="812" y="-294" type="curve" smooth="yes"/>
			<point x="812" y="-254"/>
			<point x="670" y="-272"/>
			<point x="670" y="-110" type="curve" smooth="yes"/>
			<point x="670" y="14"/>
			<point x="796" y="100"/>
			<point x="906" y="100" type="curve" smooth="yes"/>
			<point x="1026" y="100"/>
			<point x="1140" y="14"/>
			<point x="1140" y="-142" type="curve" smooth="yes"/>
			<point x="1140" y="-306"/>
			<point x="942" y="-480"/>
			<point x="608" y="-480" type="curve" smooth="yes"/>
			<point x="286" y="-480"/>
			<point x="30" y="-350"/>
			<point x="30" y="-60" type="curve" smooth="yes"/>
			<point x="30" y="200"/>
			<point x="245" y="350"/>
			<point x="504" y="422" type="curve" smooth="yes"/>
			<point x="531" y="429"/>
			<point x="536" y="427"/>
			<point x="539" y="460" type="curve" smooth="yes"/>
			<point x="542" y="504" type="line" smooth="yes"/>
			<point x="545" y="540"/>
			<point x="562" y="542"/>
			<point x="598" y="542" type="curve" smooth="yes"/>
			<point x="664" y="542" type="line" smooth="yes"/>
			<point x="730" y="542"/>
			<point x="737" y="536"/>
			<point x="745" y="480" type="curve" smooth="yes"/>
			<point x="759" y="388" type="line" smooth="yes"/>
			<point x="768" y="328"/>
			<point x="744" y="338"/>
			<point x="700" y="318" type="curve" smooth="yes"/>
			<point x="527" y="241"/>
			<point x="432" y="84"/>
			<point x="432" y="-100" type="curve" smooth="yes"/>
			<point x="432" y="-248"/>
			<point x="490" y="-356"/>
			<point x="648" y="-356" type="curve" smooth="yes"/>
			<point x="756" y="-356"/>
			<point x="812" y="-318"/>
		</contour>
		<contour>
			<point x="832" y="840" type="curve" smooth="yes"/>
			<point x="832" y="708"/>
			<point x="724" y="600"/>
			<point x="592" y="600" type="curve" smooth="yes"/>
			<point x="460" y="600"/>
			<point x="352" y="708"/>
			<point x="352" y="840" type="curve" smooth="yes"/>
			<point x="352" y="972"/>
			<point x="460" y="1080"/>
			<point x="592" y="1080" type="curve" smooth="yes"/>
			<point x="724" y="1080"/>
			<point x="832" y="972"/>
		</contour>
	</outline>
</glyph>
<glyph name="AE" format="2">
	<advance width="2825" height="0"/>
	<unicode hex="00C6"/>
	<outline>
		<contour>
			<point x="0" y="42" type="curve" smooth="yes"/>
			<point x="0" y="254" type="line" smooth="yes"/>
			<point x="0" y="274"/>
			<point x="6" y="280"/>
			<point x="28" y="280" type="curve" smooth="yes"/>
			<point x="144" y="280" type="line" smooth="yes"/>
			<point x="186" y="280"/>
			<point x="191" y="296"/>
			<point x="215" y="320" type="curve" smooth="yes"/>
			<point x="1032" y="1189" type="line" smooth="yes"/>
			<point x="1062" y="1231"/>
			<point x="1045" y="1230"/>
			<point x="974" y="1230" type="curve" smooth="yes"/>
			<point x="846" y="1230" type="line" smooth="yes"/>
			<point x="821" y="1230"/>
			<point x="820" y="1234"/>
			<point x="820" y="1260" type="curve" smooth="yes"/>
			<point x="820" y="1472" type="line" smooth="yes"/>
			<point x="820" y="1495"/>
			<point x="827" y="1500"/>
			<point x="848" y="1500" type="curve" smooth="yes"/>
			<point x="1684" y="1500" type="line" smooth="yes"/>
			<point x="1707" y="1500"/>
			<point x="1710" y="1496"/>
			<point x="1710" y="1472" type="curve" smooth="yes"/>
			<point x="1710" y="1263" type="line" smooth="yes"/>
			<point x="1710" y="1239"/>
			<point x="1708" y="1230"/>
			<point x="1682" y="1230" type="curve" smooth="yes"/>
			<point x="1438" y="1230" type="line" smooth="yes"/>
			<point x="1374" y="1230"/>
			<point x="1371" y="1231"/>
			<point x="1349" y="1201" type="curve" smooth="yes"/>
			<point x="844" y="678" type="line" smooth="yes"/>
			<point x="831" y="657"/>
			<point x="836" y="650"/>
			<point x="872" y="650" type="curve" smooth="yes"/>
			<point x="1534" y="650" type="line"/>
			<point x="1514" y="440" type="line"/>
			<point x="676" y="440" type="line" smooth="yes"/>
			<point x="640" y="440"/>
			<point x="623" y="421"/>
			<point x="599" y="400" type="curve" smooth="yes"/>
			<point x="526" y="328" type="line" smooth="yes"/>
			<point x="498" y="301"/>
			<point x="503" y="280"/>
			<point x="547" y="280" type="curve" smooth="yes"/>
			<point x="678" y="280" type="line" smooth="yes"/>
			<point x="702" y="280"/>
			<point x="710" y="275"/>
			<point x="710" y="250" type="curve" smooth="yes"/>
			<point x="710" y="32" type="line" smooth="yes"/>
			<point x="710" y="0"/>
			<point x="710" y="0"/>
			<point x="678" y="0" type="curve" smooth="yes"/>
			<point x="50" y="0" type="line" smooth="yes"/>
			<point x="13" y="0"/>
			<point x="0" y="2"/>
		</contour>
		<component base="E" xOffset="1150"/>
	</outline>
</glyph>
<glyph name="thorn" format="2">
	<advance width="1471" height="2310"/>
	<unicode hex="00FE"/>
	<anchor x="888" y="1040" name="Anchor-0"/>
	<anchor x="927" y="0" name="Anchor-1"/>
	<anchor x="927" y="0" name="Anchor-2"/>
	<outline>
		<contour>
			<point x="645" y="522" type="curve" smooth="yes"/>
			<point x="645" y="334"/>
			<point x="719" y="206"/>
			<point x="821" y="206" type="curve" smooth="yes"/>
			<point x="909" y="206"/>
			<point x="981" y="334"/>
			<point x="981" y="522" type="curve" smooth="yes"/>
			<point x="981" y="710"/>
			<point x="909" y="838"/>
			<point x="821" y="838" type="curve" smooth="yes"/>
			<point x="719" y="838"/>
			<point x="645" y="710"/>
		</contour>
		<contour>
			<point x="45" y="1402" type="curve" smooth="yes"/>
			<point x="45" y="1515" type="line" smooth="yes"/>
			<point x="45" y="1556"/>
			<point x="55" y="1560"/>
			<point x="94" y="1560" type="curve" smooth="yes"/>
			<point x="600" y="1560" type="line" smooth="yes"/>
			<point x="628" y="1560"/>
			<point x="645" y="1555"/>
			<point x="645" y="1524" type="curve" smooth="yes"/>
			<point x="645" y="950" type="line" smooth="yes"/>
			<point x="645" y="920"/>
			<point x="656" y="923"/>
			<point x="678" y="954" type="curve" smooth="yes"/>
			<point x="736" y="1033"/>
			<point x="829" y="1080"/>
			<point x="977" y="1080" type="curve" smooth="yes"/>
			<point x="1235" y="1080"/>
			<point x="1421" y="882"/>
			<point x="1421" y="522" type="curve" smooth="yes"/>
			<point x="1421" y="162"/>
			<point x="1215" y="-38"/>
			<point x="957" y="-38" type="curve" smooth="yes"/>
			<point x="827" y="-38"/>
			<point x="742" y="4"/>
			<point x="686" y="74" type="curve" smooth="yes"/>
			<point x="657" y="110"/>
			<point x="645" y="124"/>
			<point x="645" y="26" type="curve" smooth="yes"/>
			<point x="645" y="-258" type="line" smooth="yes"/>
			<point x="645" y="-301"/>
			<point x="649" y="-310"/>
			<point x="694" y="-310" type="curve" smooth="yes"/>
			<point x="790" y="-310" type="line" smooth="yes"/>
			<point x="816" y="-310"/>
			<point x="825" y="-314"/>
			<point x="825" y="-342" type="curve" smooth="yes"/>
			<point x="825" y="-478" type="line" smooth="yes"/>
			<point x="825" y="-518"/>
			<point x="817" y="-520"/>
			<point x="776" y="-520" type="curve" smooth="yes"/>
			<point x="90" y="-520" type="line" smooth="yes"/>
			<point x="50" y="-520"/>
			<point x="45" y="-514"/>
			<point x="45" y="-476" type="curve" smooth="yes"/>
			<point x="45" y="-348" type="line" smooth="yes"/>
			<point x="45" y="-318"/>
			<point x="50" y="-310"/>
			<point x="82" y="-310" type="curve" smooth="yes"/>
			<point x="176" y="-310" type="line" smooth="yes"/>
			<point x="220" y="-310"/>
			<point x="225" y="-303"/>
			<point x="225" y="-257" type="curve" smooth="yes"/>
			<point x="225" y="1298" type="line" smooth="yes"/>
			<point x="225" y="1345"/>
			<point x="215" y="1350"/>
			<point x="170" y="1350" type="curve" smooth="yes"/>
			<point x="100" y="1350" type="line" smooth="yes"/>
			<point x="51" y="1350"/>
			<point x="45" y="1355"/>
		</contour>
	</outline>
</glyph>
<glyph name="Dcroat" format="2">
	<advance width="1840" height="0"/>
	<unicode hex="0110"/>
	<outline>
		<contour>
			<point x="117" y="900" type="curve" smooth="yes"/>
			<point x="862" y="900" type="line" smooth="yes"/>
			<point x="900" y="900"/>
			<point x="903" y="893"/>
			<point x="903" y="861" type="curve" smooth="yes"/>
			<point x="903" y="711" type="line" smooth="yes"/>
			<point x="903" y="676"/>
			<point x="903" y="670"/>
			<point x="860" y="670" type="curve" smooth="yes"/>
			<point x="127" y="670" type="line" smooth="yes"/>
			<point x="83" y="670"/>
			<point x="76" y="675"/>
			<point x="76" y="710" type="curve" smooth="yes"/>
			<point x="76" y="859" type="line" smooth="yes"/>
			<point x="76" y="891"/>
			<point x="78" y="900"/>
		</contour>
		<component base="D"/>
	</outline>
</glyph>
<glyph name="dcroat" format="2">
	<advance width="1473" height="2309"/>
	<unicode hex="0111"/>
	<outline>
		<contour>
			<point x="739" y="1290" type="curve" smooth="yes"/>
			<point x="1392" y="1290" type="line" smooth="yes"/>
			<point x="1425" y="1290"/>
			<point x="1428" y="1283"/>
			<point x="1428" y="1251" type="curve" smooth="yes"/>
			<point x="1428" y="1101" type="line" smooth="yes"/>
			<point x="1428" y="1066"/>
			<point x="1427" y="1060"/>
			<point x="1390" y="1060" type="curve" smooth="yes"/>
			<point x="748" y="1060" type="line" smooth="yes"/>
			<point x="710" y="1060"/>
			<point x="703" y="1065"/>
			<point x="703" y="1100" type="curve" smooth="yes"/>
			<point x="703" y="1249" type="line" smooth="yes"/>
			<point x="703" y="1281"/>
			<point x="705" y="1290"/>
		</contour>
		<component base="d"/>
	</outline>
</glyph>
<glyph name="Hbar" format="2">
	<advance width="2020" height="0"/>
	<unicode hex="0126"/>
	<outline>
		<contour>
			<point x="147" y="1170" type="curve" smooth="yes"/>
			<point x="1874" y="1170" type="line" smooth="yes"/>
			<point x="1961" y="1170"/>
			<point x="1970" y="1163"/>
			<point x="1970" y="1131" type="curve" smooth="yes"/>
			<point x="1970" y="981" type="line" smooth="yes"/>
			<point x="1970" y="946"/>
			<point x="1967" y="940"/>
			<point x="1868" y="940" type="curve" smooth="yes"/>
			<point x="169" y="940" type="line" smooth="yes"/>
			<point x="67" y="940"/>
			<point x="51" y="945"/>
			<point x="51" y="980" type="curve" smooth="yes"/>
			<point x="51" y="1129" type="line" smooth="yes"/>
			<point x="51" y="1161"/>
			<point x="57" y="1170"/>
		</contour>
		<component base="H"/>
	</outline>
</glyph>
<glyph name="hbar" format="2">
	<advance width="1315" height="2309"/>
	<unicode hex="0127"/>
	<outline>
		<contour>
			<point x="90" y="1310" type="curve" smooth="yes"/>
			<point x="835" y="1310" type="line" smooth="yes"/>
			<point x="873" y="1310"/>
			<point x="876" y="1303"/>
			<point x="876" y="1271" type="curve" smooth="yes"/>
			<point x="876" y="1121" type="line" smooth="yes"/>
			<point x="876" y="1086"/>
			<point x="876" y="1080"/>
			<point x="833" y="1080" type="curve" smooth="yes"/>
			<point x="100" y="1080" type="line" smooth="yes"/>
			<point x="56" y="1080"/>
			<point x="49" y="1085"/>
			<point x="49" y="1120" type="curve" smooth="yes"/>
			<point x="49" y="1269" type="line" smooth="yes"/>
			<point x="49" y="1301"/>
			<point x="51" y="1310"/>
		</contour>
		<component base="h"/>
	</outline>
</glyph>
<glyph name="idotless" format="2">
	<advance width="865"/>
	<unicode hex="0131"/>
	<anchor x="433" y="1040" name="Anchor-0"/>
	<anchor x="433" y="0" name="bottom"/>
	<anchor x="779" y="10" name="ogonek"/>
	<outline>
		<contour>
			<point x="79" y="0" type="curve" smooth="yes"/>
			<point x="797" y="0" type="line" smooth="yes"/>
			<point x="827" y="0"/>
			<point x="835" y="2"/>
			<point x="835" y="31" type="curve" smooth="yes"/>
			<point x="835" y="186" type="line" smooth="yes"/>
			<point x="835" y="209"/>
			<point x="830" y="210"/>
			<point x="807" y="210" type="curve" smooth="yes"/>
			<point x="676" y="210" type="line" smooth="yes"/>
			<point x="656" y="210"/>
			<point x="655" y="215"/>
			<point x="655" y="235" type="curve" smooth="yes"/>
			<point x="655" y="1020" type="line" smooth="yes"/>
			<point x="655" y="1039"/>
			<point x="649" y="1040"/>
			<point x="630" y="1040" type="curve" smooth="yes"/>
			<point x="85" y="1040" type="line" smooth="yes"/>
			<point x="63" y="1040"/>
			<point x="55" y="1035"/>
			<point x="55" y="1012" type="curve" smooth="yes"/>
			<point x="55" y="850" type="line" smooth="yes"/>
			<point x="55" y="833"/>
			<point x="63" y="830"/>
			<point x="81" y="830" type="curve" smooth="yes"/>
			<point x="216" y="830" type="line" smooth="yes"/>
			<point x="232" y="830"/>
			<point x="235" y="821"/>
			<point x="235" y="804" type="curve" smooth="yes"/>
			<point x="235" y="232" type="line" smooth="yes"/>
			<point x="235" y="211"/>
			<point x="230" y="210"/>
			<point x="209" y="210" type="curve" smooth="yes"/>
			<point x="82" y="210" type="line" smooth="yes"/>
			<point x="58" y="210"/>
			<point x="55" y="206"/>
			<point x="55" y="181" type="curve" smooth="yes"/>
			<point x="55" y="25" type="line" smooth="yes"/>
			<point x="55" y="4"/>
			<point x="59" y="0"/>
		</contour>
	</outline>
</glyph>
<glyph name="Lslash" format="2">
	<advance width="1560" height="0"/>
	<unicode hex="0141"/>
	<outline>
		<contour>
			<point x="84" y="736" type="curve" smooth="yes"/>
			<point x="958" y="1139" type="line" smooth="yes"/>
			<point x="979" y="1149"/>
			<point x="991" y="1153"/>
			<point x="991" y="1112" type="curve" smooth="yes"/>
			<point x="991" y="943" type="line" smooth="yes"/>
			<point x="991" y="908"/>
			<point x="990" y="901"/>
			<point x="968" y="891" type="curve" smooth="yes"/>
			<point x="90" y="485" type="line" smooth="yes"/>
			<point x="70" y="476"/>
			<point x="60" y="474"/>
			<point x="60" y="514" type="curve" smooth="yes"/>
			<point x="60" y="685" type="line" smooth="yes"/>
			<point x="60" y="715"/>
			<point x="65" y="727"/>
		</contour>
		<component base="L"/>
	</outline>
</glyph>
<glyph name="Eng" format="2">
	<advance width="1889" height="2310"/>
	<unicode hex="014A"/>
	<outline>
		<contour>
			<point x="223" y="1230" type="curve" smooth="yes"/>
			<point x="105" y="1230" type="line" smooth="yes"/>
			<point x="60" y="1230"/>
			<point x="55" y="1237"/>
			<point x="55" y="1281" type="curve" smooth="yes"/>
			<point x="55" y="1447" type="line" smooth="yes"/>
			<point x="55" y="1493"/>
			<point x="80" y="1500"/>
			<point x="121" y="1500" type="curve" smooth="yes"/>
			<point x="643" y="1500" type="line" smooth="yes"/>
			<point x="674" y="1500"/>
			<point x="699" y="1492"/>
			<point x="699" y="1450" type="curve" smooth="yes"/>
			<point x="699" y="1414" type="line" smooth="yes"/>
			<point x="699" y="1365"/>
			<point x="715" y="1357"/>
			<point x="750" y="1382" type="curve" smooth="yes"/>
			<point x="892" y="1484"/>
			<point x="996" y="1540"/>
			<point x="1245" y="1540" type="curve" smooth="yes"/>
			<point x="1539" y="1540"/>
			<point x="1749" y="1372"/>
			<point x="1749" y="1128" type="curve" smooth="yes"/>
			<point x="1749" y="-64" type="line" smooth="yes"/>
			<point x="1749" y="-386"/>
			<point x="1464" y="-520"/>
			<point x="1164" y="-520" type="curve" smooth="yes"/>
			<point x="922" y="-520"/>
			<point x="728" y="-422"/>
			<point x="728" y="-228" type="curve" smooth="yes"/>
			<point x="728" y="-108"/>
			<point x="828" y="-16"/>
			<point x="952" y="-16" type="curve" smooth="yes"/>
			<point x="1096" y="-16"/>
			<point x="1192" y="-102"/>
			<point x="1192" y="-192" type="curve" smooth="yes"/>
			<point x="1192" y="-306"/>
			<point x="1112" y="-302"/>
			<point x="1112" y="-324" type="curve" smooth="yes"/>
			<point x="1112" y="-340"/>
			<point x="1124" y="-350"/>
			<point x="1160" y="-350" type="curve" smooth="yes"/>
			<point x="1360" y="-350"/>
			<point x="1279" y="-134"/>
			<point x="1279" y="140" type="curve" smooth="yes"/>
			<point x="1279" y="1126" type="line" smooth="yes"/>
			<point x="1279" y="1234"/>
			<point x="1211" y="1306"/>
			<point x="1099" y="1306" type="curve" smooth="yes"/>
			<point x="923" y="1306"/>
			<point x="739" y="1232"/>
			<point x="739" y="1026" type="curve" smooth="yes"/>
			<point x="739" y="309" type="line" smooth="yes"/>
			<point x="739" y="279"/>
			<point x="743" y="270"/>
			<point x="775" y="270" type="curve" smooth="yes"/>
			<point x="899" y="270" type="line" smooth="yes"/>
			<point x="930" y="270"/>
			<point x="939" y="266"/>
			<point x="939" y="233" type="curve" smooth="yes"/>
			<point x="939" y="37" type="line" smooth="yes"/>
			<point x="939" y="2"/>
			<point x="921" y="0"/>
			<point x="889" y="0" type="curve" smooth="yes"/>
			<point x="87" y="0" type="line" smooth="yes"/>
			<point x="56" y="0"/>
			<point x="55" y="9"/>
			<point x="55" y="41" type="curve" smooth="yes"/>
			<point x="55" y="228" type="line" smooth="yes"/>
			<point x="55" y="264"/>
			<point x="60" y="270"/>
			<point x="95" y="270" type="curve" smooth="yes"/>
			<point x="219" y="270" type="line" smooth="yes"/>
			<point x="260" y="270"/>
			<point x="269" y="271"/>
			<point x="269" y="312" type="curve" smooth="yes"/>
			<point x="269" y="1184" type="line" smooth="yes"/>
			<point x="269" y="1225"/>
			<point x="263" y="1230"/>
		</contour>
	</outline>
</glyph>
<glyph name="tbar" format="2">
	<advance width="966" height="2309"/>
	<unicode hex="0167"/>
	<outline>
		<contour>
			<point x="49" y="657" type="curve" smooth="yes"/>
			<point x="820" y="657" type="line" smooth="yes"/>
			<point x="859" y="657"/>
			<point x="863" y="650"/>
			<point x="863" y="618" type="curve" smooth="yes"/>
			<point x="863" y="468" type="line" smooth="yes"/>
			<point x="863" y="433"/>
			<point x="862" y="427"/>
			<point x="818" y="427" type="curve" smooth="yes"/>
			<point x="59" y="427" type="line" smooth="yes"/>
			<point x="14" y="427"/>
			<point x="6" y="432"/>
			<point x="6" y="467" type="curve" smooth="yes"/>
			<point x="6" y="616" type="line" smooth="yes"/>
			<point x="6" y="648"/>
			<point x="9" y="657"/>
		</contour>
		<component base="t"/>
	</outline>
</glyph>
<glyph name="circumflex" format="2">
	<advance width="1000" height="0"/>
	<unicode hex="02C6"/>
	<outline>
		<contour>
			<point x="242" y="1640" type="curve" smooth="yes"/>
			<point x="173" y="1710" type="line" smooth="yes"/>
			<point x="158" y="1725"/>
			<point x="158" y="1727"/>
			<point x="170" y="1744" type="curve" smooth="yes"/>
			<point x="358" y="2002" type="line" smooth="yes"/>
			<point x="369" y="2018"/>
			<point x="382" y="2019"/>
			<point x="411" y="2019" type="curve" smooth="yes"/>
			<point x="596" y="2019" type="line" smooth="yes"/>
			<point x="622" y="2019"/>
			<point x="632" y="2016"/>
			<point x="642" y="2002" type="curve" smooth="yes"/>
			<point x="834" y="1740" type="line" smooth="yes"/>
			<point x="844" y="1730"/>
			<point x="837" y="1721"/>
			<point x="826" y="1710" type="curve" smooth="yes"/>
			<point x="752" y="1636" type="line" smooth="yes"/>
			<point x="737" y="1621"/>
			<point x="737" y="1623"/>
			<point x="720" y="1635" type="curve" smooth="yes"/>
			<point x="525" y="1780" type="line" smooth="yes"/>
			<point x="507" y="1793"/>
			<point x="493" y="1794"/>
			<point x="475" y="1781" type="curve" smooth="yes"/>
			<point x="278" y="1634" type="line" smooth="yes"/>
			<point x="263" y="1623"/>
			<point x="255" y="1627"/>
		</contour>
	</outline>
</glyph>
<glyph name="gravecomb" format="2">
	<advance width="0" height="0"/>
	<unicode hex="0300"/>
	<anchor x="571" y="1500" name="_Anchor-0"/>
	<outline>
		<contour>
			<point x="565" y="1619" type="curve" smooth="yes"/>
			<point x="229" y="1797" type="line" smooth="yes"/>
			<point x="139" y="1845"/>
			<point x="112" y="1961"/>
			<point x="192" y="2060" type="curve" smooth="yes"/>
			<point x="257" y="2140"/>
			<point x="418" y="2136"/>
			<point x="474" y="2066" type="curve" smooth="yes"/>
			<point x="708" y="1777" type="line" smooth="yes"/>
			<point x="721" y="1764"/>
			<point x="722" y="1755"/>
			<point x="709" y="1741" type="curve" smooth="yes"/>
			<point x="595" y="1625" type="line" smooth="yes"/>
			<point x="584" y="1613"/>
			<point x="580" y="1610"/>
		</contour>
	</outline>
</glyph>
<glyph name="ringcomb" format="2">
	<advance width="0" height="0"/>
	<unicode hex="030A"/>
	<anchor x="500" y="1500" name="_Anchor-0"/>
	<outline>
		<contour>
			<point x="500" y="1640" type="curve" smooth="yes"/>
			<point x="349" y="1640"/>
			<point x="251" y="1758"/>
			<point x="251" y="1889" type="curve" smooth="yes"/>
			<point x="251" y="2020"/>
			<point x="349" y="2140"/>
			<point x="500" y="2140" type="curve" smooth="yes"/>
			<point x="652" y="2140"/>
			<point x="750" y="2021"/>
			<point x="750" y="1889" type="curve" smooth="yes"/>
			<point x="750" y="1758"/>
			<point x="651" y="1640"/>
		</contour>
		<contour>
			<point x="500" y="1804" type="curve" smooth="yes"/>
			<point x="550" y="1804"/>
			<point x="582" y="1847"/>
			<point x="582" y="1891" type="curve" smooth="yes"/>
			<point x="582" y="1944"/>
			<point x="550" y="1987"/>
			<point x="500" y="1987" type="curve" smooth="yes"/>
			<point x="450" y="1987"/>
			<point x="419" y="1944"/>
			<point x="419" y="1891" type="curve" smooth="yes"/>
			<point x="419" y="1847"/>
			<point x="450" y="1804"/>
		</contour>
	</outline>
</glyph>
<glyph name="cedillacomb" format="2">
	<advance width="0" height="0"/>
	<unicode hex="0327"/>
	<anchor x="528" y="0" name="_Anchor-1"/>
	<anchor x="528" y="0" name="_Anchor-2"/>
	<outline>
		<contour>
			<point x="345" y="-520" type="curve" smooth="yes"/>
			<point x="345" y="-423" type="line" smooth="yes"/>
			<point x="345" y="-401"/>
			<point x="356" y="-397"/>
			<point x="376" y="-396" type="curve" smooth="yes"/>
			<point x="457" y="-390"/>
			<point x="541" y="-386"/>
			<point x="541" y="-336" type="curve" smooth="yes"/>
			<point x="541" y="-276"/>
			<point x="405" y="-267"/>
			<point x="315" y="-259" type="curve" smooth="yes"/>
			<point x="276" y="-255"/>
			<point x="275" y="-248"/>
			<point x="288" y="-230" type="curve" smooth="yes"/>
			<point x="449" y="2" type="line" smooth="yes"/>
			<point x="455" y="11"/>
			<point x="459" y="12"/>
			<point x="475" y="12" type="curve" smooth="yes"/>
			<point x="573" y="12" type="line" smooth="yes"/>
			<point x="603" y="12"/>
			<point x="611" y="8"/>
			<point x="601" y="-8" type="curve" smooth="yes"/>
			<point x="552" y="-86" type="line" smooth="yes"/>
			<point x="535" y="-109"/>
			<point x="535" y="-117"/>
			<point x="571" y="-120" type="curve" smooth="yes"/>
			<point x="700" y="-130"/>
			<point x="783" y="-198"/>
			<point x="783" y="-310" type="curve" smooth="yes"/>
			<point x="783" y="-535"/>
			<point x="526" y="-545"/>
			<point x="370" y="-549" type="curve" smooth="yes"/>
			<point x="349" y="-550"/>
			<point x="345" y="-542"/>
		</contour>
	</outline>
</glyph>
<glyph name="Delta" format="2">
	<advance width="1900" height="0"/>
	<unicode hex="0394"/>
	<outline>
		<contour>
			<point x="1077" y="270" type="line" smooth="yes"/>
			<point x="1135" y="270"/>
			<point x="1140" y="280"/>
			<point x="1126" y="319" type="curve" smooth="yes"/>
			<point x="874" y="1023" type="line" smooth="yes"/>
			<point x="858" y="1069"/>
			<point x="842" y="1050"/>
			<point x="829" y="1019" type="curve" smooth="yes"/>
			<point x="538" y="313" type="line" smooth="yes"/>
			<point x="525" y="281"/>
			<point x="527" y="270"/>
			<point x="563" y="270" type="curve" smooth="yes"/>
		</contour>
		<contour>
			<point x="1700" y="0" type="curve" smooth="yes"/>
			<point x="175" y="0" type="line" smooth="yes"/>
			<point x="133" y="0"/>
			<point x="126" y="15"/>
			<point x="135" y="37" type="curve" smooth="yes"/>
			<point x="758" y="1497" type="line" smooth="yes"/>
			<point x="771" y="1529"/>
			<point x="775" y="1530"/>
			<point x="821" y="1530" type="curve" smooth="yes"/>
			<point x="1121" y="1530" type="line" smooth="yes"/>
			<point x="1168" y="1530"/>
			<point x="1174" y="1519"/>
			<point x="1187" y="1487" type="curve" smooth="yes"/>
			<point x="1753" y="61" type="line" smooth="yes"/>
			<point x="1768" y="23"/>
			<point x="1757" y="0"/>
		</contour>
	</outline>
</glyph>
<glyph name="Ushort-cy" format="2">
	<advance width="1506" height="0"/>
	<unicode hex="040E"/>
	<outline>
		<contour>
			<point x="1052" y="2061" type="curve" smooth="yes"/>
			<point x="1173" y="2061"/>
			<point x="1265" y="1972"/>
			<point x="1265" y="1861" type="curve" smooth="yes"/>
			<point x="1265" y="1686"/>
			<point x="1100" y="1587"/>
			<point x="818" y="1587" type="curve" smooth="yes"/>
			<point x="534" y="1587"/>
			<point x="370" y="1686"/>
			<point x="370" y="1863" type="curve" smooth="yes"/>
			<point x="370" y="1972"/>
			<point x="462" y="2061"/>
			<point x="583" y="2061" type="curve" smooth="yes"/>
			<point x="683" y="2061"/>
			<point x="749" y="1990"/>
			<point x="749" y="1906" type="curve" smooth="yes"/>
			<point x="749" y="1807"/>
			<point x="632" y="1809"/>
			<point x="632" y="1777" type="curve" smooth="yes"/>
			<point x="632" y="1744"/>
			<point x="699" y="1730"/>
			<point x="826" y="1730" type="curve" smooth="yes"/>
			<point x="940" y="1730"/>
			<point x="1003" y="1746"/>
			<point x="1003" y="1777" type="curve" smooth="yes"/>
			<point x="1003" y="1810"/>
			<point x="886" y="1806"/>
			<point x="886" y="1906" type="curve" smooth="yes"/>
			<point x="886" y="1990"/>
			<point x="952" y="2061"/>
		</contour>
		<component base="U-cy"/>
	</outline>
</glyph>
<glyph name="Zhe-cy" format="2">
	<advance width="2800" height="0"/>
	<unicode hex="0416"/>
	<outline>
		<contour>
			<point x="2785" y="218" type="curve" smooth="yes"/>
			<point x="2683" y="67"/>
			<point x="2549" y="-40"/>
			<point x="2345" y="-40" type="curve" smooth="yes"/>
			<point x="1819" y="-40"/>
			<point x="2108" y="620"/>
			<point x="1745" y="620" type="curve" smooth="yes"/>
			<point x="1681" y="620" type="line" smooth="yes"/>
			<point x="1637" y="620"/>
			<point x="1635" y="612"/>
			<point x="1635" y="568" type="curve" smooth="yes"/>
			<point x="1635" y="304" type="line" smooth="yes"/>
			<point x="1635" y="273"/>
			<point x="1643" y="270"/>
			<point x="1675" y="270" type="curve" smooth="yes"/>
			<point x="1824" y="270" type="line" smooth="yes"/>
			<point x="1852" y="270"/>
			<point x="1855" y="253"/>
			<point x="1855" y="224" type="curve" smooth="yes"/>
			<point x="1855" y="39" type="line" smooth="yes"/>
			<point x="1855" y="14"/>
			<point x="1848" y="0"/>
			<point x="1822" y="0" type="curve" smooth="yes"/>
			<point x="978" y="0" type="line" smooth="yes"/>
			<point x="952" y="0"/>
			<point x="945" y="14"/>
			<point x="945" y="39" type="curve" smooth="yes"/>
			<point x="945" y="224" type="line" smooth="yes"/>
			<point x="945" y="253"/>
			<point x="948" y="270"/>
			<point x="976" y="270" type="curve" smooth="yes"/>
			<point x="1125" y="270" type="line" smooth="yes"/>
			<point x="1157" y="270"/>
			<point x="1165" y="273"/>
			<point x="1165" y="304" type="curve" smooth="yes"/>
			<point x="1165" y="568" type="line" smooth="yes"/>
			<point x="1165" y="612"/>
			<point x="1163" y="620"/>
			<point x="1119" y="620" type="curve" smooth="yes"/>
			<point x="1055" y="620" type="line" smooth="yes"/>
			<point x="692" y="620"/>
			<point x="981" y="-40"/>
			<point x="455" y="-40" type="curve" smooth="yes"/>
			<point x="251" y="-40"/>
			<point x="117" y="67"/>
			<point x="15" y="218" type="curve" smooth="yes"/>
			<point x="5" y="233"/>
			<point x="-13" y="260"/>
			<point x="27" y="291" type="curve" smooth="yes"/>
			<point x="149" y="385" type="line" smooth="yes"/>
			<point x="171" y="403"/>
			<point x="184" y="387"/>
			<point x="196" y="371" type="curve" smooth="yes"/>
			<point x="231" y="325"/>
			<point x="261" y="307"/>
			<point x="288" y="307" type="curve" smooth="yes"/>
			<point x="398" y="307"/>
			<point x="279" y="606"/>
			<point x="527" y="718" type="curve" smooth="yes"/>
			<point x="574" y="739"/>
			<point x="789" y="775"/>
			<point x="714" y="863" type="curve" smooth="yes"/>
			<point x="679" y="904"/>
			<point x="618" y="951"/>
			<point x="602" y="1092" type="curve" smooth="yes"/>
			<point x="584" y="1255"/>
			<point x="528" y="1299"/>
			<point x="445" y="1299" type="curve" smooth="yes"/>
			<point x="428" y="1299"/>
			<point x="414" y="1293"/>
			<point x="414" y="1280" type="curve" smooth="yes"/>
			<point x="414" y="1240"/>
			<point x="526" y="1216"/>
			<point x="526" y="1086" type="curve" smooth="yes"/>
			<point x="526" y="950"/>
			<point x="460" y="855"/>
			<point x="290" y="855" type="curve" smooth="yes"/>
			<point x="110" y="855"/>
			<point x="17" y="971"/>
			<point x="17" y="1167" type="curve" smooth="yes"/>
			<point x="17" y="1331"/>
			<point x="126" y="1534"/>
			<point x="388" y="1534" type="curve" smooth="yes"/>
			<point x="628" y="1534"/>
			<point x="806" y="1428"/>
			<point x="842" y="1192" type="curve" smooth="yes"/>
			<point x="871" y="1000"/>
			<point x="897" y="880"/>
			<point x="1060" y="880" type="curve" smooth="yes"/>
			<point x="1118" y="880" type="line" smooth="yes"/>
			<point x="1161" y="880"/>
			<point x="1165" y="887"/>
			<point x="1165" y="928" type="curve" smooth="yes"/>
			<point x="1165" y="1183" type="line" smooth="yes"/>
			<point x="1165" y="1230"/>
			<point x="1165" y="1230"/>
			<point x="1118" y="1230" type="curve" smooth="yes"/>
			<point x="967" y="1230" type="line" smooth="yes"/>
			<point x="942" y="1230"/>
			<point x="925" y="1237"/>
			<point x="925" y="1272" type="curve" smooth="yes"/>
			<point x="925" y="1466" type="line" smooth="yes"/>
			<point x="925" y="1497"/>
			<point x="931" y="1500"/>
			<point x="961" y="1500" type="curve" smooth="yes"/>
			<point x="1839" y="1500" type="line" smooth="yes"/>
			<point x="1869" y="1500"/>
			<point x="1875" y="1497"/>
			<point x="1875" y="1466" type="curve" smooth="yes"/>
			<point x="1875" y="1272" type="line" smooth="yes"/>
			<point x="1875" y="1237"/>
			<point x="1858" y="1230"/>
			<point x="1833" y="1230" type="curve" smooth="yes"/>
			<point x="1684" y="1230" type="line" smooth="yes"/>
			<point x="1637" y="1230"/>
			<point x="1635" y="1230"/>
			<point x="1635" y="1182" type="curve" smooth="yes"/>
			<point x="1635" y="928" type="line" smooth="yes"/>
			<point x="1635" y="887"/>
			<point x="1639" y="880"/>
			<point x="1682" y="880" type="curve" smooth="yes"/>
			<point x="1740" y="880" type="line" smooth="yes"/>
			<point x="1903" y="880"/>
			<point x="1929" y="1000"/>
			<point x="1958" y="1192" type="curve" smooth="yes"/>
			<point x="1994" y="1428"/>
			<point x="2172" y="1534"/>
			<point x="2412" y="1534" type="curve" smooth="yes"/>
			<point x="2674" y="1534"/>
			<point x="2783" y="1331"/>
			<point x="2783" y="1167" type="curve" smooth="yes"/>
			<point x="2783" y="971"/>
			<point x="2690" y="855"/>
			<point x="2510" y="855" type="curve" smooth="yes"/>
			<point x="2340" y="855"/>
			<point x="2274" y="950"/>
			<point x="2274" y="1086" type="curve" smooth="yes"/>
			<point x="2274" y="1216"/>
			<point x="2386" y="1240"/>
			<point x="2386" y="1280" type="curve" smooth="yes"/>
			<point x="2386" y="1293"/>
			<point x="2372" y="1299"/>
			<point x="2355" y="1299" type="curve" smooth="yes"/>
			<point x="2272" y="1299"/>
			<point x="2216" y="1255"/>
			<point x="2198" y="1092" type="curve" smooth="yes"/>
			<point x="2182" y="951"/>
			<point x="2121" y="904"/>
			<point x="2086" y="863" type="curve" smooth="yes"/>
			<point x="2011" y="775"/>
			<point x="2226" y="739"/>
			<point x="2273" y="718" type="curve" smooth="yes"/>
			<point x="2521" y="606"/>
			<point x="2402" y="307"/>
			<point x="2512" y="307" type="curve" smooth="yes"/>
			<point x="2539" y="307"/>
			<point x="2569" y="325"/>
			<point x="2604" y="371" type="curve" smooth="yes"/>
			<point x="2616" y="387"/>
			<point x="2629" y="403"/>
			<point x="2651" y="385" type="curve" smooth="yes"/>
			<point x="2773" y="291" type="line" smooth="yes"/>
			<point x="2813" y="260"/>
			<point x="2795" y="233"/>
		</contour>
	</outline>
</glyph>
<glyph name="Iishort-cy" format="2">
	<advance width="2020" height="0"/>
	<unicode hex="0419"/>
	<outline>
		<contour>
			<point x="1267" y="2061" type="curve" smooth="yes"/>
			<point x="1388" y="2061"/>
			<point x="1480" y="1972"/>
			<point x="1480" y="1861" type="curve" smooth="yes"/>
			<point x="1480" y="1686"/>
			<point x="1315" y="1587"/>
			<point x="1033" y="1587" type="curve" smooth="yes"/>
			<point x="749" y="1587"/>
			<point x="585" y="1686"/>
			<point x="585" y="1863" type="curve" smooth="yes"/>
			<point x="585" y="1972"/>
			<point x="677" y="2061"/>
			<point x="798" y="2061" type="curve" smooth="yes"/>
			<point x="898" y="2061"/>
			<point x="964" y="1990"/>
			<point x="964" y="1906" type="curve" smooth="yes"/>
			<point x="964" y="1807"/>
			<point x="847" y="1809"/>
			<point x="847" y="1777" type="curve" smooth="yes"/>
			<point x="847" y="1744"/>
			<point x="914" y="1730"/>
			<point x="1041" y="1730" type="curve" smooth="yes"/>
			<point x="1155" y="1730"/>
			<point x="1218" y="1746"/>
			<point x="1218" y="1777" type="curve" smooth="yes"/>
			<point x="1218" y="1810"/>
			<point x="1101" y="1806"/>
			<point x="1101" y="1906" type="curve" smooth="yes"/>
			<point x="1101" y="1990"/>
			<point x="1167" y="2061"/>
		</contour>
		<component base="Ii-cy"/>
	</outline>
</glyph>
<glyph name="Tse-cy" format="2">
	<advance width="2015" height="0"/>
	<unicode hex="0426"/>
	<anchor x="876" y="1500" name="Anchor-0"/>
	<anchor x="876" y="0" name="Anchor-1"/>
	<anchor x="876" y="0" name="Anchor-2"/>
	<outline>
		<contour>
			<point x="740" y="322" type="line" smooth="yes"/>
			<point x="740" y="280"/>
			<point x="741" y="270"/>
			<point x="783" y="270" type="curve" smooth="yes"/>
			<point x="1241" y="270" type="line" smooth="yes"/>
			<point x="1275" y="270"/>
			<point x="1280" y="277"/>
			<point x="1280" y="313" type="curve" smooth="yes"/>
			<point x="1280" y="1190" type="line" smooth="yes"/>
			<point x="1280" y="1221"/>
			<point x="1275" y="1230"/>
			<point x="1242" y="1230" type="curve" smooth="yes"/>
			<point x="1108" y="1230" type="line" smooth="yes"/>
			<point x="1081" y="1230"/>
			<point x="1075" y="1235"/>
			<point x="1075" y="1264" type="curve" smooth="yes"/>
			<point x="1075" y="1450" type="line" smooth="yes"/>
			<point x="1075" y="1495"/>
			<point x="1081" y="1500"/>
			<point x="1125" y="1500" type="curve" smooth="yes"/>
			<point x="1930" y="1500" type="line" smooth="yes"/>
			<point x="1963" y="1500"/>
			<point x="1970" y="1495"/>
			<point x="1970" y="1460" type="curve" smooth="yes"/>
			<point x="1970" y="1272" type="line" smooth="yes"/>
			<point x="1970" y="1236"/>
			<point x="1964" y="1230"/>
			<point x="1929" y="1230" type="curve" smooth="yes"/>
			<point x="1791" y="1230" type="line" smooth="yes"/>
			<point x="1759" y="1230"/>
			<point x="1750" y="1228"/>
			<point x="1750" y="1196" type="curve" smooth="yes"/>
			<point x="1750" y="309" type="line" smooth="yes"/>
			<point x="1750" y="277"/>
			<point x="1759" y="270"/>
			<point x="1789" y="270" type="curve" smooth="yes"/>
			<point x="1935" y="270" type="line" smooth="yes"/>
			<point x="1969" y="270"/>
			<point x="1970" y="259"/>
			<point x="1970" y="224" type="curve" smooth="yes"/>
			<point x="1970" y="-369" type="line" smooth="yes"/>
			<point x="1970" y="-398"/>
			<point x="1962" y="-400"/>
			<point x="1932" y="-400" type="curve" smooth="yes"/>
			<point x="1768" y="-400" type="line" smooth="yes"/>
			<point x="1731" y="-400"/>
			<point x="1730" y="-385"/>
			<point x="1729" y="-353" type="curve" smooth="yes"/>
			<point x="1722" y="-76"/>
			<point x="1650" y="0"/>
			<point x="1390" y="0" type="curve" smooth="yes"/>
			<point x="90" y="0" type="line" smooth="yes"/>
			<point x="58" y="0"/>
			<point x="50" y="4"/>
			<point x="50" y="38" type="curve" smooth="yes"/>
			<point x="50" y="236" type="line" smooth="yes"/>
			<point x="50" y="264"/>
			<point x="59" y="270"/>
			<point x="89" y="270" type="curve" smooth="yes"/>
			<point x="215" y="270" type="line" smooth="yes"/>
			<point x="259" y="270"/>
			<point x="270" y="272"/>
			<point x="270" y="316" type="curve" smooth="yes"/>
			<point x="270" y="1196" type="line" smooth="yes"/>
			<point x="270" y="1224"/>
			<point x="263" y="1230"/>
			<point x="233" y="1230" type="curve" smooth="yes"/>
			<point x="89" y="1230" type="line" smooth="yes"/>
			<point x="62" y="1230"/>
			<point x="50" y="1233"/>
			<point x="50" y="1262" type="curve" smooth="yes"/>
			<point x="50" y="1456" type="line" smooth="yes"/>
			<point x="50" y="1498"/>
			<point x="61" y="1500"/>
			<point x="100" y="1500" type="curve" smooth="yes"/>
			<point x="905" y="1500" type="line" smooth="yes"/>
			<point x="941" y="1500"/>
			<point x="945" y="1493"/>
			<point x="945" y="1456" type="curve" smooth="yes"/>
			<point x="945" y="1266" type="line" smooth="yes"/>
			<point x="945" y="1238"/>
			<point x="943" y="1230"/>
			<point x="916" y="1230" type="curve" smooth="yes"/>
			<point x="782" y="1230" type="line" smooth="yes"/>
			<point x="743" y="1230"/>
			<point x="740" y="1217"/>
			<point x="740" y="1180" type="curve" smooth="yes"/>
		</contour>
	</outline>
</glyph>
<glyph name="Che-cy" format="2">
	<advance width="1844" height="0"/>
	<unicode hex="0427"/>
	<anchor x="816" y="1500" name="Anchor-0"/>
	<anchor x="816" y="0" name="Anchor-1"/>
	<anchor x="816" y="0" name="Anchor-2"/>
	<outline>
		<contour>
			<point x="1122" y="1173" type="line" smooth="yes"/>
			<point x="1122" y="1224"/>
			<point x="1117" y="1230"/>
			<point x="1068" y="1230" type="curve" smooth="yes"/>
			<point x="924" y="1230" type="line" smooth="yes"/>
			<point x="884" y="1230"/>
			<point x="882" y="1238"/>
			<point x="882" y="1279" type="curve" smooth="yes"/>
			<point x="882" y="1458" type="line" smooth="yes"/>
			<point x="882" y="1498"/>
			<point x="904" y="1500"/>
			<point x="940" y="1500" type="curve" smooth="yes"/>
			<point x="1748" y="1500" type="line" smooth="yes"/>
			<point x="1787" y="1500"/>
			<point x="1794" y="1497"/>
			<point x="1794" y="1459" type="curve" smooth="yes"/>
			<point x="1794" y="1265" type="line" smooth="yes"/>
			<point x="1794" y="1233"/>
			<point x="1782" y="1230"/>
			<point x="1752" y="1230" type="curve" smooth="yes"/>
			<point x="1608" y="1230" type="line" smooth="yes"/>
			<point x="1560" y="1230"/>
			<point x="1554" y="1225"/>
			<point x="1554" y="1175" type="curve" smooth="yes"/>
			<point x="1554" y="322" type="line" smooth="yes"/>
			<point x="1554" y="274"/>
			<point x="1562" y="270"/>
			<point x="1608" y="270" type="curve" smooth="yes"/>
			<point x="1746" y="270" type="line" smooth="yes"/>
			<point x="1779" y="270"/>
			<point x="1794" y="269"/>
			<point x="1794" y="236" type="curve" smooth="yes"/>
			<point x="1794" y="50" type="line" smooth="yes"/>
			<point x="1794" y="5"/>
			<point x="1788" y="0"/>
			<point x="1744" y="0" type="curve" smooth="yes"/>
			<point x="934" y="0" type="line" smooth="yes"/>
			<point x="888" y="0"/>
			<point x="884" y="9"/>
			<point x="884" y="56" type="curve" smooth="yes"/>
			<point x="884" y="221" type="line" smooth="yes"/>
			<point x="884" y="266"/>
			<point x="897" y="270"/>
			<point x="939" y="270" type="curve" smooth="yes"/>
			<point x="1076" y="270" type="line" smooth="yes"/>
			<point x="1120" y="270"/>
			<point x="1122" y="278"/>
			<point x="1122" y="322" type="curve" smooth="yes"/>
			<point x="1122" y="547" type="line" smooth="yes"/>
			<point x="1122" y="623"/>
			<point x="1125" y="631"/>
			<point x="1079" y="610" type="curve" smooth="yes"/>
			<point x="977" y="563"/>
			<point x="837" y="534"/>
			<point x="678" y="534" type="curve" smooth="yes"/>
			<point x="352" y="534"/>
			<point x="208" y="678"/>
			<point x="208" y="1024" type="curve" smooth="yes"/>
			<point x="208" y="1191" type="line" smooth="yes"/>
			<point x="208" y="1223"/>
			<point x="199" y="1230"/>
			<point x="169" y="1230" type="curve" smooth="yes"/>
			<point x="63" y="1230" type="line" smooth="yes"/>
			<point x="29" y="1230"/>
			<point x="28" y="1241"/>
			<point x="28" y="1276" type="curve" smooth="yes"/>
			<point x="28" y="1462" type="line" smooth="yes"/>
			<point x="28" y="1494"/>
			<point x="38" y="1500"/>
			<point x="68" y="1500" type="curve" smooth="yes"/>
			<point x="748" y="1500" type="line" smooth="yes"/>
			<point x="775" y="1500"/>
			<point x="788" y="1497"/>
			<point x="788" y="1468" type="curve" smooth="yes"/>
			<point x="788" y="1268" type="line" smooth="yes"/>
			<point x="788" y="1236"/>
			<point x="782" y="1230"/>
			<point x="751" y="1230" type="curve" smooth="yes"/>
			<point x="687" y="1230" type="line" smooth="yes"/>
			<point x="653" y="1230"/>
			<point x="648" y="1223"/>
			<point x="648" y="1187" type="curve" smooth="yes"/>
			<point x="648" y="1074" type="line" smooth="yes"/>
			<point x="648" y="910"/>
			<point x="670" y="844"/>
			<point x="828" y="844" type="curve" smooth="yes"/>
			<point x="923" y="844"/>
			<point x="993" y="869"/>
			<point x="1076" y="906" type="curve" smooth="yes"/>
			<point x="1110" y="921"/>
			<point x="1122" y="954"/>
			<point x="1122" y="1008" type="curve" smooth="yes"/>
		</contour>
	</outline>
</glyph>
<glyph name="Ya-cy" format="2">
	<advance width="1918" height="0"/>
	<unicode hex="042F"/>
	<anchor x="1092" y="1500" name="Anchor-0"/>
	<anchor x="1002" y="0" name="Anchor-1"/>
	<anchor x="1002" y="0" name="Anchor-2"/>
	<outline>
		<contour>
			<point x="32" y="213" type="curve" smooth="yes"/>
			<point x="8" y="249"/>
			<point x="8" y="266"/>
			<point x="44" y="294" type="curve" smooth="yes"/>
			<point x="147" y="374" type="line" smooth="yes"/>
			<point x="181" y="401"/>
			<point x="189" y="401"/>
			<point x="212" y="368" type="curve" smooth="yes"/>
			<point x="236" y="334"/>
			<point x="269" y="308"/>
			<point x="300" y="308" type="curve" smooth="yes"/>
			<point x="415" y="308"/>
			<point x="300" y="585"/>
			<point x="542" y="718" type="curve" smooth="yes"/>
			<point x="594" y="747"/>
			<point x="575" y="763"/>
			<point x="525" y="782" type="curve" smooth="yes"/>
			<point x="360" y="845"/>
			<point x="298" y="949"/>
			<point x="298" y="1110" type="curve" smooth="yes"/>
			<point x="298" y="1350"/>
			<point x="496" y="1500"/>
			<point x="958" y="1500" type="curve" smooth="yes"/>
			<point x="1823" y="1500" type="line" smooth="yes"/>
			<point x="1858" y="1500"/>
			<point x="1868" y="1496"/>
			<point x="1868" y="1462" type="curve" smooth="yes"/>
			<point x="1868" y="1282" type="line" smooth="yes"/>
			<point x="1868" y="1242"/>
			<point x="1864" y="1230"/>
			<point x="1822" y="1230" type="curve" smooth="yes"/>
			<point x="1702" y="1230" type="line" smooth="yes"/>
			<point x="1659" y="1230"/>
			<point x="1648" y="1225"/>
			<point x="1648" y="1179" type="curve" smooth="yes"/>
			<point x="1648" y="322" type="line" smooth="yes"/>
			<point x="1648" y="276"/>
			<point x="1658" y="270"/>
			<point x="1705" y="270" type="curve" smooth="yes"/>
			<point x="1826" y="270" type="line" smooth="yes"/>
			<point x="1862" y="270"/>
			<point x="1868" y="263"/>
			<point x="1868" y="226" type="curve" smooth="yes"/>
			<point x="1868" y="38" type="line" smooth="yes"/>
			<point x="1868" y="5"/>
			<point x="1859" y="0"/>
			<point x="1825" y="0" type="curve" smooth="yes"/>
			<point x="1018" y="0" type="line" smooth="yes"/>
			<point x="959" y="0"/>
			<point x="958" y="13"/>
			<point x="958" y="72" type="curve" smooth="yes"/>
			<point x="958" y="224" type="line" smooth="yes"/>
			<point x="958" y="263"/>
			<point x="968" y="270"/>
			<point x="1004" y="270" type="curve" smooth="yes"/>
			<point x="1146" y="270" type="line" smooth="yes"/>
			<point x="1177" y="270"/>
			<point x="1178" y="279"/>
			<point x="1178" y="310" type="curve" smooth="yes"/>
			<point x="1178" y="572" type="line" smooth="yes"/>
			<point x="1178" y="610"/>
			<point x="1178" y="620"/>
			<point x="1140" y="620" type="curve" smooth="yes"/>
			<point x="1058" y="620" type="line" smooth="yes"/>
			<point x="705" y="620"/>
			<point x="994" y="-40"/>
			<point x="468" y="-40" type="curve" smooth="yes"/>
			<point x="258" y="-40"/>
			<point x="131" y="65"/>
		</contour>
		<contour>
			<point x="1126" y="880" type="line" smooth="yes"/>
			<point x="1174" y="880"/>
			<point x="1178" y="877"/>
			<point x="1178" y="926" type="curve" smooth="yes"/>
			<point x="1178" y="1182" type="line" smooth="yes"/>
			<point x="1178" y="1221"/>
			<point x="1174" y="1230"/>
			<point x="1136" y="1230" type="curve" smooth="yes"/>
			<point x="958" y="1230" type="line" smooth="yes"/>
			<point x="846" y="1230"/>
			<point x="778" y="1148"/>
			<point x="778" y="1050" type="curve" smooth="yes"/>
			<point x="778" y="952"/>
			<point x="846" y="880"/>
			<point x="958" y="880" type="curve" smooth="yes"/>
		</contour>
	</outline>
</glyph>
<glyph name="pe-cy" format="2">
	<advance width="1580" height="2310"/>
	<unicode hex="043F"/>
	<outline>
		<contour>
			<point x="655" y="251" type="line" smooth="yes"/>
			<point x="655" y="220"/>
			<point x="666" y="210"/>
			<point x="697" y="210" type="curve" smooth="yes"/>
			<point x="720" y="210" type="line" smooth="yes"/>
			<point x="747" y="210"/>
			<point x="755" y="205"/>
			<point x="755" y="176" type="curve" smooth="yes"/>
			<point x="755" y="30" type="line" smooth="yes"/>
			<point x="755" y="6"/>
			<point x="750" y="0"/>
			<point x="727" y="0" type="curve" smooth="yes"/>
			<point x="83" y="0" type="line" smooth="yes"/>
			<point x="59" y="0"/>
			<point x="55" y="7"/>
			<point x="55" y="32" type="curve" smooth="yes"/>
			<point x="55" y="178" type="line" smooth="yes"/>
			<point x="55" y="206"/>
			<point x="65" y="210"/>
			<point x="91" y="210" type="curve" smooth="yes"/>
			<point x="201" y="210" type="line" smooth="yes"/>
			<point x="227" y="210"/>
			<point x="235" y="213"/>
			<point x="235" y="238" type="curve" smooth="yes"/>
			<point x="235" y="786" type="line" smooth="yes"/>
			<point x="235" y="821"/>
			<point x="234" y="831"/>
			<point x="199" y="831" type="curve" smooth="yes"/>
			<point x="81" y="831" type="line" smooth="yes"/>
			<point x="59" y="831"/>
			<point x="55" y="838"/>
			<point x="55" y="861" type="curve" smooth="yes"/>
			<point x="55" y="1018" type="line" smooth="yes"/>
			<point x="55" y="1040"/>
			<point x="64" y="1040"/>
			<point x="86" y="1040" type="curve" smooth="yes"/>
			<point x="1497" y="1040" type="line" smooth="yes"/>
			<point x="1521" y="1040"/>
			<point x="1525" y="1033"/>
			<point x="1525" y="1008" type="curve" smooth="yes"/>
			<point x="1525" y="863" type="line" smooth="yes"/>
			<point x="1525" y="835"/>
			<point x="1515" y="831"/>
			<point x="1489" y="831" type="curve" smooth="yes"/>
			<point x="1379" y="831" type="line" smooth="yes"/>
			<point x="1353" y="831"/>
			<point x="1345" y="828"/>
			<point x="1345" y="803" type="curve" smooth="yes"/>
			<point x="1345" y="255" type="line" smooth="yes"/>
			<point x="1345" y="220"/>
			<point x="1346" y="210"/>
			<point x="1381" y="210" type="curve" smooth="yes"/>
			<point x="1499" y="210" type="line" smooth="yes"/>
			<point x="1521" y="210"/>
			<point x="1525" y="203"/>
			<point x="1525" y="180" type="curve" smooth="yes"/>
			<point x="1525" y="22" type="line" smooth="yes"/>
			<point x="1525" y="0"/>
			<point x="1516" y="0"/>
			<point x="1494" y="0" type="curve" smooth="yes"/>
			<point x="847" y="0" type="line" smooth="yes"/>
			<point x="826" y="0"/>
			<point x="825" y="9"/>
			<point x="825" y="31" type="curve" smooth="yes"/>
			<point x="825" y="181" type="line" smooth="yes"/>
			<point x="825" y="203"/>
			<point x="829" y="210"/>
			<point x="850" y="210" type="curve" smooth="yes"/>
			<point x="885" y="210" type="line" smooth="yes"/>
			<point x="917" y="210"/>
			<point x="925" y="214"/>
			<point x="925" y="249" type="curve" smooth="yes"/>
			<point x="925" y="790" type="line" smooth="yes"/>
			<point x="925" y="821"/>
			<point x="914" y="831"/>
			<point x="883" y="831" type="curve" smooth="yes"/>
			<point x="695" y="831" type="line" smooth="yes"/>
			<point x="663" y="831"/>
			<point x="655" y="827"/>
			<point x="655" y="792" type="curve" smooth="yes"/>
		</contour>
	</outline>
</glyph>
<glyph name="te-cy" format="2">
	<advance width="1480" height="2234"/>
	<unicode hex="0442"/>
	<outline>
		<contour>
			<point x="375" y="41" type="curve" smooth="yes"/>
			<point x="375" y="175" type="line" smooth="yes"/>
			<point x="375" y="207"/>
			<point x="387" y="210"/>
			<point x="417" y="210" type="curve" smooth="yes"/>
			<point x="481" y="210" type="line" smooth="yes"/>
			<point x="529" y="210"/>
			<point x="535" y="215"/>
			<point x="535" y="265" type="curve" smooth="yes"/>
			<point x="535" y="785" type="line" smooth="yes"/>
			<point x="535" y="823"/>
			<point x="528" y="830"/>
			<point x="491" y="830" type="curve" smooth="yes"/>
			<point x="485" y="830" type="line" smooth="yes"/>
			<point x="363" y="830"/>
			<point x="311" y="762"/>
			<point x="305" y="631" type="curve" smooth="yes"/>
			<point x="304" y="600"/>
			<point x="301" y="590"/>
			<point x="267" y="590" type="curve" smooth="yes"/>
			<point x="99" y="590" type="line" smooth="yes"/>
			<point x="65" y="590"/>
			<point x="65" y="611"/>
			<point x="65" y="641" type="curve" smooth="yes"/>
			<point x="65" y="987" type="line" smooth="yes"/>
			<point x="65" y="1033"/>
			<point x="68" y="1040"/>
			<point x="113" y="1040" type="curve" smooth="yes"/>
			<point x="1373" y="1040" type="line" smooth="yes"/>
			<point x="1412" y="1040"/>
			<point x="1415" y="1033"/>
			<point x="1415" y="993" type="curve" smooth="yes"/>
			<point x="1415" y="621" type="line" smooth="yes"/>
			<point x="1415" y="592"/>
			<point x="1407" y="590"/>
			<point x="1377" y="590" type="curve" smooth="yes"/>
			<point x="1213" y="590" type="line" smooth="yes"/>
			<point x="1176" y="590"/>
			<point x="1176" y="605"/>
			<point x="1174" y="637" type="curve" smooth="yes"/>
			<point x="1167" y="764"/>
			<point x="1125" y="830"/>
			<point x="1005" y="830" type="curve" smooth="yes"/>
			<point x="993" y="830" type="line" smooth="yes"/>
			<point x="958" y="830"/>
			<point x="955" y="823"/>
			<point x="955" y="787" type="curve" smooth="yes"/>
			<point x="955" y="267" type="line" smooth="yes"/>
			<point x="955" y="216"/>
			<point x="960" y="210"/>
			<point x="1009" y="210" type="curve" smooth="yes"/>
			<point x="1093" y="210" type="line" smooth="yes"/>
			<point x="1133" y="210"/>
			<point x="1135" y="202"/>
			<point x="1135" y="161" type="curve" smooth="yes"/>
			<point x="1135" y="42" type="line" smooth="yes"/>
			<point x="1135" y="2"/>
			<point x="1113" y="0"/>
			<point x="1077" y="0" type="curve" smooth="yes"/>
			<point x="421" y="0" type="line" smooth="yes"/>
			<point x="382" y="0"/>
			<point x="375" y="3"/>
		</contour>
	</outline>
</glyph>
<glyph name="shcha-cy" format="2">
	<advance width="2245" height="2310"/>
	<unicode hex="0449"/>
	<outline>
		<contour>
			<point x="925" y="789" type="line" smooth="yes"/>
			<point x="925" y="820"/>
			<point x="914" y="830"/>
			<point x="883" y="830" type="curve" smooth="yes"/>
			<point x="860" y="830" type="line" smooth="yes"/>
			<point x="833" y="830"/>
			<point x="825" y="835"/>
			<point x="825" y="864" type="curve" smooth="yes"/>
			<point x="825" y="1010" type="line" smooth="yes"/>
			<point x="825" y="1034"/>
			<point x="830" y="1040"/>
			<point x="853" y="1040" type="curve" smooth="yes"/>
			<point x="1417" y="1040" type="line" smooth="yes"/>
			<point x="1441" y="1040"/>
			<point x="1445" y="1033"/>
			<point x="1445" y="1008" type="curve" smooth="yes"/>
			<point x="1445" y="862" type="line" smooth="yes"/>
			<point x="1445" y="834"/>
			<point x="1435" y="830"/>
			<point x="1409" y="830" type="curve" smooth="yes"/>
			<point x="1379" y="830" type="line" smooth="yes"/>
			<point x="1353" y="830"/>
			<point x="1345" y="827"/>
			<point x="1345" y="802" type="curve" smooth="yes"/>
			<point x="1345" y="255" type="line" smooth="yes"/>
			<point x="1345" y="220"/>
			<point x="1346" y="210"/>
			<point x="1381" y="210" type="curve" smooth="yes"/>
			<point x="1575" y="210" type="line" smooth="yes"/>
			<point x="1607" y="210"/>
			<point x="1615" y="214"/>
			<point x="1615" y="249" type="curve" smooth="yes"/>
			<point x="1615" y="789" type="line" smooth="yes"/>
			<point x="1615" y="820"/>
			<point x="1604" y="830"/>
			<point x="1573" y="830" type="curve" smooth="yes"/>
			<point x="1550" y="830" type="line" smooth="yes"/>
			<point x="1523" y="830"/>
			<point x="1515" y="835"/>
			<point x="1515" y="864" type="curve" smooth="yes"/>
			<point x="1515" y="1010" type="line" smooth="yes"/>
			<point x="1515" y="1034"/>
			<point x="1520" y="1040"/>
			<point x="1543" y="1040" type="curve" smooth="yes"/>
			<point x="2187" y="1040" type="line" smooth="yes"/>
			<point x="2211" y="1040"/>
			<point x="2215" y="1033"/>
			<point x="2215" y="1008" type="curve" smooth="yes"/>
			<point x="2215" y="862" type="line" smooth="yes"/>
			<point x="2215" y="834"/>
			<point x="2205" y="830"/>
			<point x="2179" y="830" type="curve" smooth="yes"/>
			<point x="2069" y="830" type="line" smooth="yes"/>
			<point x="2043" y="830"/>
			<point x="2035" y="827"/>
			<point x="2035" y="802" type="curve" smooth="yes"/>
			<point x="2035" y="255" type="line" smooth="yes"/>
			<point x="2035" y="220"/>
			<point x="2036" y="210"/>
			<point x="2071" y="210" type="curve" smooth="yes"/>
			<point x="2189" y="210" type="line" smooth="yes"/>
			<point x="2211" y="210"/>
			<point x="2215" y="203"/>
			<point x="2215" y="180" type="curve" smooth="yes"/>
			<point x="2215" y="-293" type="line" smooth="yes"/>
			<point x="2215" y="-311"/>
			<point x="2214" y="-320"/>
			<point x="2196" y="-320" type="curve" smooth="yes"/>
			<point x="2004" y="-320" type="line" smooth="yes"/>
			<point x="1985" y="-320"/>
			<point x="1986" y="-315"/>
			<point x="1985" y="-297" type="curve" smooth="yes"/>
			<point x="1978" y="-153"/>
			<point x="1821" y="0"/>
			<point x="1625" y="0" type="curve" smooth="yes"/>
			<point x="83" y="0" type="line" smooth="yes"/>
			<point x="59" y="0"/>
			<point x="55" y="7"/>
			<point x="55" y="32" type="curve" smooth="yes"/>
			<point x="55" y="178" type="line" smooth="yes"/>
			<point x="55" y="206"/>
			<point x="65" y="210"/>
			<point x="91" y="210" type="curve" smooth="yes"/>
			<point x="201" y="210" type="line" smooth="yes"/>
			<point x="227" y="210"/>
			<point x="235" y="213"/>
			<point x="235" y="238" type="curve" smooth="yes"/>
			<point x="235" y="785" type="line" smooth="yes"/>
			<point x="235" y="820"/>
			<point x="234" y="830"/>
			<point x="199" y="830" type="curve" smooth="yes"/>
			<point x="81" y="830" type="line" smooth="yes"/>
			<point x="59" y="830"/>
			<point x="55" y="837"/>
			<point x="55" y="860" type="curve" smooth="yes"/>
			<point x="55" y="1018" type="line" smooth="yes"/>
			<point x="55" y="1040"/>
			<point x="64" y="1040"/>
			<point x="86" y="1040" type="curve" smooth="yes"/>
			<point x="733" y="1040" type="line" smooth="yes"/>
			<point x="754" y="1040"/>
			<point x="755" y="1031"/>
			<point x="755" y="1009" type="curve" smooth="yes"/>
			<point x="755" y="859" type="line" smooth="yes"/>
			<point x="755" y="837"/>
			<point x="751" y="830"/>
			<point x="730" y="830" type="curve" smooth="yes"/>
			<point x="695" y="830" type="line" smooth="yes"/>
			<point x="663" y="830"/>
			<point x="655" y="826"/>
			<point x="655" y="791" type="curve" smooth="yes"/>
			<point x="655" y="251" type="line" smooth="yes"/>
			<point x="655" y="220"/>
			<point x="666" y="210"/>
			<point x="697" y="210" type="curve" smooth="yes"/>
			<point x="885" y="210" type="line" smooth="yes"/>
			<point x="917" y="210"/>
			<point x="925" y="214"/>
			<point x="925" y="249" type="curve" smooth="yes"/>
		</contour>
	</outline>
</glyph>
<glyph name="dje-cy" format="2">
	<advance width="1555" height="2310"/>
	<unicode hex="0452"/>
	<outline>
		<contour>
			<point x="116" y="1300" type="curve" smooth="yes"/>
			<point x="775" y="1300" type="line" smooth="yes"/>
			<point x="802" y="1300"/>
			<point x="810" y="1295"/>
			<point x="810" y="1266" type="curve" smooth="yes"/>
			<point x="810" y="1110" type="line" smooth="yes"/>
			<point x="810" y="1086"/>
			<point x="805" y="1080"/>
			<point x="782" y="1080" type="curve" smooth="yes"/>
			<point x="108" y="1080" type="line" smooth="yes"/>
			<point x="84" y="1080"/>
			<point x="80" y="1087"/>
			<point x="80" y="1112" type="curve" smooth="yes"/>
			<point x="80" y="1268" type="line" smooth="yes"/>
			<point x="80" y="1296"/>
			<point x="90" y="1300"/>
		</contour>
		<contour>
			<point x="189" y="1350" type="curve" smooth="yes"/>
			<point x="105" y="1350" type="line" smooth="yes"/>
			<point x="60" y="1350"/>
			<point x="55" y="1357"/>
			<point x="55" y="1401" type="curve" smooth="yes"/>
			<point x="55" y="1507" type="line" smooth="yes"/>
			<point x="55" y="1553"/>
			<point x="80" y="1560"/>
			<point x="121" y="1560" type="curve" smooth="yes"/>
			<point x="559" y="1560" type="line" smooth="yes"/>
			<point x="590" y="1560"/>
			<point x="615" y="1552"/>
			<point x="615" y="1510" type="curve" smooth="yes"/>
			<point x="615" y="954" type="line" smooth="yes"/>
			<point x="615" y="905"/>
			<point x="628" y="890"/>
			<point x="656" y="922" type="curve" smooth="yes"/>
			<point x="728" y="1004"/>
			<point x="812" y="1080"/>
			<point x="981" y="1080" type="curve" smooth="yes"/>
			<point x="1215" y="1080"/>
			<point x="1345" y="952"/>
			<point x="1345" y="738" type="curve" smooth="yes"/>
			<point x="1345" y="-64" type="line" smooth="yes"/>
			<point x="1345" y="-386"/>
			<point x="1110" y="-520"/>
			<point x="810" y="-520" type="curve" smooth="yes"/>
			<point x="568" y="-520"/>
			<point x="374" y="-422"/>
			<point x="374" y="-228" type="curve" smooth="yes"/>
			<point x="374" y="-108"/>
			<point x="474" y="-16"/>
			<point x="598" y="-16" type="curve" smooth="yes"/>
			<point x="742" y="-16"/>
			<point x="838" y="-102"/>
			<point x="838" y="-192" type="curve" smooth="yes"/>
			<point x="838" y="-306"/>
			<point x="758" y="-302"/>
			<point x="758" y="-324" type="curve" smooth="yes"/>
			<point x="758" y="-340"/>
			<point x="770" y="-350"/>
			<point x="806" y="-350" type="curve" smooth="yes"/>
			<point x="1006" y="-350"/>
			<point x="925" y="-134"/>
			<point x="925" y="140" type="curve" smooth="yes"/>
			<point x="925" y="706" type="line" smooth="yes"/>
			<point x="925" y="814"/>
			<point x="897" y="846"/>
			<point x="835" y="846" type="curve" smooth="yes"/>
			<point x="759" y="846"/>
			<point x="655" y="772"/>
			<point x="655" y="566" type="curve" smooth="yes"/>
			<point x="655" y="249" type="line" smooth="yes"/>
			<point x="655" y="219"/>
			<point x="659" y="210"/>
			<point x="691" y="210" type="curve" smooth="yes"/>
			<point x="715" y="210" type="line" smooth="yes"/>
			<point x="746" y="210"/>
			<point x="755" y="206"/>
			<point x="755" y="173" type="curve" smooth="yes"/>
			<point x="755" y="37" type="line" smooth="yes"/>
			<point x="755" y="2"/>
			<point x="737" y="0"/>
			<point x="705" y="0" type="curve" smooth="yes"/>
			<point x="87" y="0" type="line" smooth="yes"/>
			<point x="56" y="0"/>
			<point x="55" y="9"/>
			<point x="55" y="41" type="curve" smooth="yes"/>
			<point x="55" y="168" type="line" smooth="yes"/>
			<point x="55" y="204"/>
			<point x="60" y="210"/>
			<point x="95" y="210" type="curve" smooth="yes"/>
			<point x="185" y="210" type="line" smooth="yes"/>
			<point x="226" y="210"/>
			<point x="235" y="211"/>
			<point x="235" y="252" type="curve" smooth="yes"/>
			<point x="235" y="1304" type="line" smooth="yes"/>
			<point x="235" y="1345"/>
			<point x="229" y="1350"/>
		</contour>
	</outline>
</glyph>
<glyph name="yi-cy" format="2">
	<advance width="905" height="0"/>
	<unicode hex="0457"/>
	<outline>
		<contour>
			<point x="733" y="1230" type="curve" smooth="yes"/>
			<point x="627" y="1230"/>
			<point x="541" y="1316"/>
			<point x="541" y="1422" type="curve" smooth="yes"/>
			<point x="541" y="1528"/>
			<point x="627" y="1614"/>
			<point x="733" y="1614" type="curve" smooth="yes"/>
			<point x="839" y="1614"/>
			<point x="925" y="1528"/>
			<point x="925" y="1422" type="curve" smooth="yes"/>
			<point x="925" y="1316"/>
			<point x="839" y="1230"/>
		</contour>
		<contour>
			<point x="173" y="1230" type="curve" smooth="yes"/>
			<point x="67" y="1230"/>
			<point x="-19" y="1316"/>
			<point x="-19" y="1422" type="curve" smooth="yes"/>
			<point x="-19" y="1528"/>
			<point x="67" y="1614"/>
			<point x="173" y="1614" type="curve" smooth="yes"/>
			<point x="279" y="1614"/>
			<point x="365" y="1528"/>
			<point x="365" y="1422" type="curve" smooth="yes"/>
			<point x="365" y="1316"/>
			<point x="279" y="1230"/>
		</contour>
		<contour>
			<point x="231" y="830" type="curve" smooth="yes"/>
			<point x="96" y="830" type="line" smooth="yes"/>
			<point x="78" y="830"/>
			<point x="70" y="833"/>
			<point x="70" y="850" type="curve" smooth="yes"/>
			<point x="70" y="1012" type="line" smooth="yes"/>
			<point x="70" y="1035"/>
			<point x="78" y="1040"/>
			<point x="100" y="1040" type="curve" smooth="yes"/>
			<point x="645" y="1040" type="line" smooth="yes"/>
			<point x="664" y="1040"/>
			<point x="670" y="1039"/>
			<point x="670" y="1020" type="curve" smooth="yes"/>
			<point x="670" y="235" type="line" smooth="yes"/>
			<point x="670" y="215"/>
			<point x="671" y="210"/>
			<point x="691" y="210" type="curve" smooth="yes"/>
			<point x="822" y="210" type="line" smooth="yes"/>
			<point x="845" y="210"/>
			<point x="850" y="209"/>
			<point x="850" y="186" type="curve" smooth="yes"/>
			<point x="850" y="31" type="line" smooth="yes"/>
			<point x="850" y="2"/>
			<point x="842" y="0"/>
			<point x="812" y="0" type="curve" smooth="yes"/>
			<point x="94" y="0" type="line" smooth="yes"/>
			<point x="74" y="0"/>
			<point x="70" y="4"/>
			<point x="70" y="25" type="curve" smooth="yes"/>
			<point x="70" y="181" type="line" smooth="yes"/>
			<point x="70" y="206"/>
			<point x="73" y="210"/>
			<point x="97" y="210" type="curve" smooth="yes"/>
			<point x="224" y="210" type="line" smooth="yes"/>
			<point x="245" y="210"/>
			<point x="250" y="211"/>
			<point x="250" y="232" type="curve" smooth="yes"/>
			<point x="250" y="804" type="line" smooth="yes"/>
			<point x="250" y="821"/>
			<point x="247" y="830"/>
		</contour>
	</outline>
</glyph>
<glyph name="ushort-cy" format="2">
	<advance width="1430" height="2310"/>
	<unicode hex="045E"/>
	<outline>
		<contour>
			<point x="1003" y="1611" type="curve" smooth="yes"/>
			<point x="1124" y="1611"/>
			<point x="1216" y="1522"/>
			<point x="1216" y="1411" type="curve" smooth="yes"/>
			<point x="1216" y="1236"/>
			<point x="1051" y="1137"/>
			<point x="769" y="1137" type="curve" smooth="yes"/>
			<point x="485" y="1137"/>
			<point x="321" y="1236"/>
			<point x="321" y="1413" type="curve" smooth="yes"/>
			<point x="321" y="1522"/>
			<point x="413" y="1611"/>
			<point x="534" y="1611" type="curve" smooth="yes"/>
			<point x="634" y="1611"/>
			<point x="700" y="1540"/>
			<point x="700" y="1456" type="curve" smooth="yes"/>
			<point x="700" y="1357"/>
			<point x="583" y="1359"/>
			<point x="583" y="1327" type="curve" smooth="yes"/>
			<point x="583" y="1294"/>
			<point x="650" y="1280"/>
			<point x="777" y="1280" type="curve" smooth="yes"/>
			<point x="891" y="1280"/>
			<point x="954" y="1296"/>
			<point x="954" y="1327" type="curve" smooth="yes"/>
			<point x="954" y="1360"/>
			<point x="837" y="1356"/>
			<point x="837" y="1456" type="curve" smooth="yes"/>
			<point x="837" y="1540"/>
			<point x="903" y="1611"/>
		</contour>
		<component base="y"/>
	</outline>
</glyph>
<glyph name="dzhe-cy" format="2">
	<advance width="1410" height="2310"/>
	<unicode hex="045F"/>
	<outline>
		<contour>
			<point x="709" y="-320" type="line" smooth="yes"/>
			<point x="690" y="-320"/>
			<point x="691" y="-315"/>
			<point x="690" y="-297" type="curve" smooth="yes"/>
			<point x="683" y="-153"/>
			<point x="646" y="0"/>
			<point x="450" y="0" type="curve" smooth="yes"/>
			<point x="83" y="0" type="line" smooth="yes"/>
			<point x="59" y="0"/>
			<point x="55" y="7"/>
			<point x="55" y="32" type="curve" smooth="yes"/>
			<point x="55" y="178" type="line" smooth="yes"/>
			<point x="55" y="206"/>
			<point x="65" y="210"/>
			<point x="91" y="210" type="curve" smooth="yes"/>
			<point x="201" y="210" type="line" smooth="yes"/>
			<point x="227" y="210"/>
			<point x="235" y="213"/>
			<point x="235" y="238" type="curve" smooth="yes"/>
			<point x="235" y="785" type="line" smooth="yes"/>
			<point x="235" y="820"/>
			<point x="234" y="830"/>
			<point x="199" y="830" type="curve" smooth="yes"/>
			<point x="81" y="830" type="line" smooth="yes"/>
			<point x="59" y="830"/>
			<point x="55" y="837"/>
			<point x="55" y="860" type="curve" smooth="yes"/>
			<point x="55" y="1018" type="line" smooth="yes"/>
			<point x="55" y="1040"/>
			<point x="64" y="1040"/>
			<point x="86" y="1040" type="curve" smooth="yes"/>
			<point x="733" y="1040" type="line" smooth="yes"/>
			<point x="754" y="1040"/>
			<point x="755" y="1031"/>
			<point x="755" y="1009" type="curve" smooth="yes"/>
			<point x="755" y="859" type="line" smooth="yes"/>
			<point x="755" y="837"/>
			<point x="751" y="830"/>
			<point x="730" y="830" type="curve" smooth="yes"/>
			<point x="695" y="830" type="line" smooth="yes"/>
			<point x="663" y="830"/>
			<point x="655" y="826"/>
			<point x="655" y="791" type="curve" smooth="yes"/>
			<point x="655" y="251" type="line" smooth="yes"/>
			<point x="655" y="220"/>
			<point x="666" y="210"/>
			<point x="697" y="210" type="curve" smooth="yes"/>
			<point x="885" y="210" type="line" smooth="yes"/>
			<point x="917" y="210"/>
			<point x="925" y="214"/>
			<point x="925" y="249" type="curve" smooth="yes"/>
			<point x="925" y="789" type="line" smooth="yes"/>
			<point x="925" y="820"/>
			<point x="914" y="830"/>
			<point x="883" y="830" type="curve" smooth="yes"/>
			<point x="860" y="830" type="line" smooth="yes"/>
			<point x="833" y="830"/>
			<point x="825" y="835"/>
			<point x="825" y="864" type="curve" smooth="yes"/>
			<point x="825" y="1010" type="line" smooth="yes"/>
			<point x="825" y="1034"/>
			<point x="830" y="1040"/>
			<point x="853" y="1040" type="curve" smooth="yes"/>
			<point x="1497" y="1040" type="line" smooth="yes"/>
			<point x="1521" y="1040"/>
			<point x="1525" y="1033"/>
			<point x="1525" y="1008" type="curve" smooth="yes"/>
			<point x="1525" y="862" type="line" smooth="yes"/>
			<point x="1525" y="834"/>
			<point x="1515" y="830"/>
			<point x="1489" y="830" type="curve" smooth="yes"/>
			<point x="1379" y="830" type="line" smooth="yes"/>
			<point x="1353" y="830"/>
			<point x="1345" y="827"/>
			<point x="1345" y="802" type="curve" smooth="yes"/>
			<point x="1345" y="255" type="line" smooth="yes"/>
			<point x="1345" y="220"/>
			<point x="1346" y="210"/>
			<point x="1381" y="210" type="curve" smooth="yes"/>
			<point x="1499" y="210" type="line" smooth="yes"/>
			<point x="1521" y="210"/>
			<point x="1525" y="203"/>
			<point x="1525" y="180" type="curve" smooth="yes"/>
			<point x="1525" y="27" type="line" smooth="yes"/>
			<point x="1525" y="9"/>
			<point x="1524" y="0"/>
			<point x="1506" y="0" type="curve" smooth="yes"/>
			<point x="1161" y="0" type="line" smooth="yes"/>
			<point x="965" y="0"/>
			<point x="928" y="-153"/>
			<point x="921" y="-297" type="curve" smooth="yes"/>
			<point x="920" y="-316"/>
			<point x="921" y="-320"/>
			<point x="901" y="-320" type="curve" smooth="yes"/>
		</contour>
	</outline>
</glyph>
<glyph name="Yat-cy" format="2">
	<advance width="1330" height="0"/>
	<unicode hex="0462"/>
	<outline>
		<contour>
			<point x="125" y="1180" type="curve" smooth="yes"/>
			<point x="897" y="1180" type="line" smooth="yes"/>
			<point x="925" y="1180"/>
			<point x="928" y="1176"/>
			<point x="928" y="1152" type="curve" smooth="yes"/>
			<point x="928" y="1003" type="line" smooth="yes"/>
			<point x="928" y="979"/>
			<point x="926" y="970"/>
			<point x="894" y="970" type="curve" smooth="yes"/>
			<point x="123" y="970" type="line" smooth="yes"/>
			<point x="93" y="970"/>
			<point x="91" y="974"/>
			<point x="91" y="1000" type="curve" smooth="yes"/>
			<point x="91" y="1152" type="line" smooth="yes"/>
			<point x="91" y="1175"/>
			<point x="99" y="1180"/>
		</contour>
		<component base="Softsign-cy" xOffset="5"/>
	</outline>
</glyph>
<glyph name="yat-cy" format="2">
	<advance width="1338" height="2234"/>
	<unicode hex="0463"/>
	<outline>
		<contour>
			<point x="115" y="1180" type="curve" smooth="yes"/>
			<point x="907" y="1180" type="line" smooth="yes"/>
			<point x="935" y="1180"/>
			<point x="938" y="1176"/>
			<point x="938" y="1152" type="curve" smooth="yes"/>
			<point x="938" y="1003" type="line" smooth="yes"/>
			<point x="938" y="979"/>
			<point x="936" y="970"/>
			<point x="904" y="970" type="curve" smooth="yes"/>
			<point x="113" y="970" type="line" smooth="yes"/>
			<point x="83" y="970"/>
			<point x="81" y="974"/>
			<point x="81" y="1000" type="curve" smooth="yes"/>
			<point x="81" y="1152" type="line" smooth="yes"/>
			<point x="81" y="1175"/>
			<point x="89" y="1180"/>
		</contour>
		<contour>
			<point x="78" y="0" type="line" smooth="yes"/>
			<point x="57" y="0"/>
			<point x="55" y="4"/>
			<point x="55" y="26" type="curve" smooth="yes"/>
			<point x="55" y="188" type="line" smooth="yes"/>
			<point x="55" y="208"/>
			<point x="65" y="210"/>
			<point x="83" y="210" type="curve" smooth="yes"/>
			<point x="213" y="210" type="line" smooth="yes"/>
			<point x="234" y="210"/>
			<point x="235" y="217"/>
			<point x="235" y="237" type="curve" smooth="yes"/>
			<point x="235" y="1316" type="line" smooth="yes"/>
			<point x="235" y="1341"/>
			<point x="234" y="1350"/>
			<point x="209" y="1350" type="curve" smooth="yes"/>
			<point x="80" y="1350" type="line" smooth="yes"/>
			<point x="60" y="1350"/>
			<point x="55" y="1352"/>
			<point x="55" y="1374" type="curve" smooth="yes"/>
			<point x="55" y="1536" type="line" smooth="yes"/>
			<point x="55" y="1557"/>
			<point x="62" y="1560"/>
			<point x="82" y="1560" type="curve" smooth="yes"/>
			<point x="809" y="1560" type="line" smooth="yes"/>
			<point x="836" y="1560"/>
			<point x="835" y="1559"/>
			<point x="835" y="1530" type="curve" smooth="yes"/>
			<point x="835" y="1379" type="line" smooth="yes"/>
			<point x="835" y="1351"/>
			<point x="842" y="1350"/>
			<point x="814" y="1350" type="curve" smooth="yes"/>
			<point x="680" y="1350" type="line" smooth="yes"/>
			<point x="658" y="1350"/>
			<point x="655" y="1343"/>
			<point x="655" y="1320" type="curve" smooth="yes"/>
			<point x="655" y="675" type="line" smooth="yes"/>
			<point x="655" y="651"/>
			<point x="664" y="650"/>
			<point x="689" y="650" type="curve" smooth="yes"/>
			<point x="888" y="650" type="line" smooth="yes"/>
			<point x="1160" y="650"/>
			<point x="1338" y="550"/>
			<point x="1338" y="310" type="curve" smooth="yes"/>
			<point x="1338" y="70"/>
			<point x="1160" y="0"/>
			<point x="888" y="0" type="curve" smooth="yes"/>
		</contour>
		<contour>
			<point x="723" y="210" type="line" smooth="yes"/>
			<point x="815" y="210"/>
			<point x="873" y="222"/>
			<point x="873" y="320" type="curve" smooth="yes"/>
			<point x="873" y="418"/>
			<point x="815" y="440"/>
			<point x="723" y="440" type="curve" smooth="yes"/>
			<point x="704" y="440" type="line" smooth="yes"/>
			<point x="657" y="440"/>
			<point x="655" y="432"/>
			<point x="655" y="384" type="curve" smooth="yes"/>
			<point x="655" y="246" type="line" smooth="yes"/>
			<point x="655" y="214"/>
			<point x="656" y="210"/>
			<point x="688" y="210" type="curve" smooth="yes"/>
		</contour>
	</outline>
</glyph>
<glyph name="figuredash" format="2">
	<advance width="1224" height="0"/>
	<unicode hex="2012"/>
	<outline>
		<contour>
			<point x="169" y="890" type="curve" smooth="yes"/>
			<point x="1055" y="890" type="line" smooth="yes"/>
			<point x="1100" y="890"/>
			<point x="1104" y="883"/>
			<point x="1104" y="851" type="curve" smooth="yes"/>
			<point x="1104" y="701" type="line" smooth="yes"/>
			<point x="1104" y="666"/>
			<point x="1103" y="660"/>
			<point x="1052" y="660" type="curve" smooth="yes"/>
			<point x="181" y="660" type="line" smooth="yes"/>
			<point x="129" y="660"/>
			<point x="120" y="665"/>
			<point x="120" y="700" type="curve" smooth="yes"/>
			<point x="120" y="849" type="line" smooth="yes"/>
			<point x="120" y="881"/>
			<point x="123" y="890"/>
		</contour>
	</outline>
</glyph>
<glyph name="emdash" format="2">
	<advance width="2124" height="0"/>
	<unicode hex="2014"/>
	<outline>
		<contour>
			<point x="215" y="890" type="curve" smooth="yes"/>
			<point x="1910" y="890" type="line" smooth="yes"/>
			<point x="1996" y="890"/>
			<point x="2004" y="883"/>
			<point x="2004" y="851" type="curve" smooth="yes"/>
			<point x="2004" y="701" type="line" smooth="yes"/>
			<point x="2004" y="666"/>
			<point x="2001" y="660"/>
			<point x="1904" y="660" type="curve" smooth="yes"/>
			<point x="237" y="660" type="line" smooth="yes"/>
			<point x="137" y="660"/>
			<point x="120" y="665"/>
			<point x="120" y="700" type="curve" smooth="yes"/>
			<point x="120" y="849" type="line" smooth="yes"/>
			<point x="120" y="881"/>
			<point x="126" y="890"/>
		</contour>
	</outline>
</glyph>
<glyph name="quoteright" format="2">
	<advance width="704" height="0"/>
	<unicode hex="2019"/>
	<outline>
		<contour>
			<point x="80" y="1502" type="curve" smooth="yes"/>
			<point x="80" y="1648"/>
			<point x="208" y="1740"/>
			<point x="344" y="1740" type="curve" smooth="yes"/>
			<point x="512" y="1740"/>
			<point x="624" y="1629"/>
			<point x="624" y="1413" type="curve" smooth="yes"/>
			<point x="624" y="1133"/>
			<point x="337" y="939"/>
			<point x="153" y="915" type="curve" smooth="yes"/>
			<point x="124" y="911"/>
			<point x="116" y="916"/>
			<point x="116" y="948" type="curve" smooth="yes"/>
			<point x="116" y="1067" type="line" smooth="yes"/>
			<point x="116" y="1087"/>
			<point x="124" y="1091"/>
			<point x="141" y="1093" type="curve" smooth="yes"/>
			<point x="261" y="1105"/>
			<point x="382" y="1203"/>
			<point x="423" y="1272" type="curve" smooth="yes"/>
			<point x="428" y="1280"/>
			<point x="421" y="1286"/>
			<point x="409" y="1281" type="curve" smooth="yes"/>
			<point x="386" y="1271"/>
			<point x="350" y="1264"/>
			<point x="306" y="1264" type="curve" smooth="yes"/>
			<point x="170" y="1264"/>
			<point x="80" y="1356"/>
		</contour>
	</outline>
</glyph>
<glyph name="quotesinglbase" format="2">
	<advance width="703" height="0"/>
	<unicode hex="201A"/>
	<outline>
		<contour>
			<point x="79" y="198" type="curve" smooth="yes"/>
			<point x="79" y="344"/>
			<point x="207" y="436"/>
			<point x="343" y="436" type="curve" smooth="yes"/>
			<point x="511" y="436"/>
			<point x="623" y="325"/>
			<point x="623" y="109" type="curve" smooth="yes"/>
			<point x="623" y="-171"/>
			<point x="336" y="-365"/>
			<point x="152" y="-389" type="curve" smooth="yes"/>
			<point x="123" y="-393"/>
			<point x="115" y="-388"/>
			<point x="115" y="-356" type="curve" smooth="yes"/>
			<point x="115" y="-237" type="line" smooth="yes"/>
			<point x="115" y="-217"/>
			<point x="123" y="-213"/>
			<point x="140" y="-211" type="curve" smooth="yes"/>
			<point x="260" y="-199"/>
			<point x="381" y="-101"/>
			<point x="422" y="-32" type="curve" smooth="yes"/>
			<point x="427" y="-24"/>
			<point x="420" y="-18"/>
			<point x="408" y="-23" type="curve" smooth="yes"/>
			<point x="385" y="-33"/>
			<point x="349" y="-40"/>
			<point x="305" y="-40" type="curve" smooth="yes"/>
			<point x="169" y="-40"/>
			<point x="79" y="52"/>
		</contour>
	</outline>
</glyph>
<glyph name="quotedblbase" format="2">
	<advance width="1324" height="0"/>
	<unicode hex="201E"/>
	<outline>
		<contour>
			<point x="80" y="202" type="curve" smooth="yes"/>
			<point x="80" y="348"/>
			<point x="208" y="440"/>
			<point x="344" y="440" type="curve" smooth="yes"/>
			<point x="512" y="440"/>
			<point x="624" y="329"/>
			<point x="624" y="113" type="curve" smooth="yes"/>
			<point x="624" y="-167"/>
			<point x="337" y="-361"/>
			<point x="153" y="-385" type="curve" smooth="yes"/>
			<point x="124" y="-389"/>
			<point x="116" y="-384"/>
			<point x="116" y="-352" type="curve" smooth="yes"/>
			<point x="116" y="-233" type="line" smooth="yes"/>
			<point x="116" y="-213"/>
			<point x="124" y="-209"/>
			<point x="141" y="-207" type="curve" smooth="yes"/>
			<point x="261" y="-195"/>
			<point x="382" y="-97"/>
			<point x="423" y="-28" type="curve" smooth="yes"/>
			<point x="428" y="-20"/>
			<point x="421" y="-14"/>
			<point x="409" y="-19" type="curve" smooth="yes"/>
			<point x="386" y="-29"/>
			<point x="350" y="-36"/>
			<point x="306" y="-36" type="curve" smooth="yes"/>
			<point x="170" y="-36"/>
			<point x="80" y="56"/>
		</contour>
		<contour>
			<point x="700" y="202" type="curve" smooth="yes"/>
			<point x="700" y="348"/>
			<point x="828" y="440"/>
			<point x="964" y="440" type="curve" smooth="yes"/>
			<point x="1132" y="440"/>
			<point x="1244" y="329"/>
			<point x="1244" y="113" type="curve" smooth="yes"/>
			<point x="1244" y="-167"/>
			<point x="957" y="-361"/>
			<point x="773" y="-385" type="curve" smooth="yes"/>
			<point x="744" y="-389"/>
			<point x="736" y="-384"/>
			<point x="736" y="-352" type="curve" smooth="yes"/>
			<point x="736" y="-233" type="line" smooth="yes"/>
			<point x="736" y="-213"/>
			<point x="744" y="-209"/>
			<point x="761" y="-207" type="curve" smooth="yes"/>
			<point x="881" y="-195"/>
			<point x="1002" y="-97"/>
			<point x="1043" y="-28" type="curve" smooth="yes"/>
			<point x="1048" y="-20"/>
			<point x="1041" y="-14"/>
			<point x="1029" y="-19" type="curve" smooth="yes"/>
			<point x="1006" y="-29"/>
			<point x="970" y="-36"/>
			<point x="926" y="-36" type="curve" smooth="yes"/>
			<point x="790" y="-36"/>
			<point x="700" y="56"/>
		</contour>
	</outline>
</glyph>
<glyph name="daggerdbl" format="2">
	<advance width="1186" height="0"/>
	<unicode hex="2021"/>
	<outline>
		<contour>
			<point x="486" y="1085" type="curve" smooth="yes"/>
			<point x="478" y="1182"/>
			<point x="413" y="1190"/>
			<point x="395" y="1321" type="curve" smooth="yes"/>
			<point x="393" y="1335"/>
			<point x="393" y="1346"/>
			<point x="393" y="1358" type="curve" smooth="yes"/>
			<point x="393" y="1436"/>
			<point x="484" y="1520"/>
			<point x="593" y="1520" type="curve" smooth="yes"/>
			<point x="702" y="1520"/>
			<point x="793" y="1446"/>
			<point x="793" y="1368" type="curve" smooth="yes"/>
			<point x="793" y="1356"/>
			<point x="793" y="1345"/>
			<point x="791" y="1331" type="curve" smooth="yes"/>
			<point x="773" y="1205"/>
			<point x="712" y="1185"/>
			<point x="701" y="1096" type="curve" smooth="yes"/>
			<point x="698" y="1076"/>
			<point x="698" y="1072"/>
			<point x="718" y="1076" type="curve" smooth="yes"/>
			<point x="790" y="1091"/>
			<point x="812" y="1157"/>
			<point x="927" y="1174" type="curve" smooth="yes"/>
			<point x="941" y="1176"/>
			<point x="952" y="1176"/>
			<point x="964" y="1176" type="curve" smooth="yes"/>
			<point x="1062" y="1176"/>
			<point x="1136" y="1085"/>
			<point x="1136" y="976" type="curve" smooth="yes"/>
			<point x="1136" y="867"/>
			<point x="1062" y="776"/>
			<point x="964" y="776" type="curve" smooth="yes"/>
			<point x="952" y="776"/>
			<point x="941" y="776"/>
			<point x="927" y="778" type="curve" smooth="yes"/>
			<point x="818" y="794"/>
			<point x="793" y="854"/>
			<point x="729" y="873" type="curve" smooth="yes"/>
			<point x="704" y="880"/>
			<point x="697" y="882"/>
			<point x="699" y="852" type="curve" smooth="yes"/>
			<point x="706" y="710"/>
			<point x="756" y="615"/>
			<point x="809" y="535" type="curve" smooth="yes"/>
			<point x="825" y="511"/>
			<point x="831" y="499"/>
			<point x="815" y="474" type="curve" smooth="yes"/>
			<point x="759" y="391"/>
			<point x="705" y="294"/>
			<point x="699" y="143" type="curve" smooth="yes"/>
			<point x="698" y="123"/>
			<point x="697" y="119"/>
			<point x="716" y="123" type="curve" smooth="yes"/>
			<point x="790" y="137"/>
			<point x="811" y="205"/>
			<point x="927" y="222" type="curve" smooth="yes"/>
			<point x="941" y="224"/>
			<point x="952" y="224"/>
			<point x="964" y="224" type="curve" smooth="yes"/>
			<point x="1062" y="224"/>
			<point x="1136" y="133"/>
			<point x="1136" y="24" type="curve" smooth="yes"/>
			<point x="1136" y="-95"/>
			<point x="1062" y="-176"/>
			<point x="964" y="-176" type="curve" smooth="yes"/>
			<point x="952" y="-176"/>
			<point x="941" y="-176"/>
			<point x="927" y="-174" type="curve" smooth="yes"/>
			<point x="817" y="-158"/>
			<point x="792" y="-97"/>
			<point x="728" y="-78" type="curve" smooth="yes"/>
			<point x="711" y="-73"/>
			<point x="697" y="-67"/>
			<point x="700" y="-91" type="curve" smooth="yes"/>
			<point x="710" y="-183"/>
			<point x="773" y="-193"/>
			<point x="791" y="-321" type="curve" smooth="yes"/>
			<point x="793" y="-335"/>
			<point x="793" y="-346"/>
			<point x="793" y="-358" type="curve" smooth="yes"/>
			<point x="793" y="-436"/>
			<point x="712" y="-520"/>
			<point x="593" y="-520" type="curve" smooth="yes"/>
			<point x="474" y="-520"/>
			<point x="393" y="-436"/>
			<point x="393" y="-358" type="curve" smooth="yes"/>
			<point x="393" y="-346"/>
			<point x="393" y="-335"/>
			<point x="395" y="-321" type="curve" smooth="yes"/>
			<point x="413" y="-194"/>
			<point x="476" y="-183"/>
			<point x="486" y="-93" type="curve" smooth="yes"/>
			<point x="489" y="-70"/>
			<point x="481" y="-72"/>
			<point x="462" y="-77" type="curve" smooth="yes"/>
			<point x="395" y="-94"/>
			<point x="371" y="-158"/>
			<point x="259" y="-174" type="curve" smooth="yes"/>
			<point x="245" y="-176"/>
			<point x="234" y="-176"/>
			<point x="222" y="-176" type="curve" smooth="yes"/>
			<point x="124" y="-176"/>
			<point x="50" y="-95"/>
			<point x="50" y="24" type="curve" smooth="yes"/>
			<point x="50" y="133"/>
			<point x="124" y="224"/>
			<point x="222" y="224" type="curve" smooth="yes"/>
			<point x="234" y="224"/>
			<point x="245" y="224"/>
			<point x="259" y="222" type="curve" smooth="yes"/>
			<point x="375" y="205"/>
			<point x="396" y="137"/>
			<point x="470" y="123" type="curve" smooth="yes"/>
			<point x="488" y="120"/>
			<point x="488" y="122"/>
			<point x="487" y="141" type="curve" smooth="yes"/>
			<point x="481" y="286"/>
			<point x="432" y="382"/>
			<point x="379" y="463" type="curve" smooth="yes"/>
			<point x="358" y="495"/>
			<point x="358" y="505"/>
			<point x="379" y="537" type="curve" smooth="yes"/>
			<point x="431" y="617"/>
			<point x="480" y="711"/>
			<point x="487" y="853" type="curve" smooth="yes"/>
			<point x="488" y="884"/>
			<point x="480" y="880"/>
			<point x="456" y="873" type="curve" smooth="yes"/>
			<point x="393" y="853"/>
			<point x="367" y="794"/>
			<point x="259" y="778" type="curve" smooth="yes"/>
			<point x="245" y="776"/>
			<point x="234" y="776"/>
			<point x="222" y="776" type="curve" smooth="yes"/>
			<point x="114" y="776"/>
			<point x="50" y="867"/>
			<point x="50" y="976" type="curve" smooth="yes"/>
			<point x="50" y="1085"/>
			<point x="114" y="1176"/>
			<point x="222" y="1176" type="curve" smooth="yes"/>
			<point x="234" y="1176"/>
			<point x="245" y="1176"/>
			<point x="259" y="1174" type="curve" smooth="yes"/>
			<point x="375" y="1157"/>
			<point x="396" y="1089"/>
			<point x="470" y="1075" type="curve" smooth="yes"/>
			<point x="482" y="1073"/>
			<point x="487" y="1070"/>
		</contour>
	</outline>
</glyph>
<glyph name="Euro" format="2">
	<advance width="1792" height="0"/>
	<unicode hex="20AC"/>
	<outline>
		<contour>
			<point x="990" y="1304" type="curve" smooth="yes"/>
			<point x="722" y="1304"/>
			<point x="600" y="1114"/>
			<point x="600" y="750" type="curve" smooth="yes"/>
			<point x="600" y="386"/>
			<point x="682" y="198"/>
			<point x="980" y="198" type="curve" smooth="yes"/>
			<point x="1281" y="198"/>
			<point x="1331" y="325"/>
			<point x="1338" y="464" type="curve" smooth="yes"/>
			<point x="1339" y="476"/>
			<point x="1344" y="480"/>
			<point x="1358" y="480" type="curve" smooth="yes"/>
			<point x="1528" y="480" type="line" smooth="yes"/>
			<point x="1542" y="480"/>
			<point x="1549" y="479"/>
			<point x="1549" y="466" type="curve" smooth="yes"/>
			<point x="1544" y="266"/>
			<point x="1391" y="-20"/>
			<point x="960" y="-20" type="curve" smooth="yes"/>
			<point x="454" y="-20"/>
			<point x="170" y="304"/>
			<point x="170" y="750" type="curve" smooth="yes"/>
			<point x="170" y="1196"/>
			<point x="474" y="1520"/>
			<point x="980" y="1520" type="curve" smooth="yes"/>
			<point x="1354" y="1520"/>
			<point x="1562" y="1306"/>
			<point x="1562" y="1102" type="curve" smooth="yes"/>
			<point x="1562" y="946"/>
			<point x="1452" y="870"/>
			<point x="1334" y="870" type="curve" smooth="yes"/>
			<point x="1200" y="870"/>
			<point x="1120" y="952"/>
			<point x="1120" y="1086" type="curve" smooth="yes"/>
			<point x="1120" y="1208"/>
			<point x="1204" y="1207"/>
			<point x="1204" y="1243" type="curve" smooth="yes"/>
			<point x="1204" y="1277"/>
			<point x="1138" y="1304"/>
		</contour>
		<component base="equal" xOffset="-70" yOffset="-30"/>
	</outline>
</glyph>
<glyph name="notequal" format="2">
	<advance width="1119" height="0"/>
	<unicode hex="2260"/>
	<outline>
		<contour>
			<point x="164" y="1090" type="curve" smooth="yes"/>
			<point x="956" y="1090" type="line" smooth="yes"/>
			<point x="996" y="1090"/>
			<point x="1000" y="1083"/>
			<point x="1000" y="1051" type="curve" smooth="yes"/>
			<point x="1000" y="901" type="line" smooth="yes"/>
			<point x="1000" y="866"/>
			<point x="999" y="860"/>
			<point x="954" y="860" type="curve" smooth="yes"/>
			<point x="175" y="860" type="line" smooth="yes"/>
			<point x="128" y="860"/>
			<point x="120" y="865"/>
			<point x="120" y="900" type="curve" smooth="yes"/>
			<point x="120" y="1049" type="line" smooth="yes"/>
			<point x="120" y="1081"/>
			<point x="123" y="1090"/>
		</contour>
		<contour>
			<point x="164" y="690" type="curve" smooth="yes"/>
			<point x="956" y="690" type="line" smooth="yes"/>
			<point x="996" y="690"/>
			<point x="1000" y="683"/>
			<point x="1000" y="651" type="curve" smooth="yes"/>
			<point x="1000" y="501" type="line" smooth="yes"/>
			<point x="1000" y="466"/>
			<point x="999" y="460"/>
			<point x="954" y="460" type="curve" smooth="yes"/>
			<point x="175" y="460" type="line" smooth="yes"/>
			<point x="128" y="460"/>
			<point x="120" y="465"/>
			<point x="120" y="500" type="curve" smooth="yes"/>
			<point x="120" y="649" type="line" smooth="yes"/>
			<point x="120" y="681"/>
			<point x="123" y="690"/>
		</contour>
		<contour>
			<point x="157" y="319" type="curve" smooth="yes"/>
			<point x="811" y="1254" type="line" smooth="yes"/>
			<point x="844" y="1301"/>
			<point x="852" y="1303"/>
			<point x="873" y="1288" type="curve" smooth="yes"/>
			<point x="972" y="1219" type="line" smooth="yes"/>
			<point x="995" y="1203"/>
			<point x="997" y="1198"/>
			<point x="960" y="1145" type="curve" smooth="yes"/>
			<point x="316" y="225" type="line" smooth="yes"/>
			<point x="277" y="170"/>
			<point x="268" y="164"/>
			<point x="245" y="180" type="curve" smooth="yes"/>
			<point x="147" y="248" type="line" smooth="yes"/>
			<point x="126" y="263"/>
			<point x="123" y="270"/>
		</contour>
	</outline>
</glyph>
<glyph name="fi" format="2">
	<advance width="1630" height="2310"/>
	<unicode hex="FB01"/>
	<anchor x="815" y="0" name="caret_1"/>
	<outline>
		<contour>
			<point x="640" y="778" type="curve" smooth="yes"/>
			<point x="640" y="262" type="line" smooth="yes"/>
			<point x="640" y="217"/>
			<point x="643" y="210"/>
			<point x="687" y="210" type="curve" smooth="yes"/>
			<point x="751" y="210" type="line" smooth="yes"/>
			<point x="784" y="210"/>
			<point x="790" y="206"/>
			<point x="790" y="174" type="curve" smooth="yes"/>
			<point x="790" y="43" type="line" smooth="yes"/>
			<point x="790" y="5"/>
			<point x="781" y="0"/>
			<point x="745" y="0" type="curve" smooth="yes"/>
			<point x="97" y="0" type="line" smooth="yes"/>
			<point x="50" y="0"/>
			<point x="40" y="1"/>
			<point x="40" y="48" type="curve" smooth="yes"/>
			<point x="40" y="158" type="line" smooth="yes"/>
			<point x="40" y="200"/>
			<point x="41" y="210"/>
			<point x="83" y="210" type="curve" smooth="yes"/>
			<point x="175" y="210" type="line" smooth="yes"/>
			<point x="213" y="210"/>
			<point x="220" y="213"/>
			<point x="220" y="250" type="curve" smooth="yes"/>
			<point x="220" y="772" type="line" smooth="yes"/>
			<point x="220" y="820"/>
			<point x="219" y="830"/>
			<point x="171" y="830" type="curve" smooth="yes"/>
			<point x="89" y="830" type="line" smooth="yes"/>
			<point x="45" y="830"/>
			<point x="40" y="837"/>
			<point x="40" y="880" type="curve" smooth="yes"/>
			<point x="40" y="998" type="line" smooth="yes"/>
			<point x="40" y="1034"/>
			<point x="44" y="1040"/>
			<point x="79" y="1040" type="curve" smooth="yes"/>
			<point x="179" y="1040" type="line" smooth="yes"/>
			<point x="215" y="1040"/>
			<point x="220" y="1046"/>
			<point x="220" y="1084" type="curve" smooth="yes"/>
			<point x="220" y="1144" type="line" smooth="yes"/>
			<point x="220" y="1366"/>
			<point x="454" y="1600"/>
			<point x="854" y="1600" type="curve" smooth="yes"/>
			<point x="1176" y="1600"/>
			<point x="1340" y="1462"/>
			<point x="1340" y="1308" type="curve" smooth="yes"/>
			<point x="1340" y="1188"/>
			<point x="1230" y="1106"/>
			<point x="1106" y="1106" type="curve" smooth="yes"/>
			<point x="962" y="1106"/>
			<point x="866" y="1162"/>
			<point x="866" y="1272" type="curve" smooth="yes"/>
			<point x="866" y="1366"/>
			<point x="938" y="1388"/>
			<point x="938" y="1410" type="curve" smooth="yes"/>
			<point x="938" y="1424"/>
			<point x="900" y="1426"/>
			<point x="880" y="1426" type="curve" smooth="yes"/>
			<point x="780" y="1426"/>
			<point x="640" y="1354"/>
			<point x="640" y="1100" type="curve" smooth="yes"/>
			<point x="640" y="1078" type="line" smooth="yes"/>
			<point x="640" y="1042"/>
			<point x="648" y="1040"/>
			<point x="685" y="1040" type="curve" smooth="yes"/>
			<point x="1383" y="1040" type="line" smooth="yes"/>
			<point x="1430" y="1040"/>
			<point x="1440" y="1039"/>
			<point x="1440" y="992" type="curve" smooth="yes"/>
			<point x="1440" y="258" type="line" smooth="yes"/>
			<point x="1440" y="225"/>
			<point x="1443" y="210"/>
			<point x="1479" y="210" type="curve" smooth="yes"/>
			<point x="1581" y="210" type="line" smooth="yes"/>
			<point x="1615" y="210"/>
			<point x="1620" y="200"/>
			<point x="1620" y="168" type="curve" smooth="yes"/>
			<point x="1620" y="56" type="line" smooth="yes"/>
			<point x="1620" y="10"/>
			<point x="1616" y="0"/>
			<point x="1567" y="0" type="curve" smooth="yes"/>
			<point x="925" y="0" type="line" smooth="yes"/>
			<point x="876" y="0"/>
			<point x="850" y="2"/>
			<point x="850" y="56" type="curve" smooth="yes"/>
			<point x="850" y="154" type="line" smooth="yes"/>
			<point x="850" y="201"/>
			<point x="853" y="210"/>
			<point x="903" y="210" type="curve" smooth="yes"/>
			<point x="965" y="210" type="line" smooth="yes"/>
			<point x="1011" y="210"/>
			<point x="1020" y="212"/>
			<point x="1020" y="258" type="curve" smooth="yes"/>
			<point x="1020" y="780" type="line" smooth="yes"/>
			<point x="1020" y="829"/>
			<point x="1007" y="830"/>
			<point x="961" y="830" type="curve" smooth="yes"/>
			<point x="693" y="830" type="line" smooth="yes"/>
			<point x="645" y="830"/>
			<point x="640" y="824"/>
		</contour>
	</outline>
</glyph>
<glyph name="c.sc" format="2">
	<advance width="1356" height="0"/>
	<anchor x="740" y="1035" name="Anchor-0"/>
	<anchor x="740" y="1" name="Anchor-1"/>
	<outline>
		<contour>
			<point x="49" y="517" type="curve" smooth="yes"/>
			<point x="49" y="685"/>
			<point x="136" y="824"/>
			<point x="240" y="910" type="curve" smooth="yes"/>
			<point x="355" y="1005"/>
			<point x="524" y="1069"/>
			<point x="723" y="1069" type="curve" smooth="yes"/>
			<point x="779" y="1069"/>
			<point x="829" y="1061"/>
			<point x="874" y="1044" type="curve" smooth="yes"/>
			<point x="919" y="1027"/>
			<point x="959" y="1004"/>
			<point x="993" y="975" type="curve" smooth="yes"/>
			<point x="1010" y="962"/>
			<point x="1022" y="956"/>
			<point x="1029" y="957" type="curve" smooth="yes"/>
			<point x="1036" y="958"/>
			<point x="1047" y="968"/>
			<point x="1060" y="987" type="curve" smooth="yes"/>
			<point x="1086" y="1024" type="line" smooth="yes"/>
			<point x="1099" y="1041"/>
			<point x="1103" y="1043"/>
			<point x="1133" y="1043" type="curve" smooth="yes"/>
			<point x="1245" y="1043" type="line" smooth="yes"/>
			<point x="1285" y="1043"/>
			<point x="1286" y="1034"/>
			<point x="1286" y="993" type="curve" smooth="yes"/>
			<point x="1286" y="658" type="line" smooth="yes"/>
			<point x="1286" y="631"/>
			<point x="1276" y="631"/>
			<point x="1245" y="631" type="curve" smooth="yes"/>
			<point x="1055" y="631" type="line" smooth="yes"/>
			<point x="1016" y="631"/>
			<point x="1008" y="635"/>
			<point x="999" y="660" type="curve" smooth="yes"/>
			<point x="984" y="716"/>
			<point x="958" y="761"/>
			<point x="921" y="796" type="curve" smooth="yes"/>
			<point x="884" y="831"/>
			<point x="829" y="849"/>
			<point x="756" y="849" type="curve" smooth="yes"/>
			<point x="684" y="849"/>
			<point x="626" y="821"/>
			<point x="581" y="764" type="curve" smooth="yes"/>
			<point x="536" y="707"/>
			<point x="514" y="626"/>
			<point x="514" y="520" type="curve" smooth="yes"/>
			<point x="514" y="414"/>
			<point x="537" y="334"/>
			<point x="584" y="280" type="curve" smooth="yes"/>
			<point x="631" y="226"/>
			<point x="694" y="198"/>
			<point x="775" y="198" type="curve" smooth="yes"/>
			<point x="840" y="198"/>
			<point x="897" y="214"/>
			<point x="944" y="246" type="curve" smooth="yes"/>
			<point x="991" y="278"/>
			<point x="1022" y="322"/>
			<point x="1036" y="379" type="curve" smooth="yes"/>
			<point x="1047" y="413"/>
			<point x="1051" y="421"/>
			<point x="1096" y="421" type="curve" smooth="yes"/>
			<point x="1271" y="421" type="line" smooth="yes"/>
			<point x="1307" y="421"/>
			<point x="1322" y="418"/>
			<point x="1318" y="392" type="curve" smooth="yes"/>
			<point x="1298" y="268"/>
			<point x="1245" y="166"/>
			<point x="1148" y="86" type="curve" smooth="yes"/>
			<point x="1051" y="6"/>
			<point x="912" y="-34"/>
			<point x="733" y="-34" type="curve" smooth="yes"/>
			<point x="598" y="-34"/>
			<point x="479" y="-11"/>
			<point x="376" y="34" type="curve" smooth="yes"/>
			<point x="273" y="79"/>
			<point x="192" y="142"/>
			<point x="135" y="224" type="curve" smooth="yes"/>
			<point x="78" y="306"/>
			<point x="49" y="404"/>
		</contour>
	</outline>
</glyph>
<glyph name="eight.tosf" format="2">
	<advance width="1400" height="2310"/>
	<outline>
		<contour>
			<point x="505" y="444" type="curve" smooth="yes"/>
			<point x="505" y="236"/>
			<point x="597" y="170"/>
			<point x="695" y="170" type="curve" smooth="yes"/>
			<point x="783" y="170"/>
			<point x="875" y="236"/>
			<point x="875" y="444" type="curve" smooth="yes"/>
			<point x="875" y="612"/>
			<point x="783" y="720"/>
			<point x="695" y="720" type="curve" smooth="yes"/>
			<point x="597" y="720"/>
			<point x="505" y="612"/>
		</contour>
		<contour>
			<point x="155" y="1140" type="curve" smooth="yes"/>
			<point x="155" y="1360"/>
			<point x="373" y="1520"/>
			<point x="695" y="1520" type="curve" smooth="yes"/>
			<point x="1027" y="1520"/>
			<point x="1245" y="1360"/>
			<point x="1245" y="1140" type="curve" smooth="yes"/>
			<point x="1245" y="994"/>
			<point x="1163" y="897"/>
			<point x="1040" y="842" type="curve" smooth="yes"/>
			<point x="1009" y="828"/>
			<point x="984" y="824"/>
			<point x="984" y="810" type="curve" smooth="yes"/>
			<point x="984" y="798"/>
			<point x="1010" y="792"/>
			<point x="1039" y="780" type="curve" smooth="yes"/>
			<point x="1193" y="716"/>
			<point x="1295" y="591"/>
			<point x="1295" y="420" type="curve" smooth="yes"/>
			<point x="1295" y="160"/>
			<point x="1057" y="-20"/>
			<point x="695" y="-20" type="curve" smooth="yes"/>
			<point x="333" y="-20"/>
			<point x="105" y="160"/>
			<point x="105" y="420" type="curve" smooth="yes"/>
			<point x="105" y="600"/>
			<point x="209" y="731"/>
			<point x="377" y="790" type="curve" smooth="yes"/>
			<point x="398" y="797"/>
			<point x="411" y="797"/>
			<point x="411" y="812" type="curve" smooth="yes"/>
			<point x="411" y="826"/>
			<point x="388" y="827"/>
			<point x="374" y="832" type="curve" smooth="yes"/>
			<point x="239" y="884"/>
			<point x="155" y="984"/>
		</contour>
		<contour>
			<point x="555" y="1105" type="curve" smooth="yes"/>
			<point x="555" y="957"/>
			<point x="637" y="900"/>
			<point x="695" y="900" type="curve" smooth="yes"/>
			<point x="773" y="900"/>
			<point x="835" y="957"/>
			<point x="835" y="1105" type="curve" smooth="yes"/>
			<point x="835" y="1253"/>
			<point x="773" y="1330"/>
			<point x="705" y="1330" type="curve" smooth="yes"/>
			<point x="637" y="1330"/>
			<point x="555" y="1253"/>
		</contour>
	</outline>
</glyph>
<glyph name="h.sc" format="2">
	<advance width="1673" height="0"/>
	<anchor x="889" y="1040" name="Anchor-0"/>
	<anchor x="885" y="0" name="Anchor-1"/>
	<outline>
		<contour>
			<point x="641" y="780" type="curve" smooth="yes"/>
			<point x="641" y="669" type="line" smooth="yes"/>
			<point x="641" y="643"/>
			<point x="657" y="646"/>
			<point x="688" y="646" type="curve" smooth="yes"/>
			<point x="1035" y="646" type="line" smooth="yes"/>
			<point x="1068" y="646"/>
			<point x="1076" y="646"/>
			<point x="1076" y="675" type="curve" smooth="yes"/>
			<point x="1076" y="783" type="line" smooth="yes"/>
			<point x="1076" y="794"/>
			<point x="1065" y="799"/>
			<point x="1044" y="799" type="curve" smooth="yes"/>
			<point x="976" y="799" type="line" smooth="yes"/>
			<point x="938" y="799"/>
			<point x="937" y="804"/>
			<point x="937" y="845" type="curve" smooth="yes"/>
			<point x="937" y="986" type="line" smooth="yes"/>
			<point x="937" y="1030"/>
			<point x="938" y="1040"/>
			<point x="978" y="1040" type="curve" smooth="yes"/>
			<point x="1597" y="1040" type="line" smooth="yes"/>
			<point x="1628" y="1040"/>
			<point x="1639" y="1030"/>
			<point x="1639" y="996" type="curve" smooth="yes"/>
			<point x="1639" y="842" type="line" smooth="yes"/>
			<point x="1639" y="809"/>
			<point x="1635" y="799"/>
			<point x="1604" y="799" type="curve" smooth="yes"/>
			<point x="1514" y="799" type="line" smooth="yes"/>
			<point x="1489" y="799"/>
			<point x="1486" y="793"/>
			<point x="1486" y="769" type="curve" smooth="yes"/>
			<point x="1486" y="270" type="line" smooth="yes"/>
			<point x="1486" y="247"/>
			<point x="1489" y="241"/>
			<point x="1513" y="241" type="curve" smooth="yes"/>
			<point x="1603" y="241" type="line" smooth="yes"/>
			<point x="1637" y="241"/>
			<point x="1639" y="228"/>
			<point x="1639" y="190" type="curve" smooth="yes"/>
			<point x="1639" y="72" type="line" smooth="yes"/>
			<point x="1639" y="12"/>
			<point x="1638" y="0"/>
			<point x="1583" y="0" type="curve" smooth="yes"/>
			<point x="992" y="0" type="line" smooth="yes"/>
			<point x="945" y="0"/>
			<point x="937" y="11"/>
			<point x="937" y="62" type="curve" smooth="yes"/>
			<point x="937" y="201" type="line" smooth="yes"/>
			<point x="937" y="232"/>
			<point x="942" y="241"/>
			<point x="971" y="241" type="curve" smooth="yes"/>
			<point x="1033" y="241" type="line" smooth="yes"/>
			<point x="1061" y="241"/>
			<point x="1076" y="240"/>
			<point x="1076" y="264" type="curve" smooth="yes"/>
			<point x="1076" y="398" type="line" smooth="yes"/>
			<point x="1076" y="421"/>
			<point x="1064" y="422"/>
			<point x="1038" y="422" type="curve" smooth="yes"/>
			<point x="677" y="422" type="line" smooth="yes"/>
			<point x="650" y="422"/>
			<point x="641" y="421"/>
			<point x="641" y="397" type="curve" smooth="yes"/>
			<point x="641" y="269" type="line" smooth="yes"/>
			<point x="641" y="242"/>
			<point x="649" y="241"/>
			<point x="681" y="241" type="curve" smooth="yes"/>
			<point x="772" y="241" type="line" smooth="yes"/>
			<point x="808" y="241"/>
			<point x="820" y="239"/>
			<point x="820" y="204" type="curve" smooth="yes"/>
			<point x="820" y="58" type="line" smooth="yes"/>
			<point x="820" y="6"/>
			<point x="798" y="0"/>
			<point x="748" y="0" type="curve" smooth="yes"/>
			<point x="97" y="0" type="line" smooth="yes"/>
			<point x="44" y="0"/>
			<point x="35" y="7"/>
			<point x="35" y="60" type="curve" smooth="yes"/>
			<point x="35" y="184" type="line" smooth="yes"/>
			<point x="35" y="224"/>
			<point x="37" y="241"/>
			<point x="77" y="241" type="curve" smooth="yes"/>
			<point x="173" y="241" type="line" smooth="yes"/>
			<point x="210" y="241"/>
			<point x="231" y="238"/>
			<point x="231" y="270" type="curve" smooth="yes"/>
			<point x="231" y="772" type="line" smooth="yes"/>
			<point x="231" y="800"/>
			<point x="215" y="799"/>
			<point x="183" y="799" type="curve" smooth="yes"/>
			<point x="93" y="799" type="line" smooth="yes"/>
			<point x="46" y="799"/>
			<point x="35" y="804"/>
			<point x="35" y="853" type="curve" smooth="yes"/>
			<point x="35" y="990" type="line" smooth="yes"/>
			<point x="35" y="1033"/>
			<point x="55" y="1040"/>
			<point x="97" y="1040" type="curve" smooth="yes"/>
			<point x="748" y="1040" type="line" smooth="yes"/>
			<point x="800" y="1040"/>
			<point x="820" y="1033"/>
			<point x="820" y="979" type="curve" smooth="yes"/>
			<point x="820" y="842" type="line" smooth="yes"/>
			<point x="820" y="804"/>
			<point x="816" y="799"/>
			<point x="778" y="799" type="curve" smooth="yes"/>
			<point x="679" y="799" type="line" smooth="yes"/>
			<point x="653" y="799"/>
			<point x="641" y="801"/>
		</contour>
	</outline>
</glyph>
<glyph name="one.osf" format="2">
	<advance width="1070" height="2310"/>
	<outline>
		<contour>
			<point x="70" y="42" type="curve" smooth="yes"/>
			<point x="70" y="174" type="line" smooth="yes"/>
			<point x="70" y="206"/>
			<point x="77" y="210"/>
			<point x="110" y="210" type="curve" smooth="yes"/>
			<point x="328" y="210" type="line" smooth="yes"/>
			<point x="363" y="210"/>
			<point x="370" y="213"/>
			<point x="370" y="247" type="curve" smooth="yes"/>
			<point x="370" y="687" type="line" smooth="yes"/>
			<point x="370" y="719"/>
			<point x="361" y="720"/>
			<point x="328" y="720" type="curve" smooth="yes"/>
			<point x="134" y="720" type="line" smooth="yes"/>
			<point x="109" y="720"/>
			<point x="104" y="726"/>
			<point x="104" y="753" type="curve" smooth="yes"/>
			<point x="104" y="895" type="line" smooth="yes"/>
			<point x="104" y="929"/>
			<point x="114" y="930"/>
			<point x="148" y="930" type="curve" smooth="yes"/>
			<point x="338" y="931"/>
			<point x="462" y="946"/>
			<point x="555" y="1146" type="curve" smooth="yes"/>
			<point x="565" y="1167"/>
			<point x="572" y="1180"/>
			<point x="606" y="1180" type="curve" smooth="yes"/>
			<point x="708" y="1180" type="line" smooth="yes"/>
			<point x="754" y="1180"/>
			<point x="760" y="1175"/>
			<point x="760" y="1127" type="curve" smooth="yes"/>
			<point x="760" y="238" type="line" smooth="yes"/>
			<point x="760" y="211"/>
			<point x="769" y="210"/>
			<point x="796" y="210" type="curve" smooth="yes"/>
			<point x="1002" y="210" type="line" smooth="yes"/>
			<point x="1035" y="210"/>
			<point x="1040" y="204"/>
			<point x="1040" y="170" type="curve" smooth="yes"/>
			<point x="1040" y="52" type="line" smooth="yes"/>
			<point x="1040" y="6"/>
			<point x="1035" y="0"/>
			<point x="990" y="0" type="curve" smooth="yes"/>
			<point x="108" y="0" type="line" smooth="yes"/>
			<point x="74" y="0"/>
			<point x="70" y="7"/>
		</contour>
	</outline>
</glyph>
<glyph name="seven.osf" format="2">
	<advance width="1303" height="2310"/>
	<outline>
		<contour>
			<point x="65" y="522" type="curve" smooth="yes"/>
			<point x="75" y="887"/>
			<point x="284" y="1060"/>
			<point x="485" y="1060" type="curve" smooth="yes"/>
			<point x="679" y="1060"/>
			<point x="799" y="940"/>
			<point x="965" y="940" type="curve" smooth="yes"/>
			<point x="1033" y="940"/>
			<point x="1066" y="967"/>
			<point x="1086" y="1011" type="curve" smooth="yes"/>
			<point x="1094" y="1029"/>
			<point x="1097" y="1040"/>
			<point x="1125" y="1040" type="curve" smooth="yes"/>
			<point x="1254" y="1040" type="line" smooth="yes"/>
			<point x="1289" y="1040"/>
			<point x="1295" y="1033"/>
			<point x="1290" y="1000" type="curve" smooth="yes"/>
			<point x="1267" y="845"/>
			<point x="1076" y="533"/>
			<point x="891" y="296" type="curve" smooth="yes"/>
			<point x="769" y="139"/>
			<point x="713" y="72"/>
			<point x="713" y="4" type="curve" smooth="yes"/>
			<point x="713" y="-92"/>
			<point x="889" y="-92"/>
			<point x="889" y="-244" type="curve" smooth="yes"/>
			<point x="889" y="-358"/>
			<point x="819" y="-480"/>
			<point x="661" y="-480" type="curve" smooth="yes"/>
			<point x="513" y="-480"/>
			<point x="399" y="-386"/>
			<point x="399" y="-208" type="curve" smooth="yes"/>
			<point x="399" y="-30"/>
			<point x="501" y="104"/>
			<point x="663" y="302" type="curve" smooth="yes"/>
			<point x="763" y="424"/>
			<point x="833" y="505"/>
			<point x="929" y="640" type="curve" smooth="yes"/>
			<point x="958" y="681"/>
			<point x="983" y="716"/>
			<point x="973" y="726" type="curve" smooth="yes"/>
			<point x="958" y="741"/>
			<point x="934" y="699"/>
			<point x="905" y="676" type="curve" smooth="yes"/>
			<point x="858" y="638"/>
			<point x="779" y="606"/>
			<point x="725" y="606" type="curve" smooth="yes"/>
			<point x="605" y="606"/>
			<point x="545" y="674"/>
			<point x="443" y="674" type="curve" smooth="yes"/>
			<point x="356" y="674"/>
			<point x="251" y="622"/>
			<point x="241" y="520" type="curve" smooth="yes"/>
			<point x="239" y="497"/>
			<point x="246" y="486"/>
			<point x="218" y="486" type="curve" smooth="yes"/>
			<point x="102" y="486" type="line" smooth="yes"/>
			<point x="72" y="486"/>
			<point x="64" y="494"/>
		</contour>
	</outline>
</glyph>
<glyph name="three.osf" format="2">
	<advance width="1235" height="2310"/>
	<outline>
		<contour>
			<point x="30" y="-112" type="curve" smooth="yes"/>
			<point x="30" y="24"/>
			<point x="120" y="130"/>
			<point x="268" y="130" type="curve" smooth="yes"/>
			<point x="402" y="130"/>
			<point x="472" y="58"/>
			<point x="472" y="-36" type="curve" smooth="yes"/>
			<point x="472" y="-168"/>
			<point x="347" y="-168"/>
			<point x="347" y="-214" type="curve" smooth="yes"/>
			<point x="347" y="-268"/>
			<point x="444" y="-296"/>
			<point x="522" y="-296" type="curve" smooth="yes"/>
			<point x="670" y="-296"/>
			<point x="788" y="-248"/>
			<point x="788" y="-40" type="curve" smooth="yes"/>
			<point x="788" y="96"/>
			<point x="699" y="195"/>
			<point x="516" y="210" type="curve" smooth="yes"/>
			<point x="478" y="213"/>
			<point x="464" y="203"/>
			<point x="464" y="247" type="curve" smooth="yes"/>
			<point x="464" y="378" type="line" smooth="yes"/>
			<point x="464" y="417"/>
			<point x="473" y="409"/>
			<point x="507" y="412" type="curve" smooth="yes"/>
			<point x="691" y="426"/>
			<point x="748" y="535"/>
			<point x="748" y="682" type="curve" smooth="yes"/>
			<point x="748" y="830"/>
			<point x="650" y="886"/>
			<point x="522" y="886" type="curve" smooth="yes"/>
			<point x="464" y="886"/>
			<point x="398" y="870"/>
			<point x="398" y="836" type="curve" smooth="yes"/>
			<point x="398" y="790"/>
			<point x="532" y="800"/>
			<point x="532" y="658" type="curve" smooth="yes"/>
			<point x="532" y="574"/>
			<point x="452" y="492"/>
			<point x="328" y="492" type="curve" smooth="yes"/>
			<point x="210" y="492"/>
			<point x="90" y="568"/>
			<point x="90" y="714" type="curve" smooth="yes"/>
			<point x="90" y="908"/>
			<point x="288" y="1060"/>
			<point x="602" y="1060" type="curve" smooth="yes"/>
			<point x="934" y="1060"/>
			<point x="1150" y="912"/>
			<point x="1150" y="682" type="curve" smooth="yes"/>
			<point x="1150" y="538"/>
			<point x="1065" y="408"/>
			<point x="844" y="338" type="curve" smooth="yes"/>
			<point x="800" y="324"/>
			<point x="770" y="329"/>
			<point x="770" y="315" type="curve" smooth="yes"/>
			<point x="770" y="298"/>
			<point x="789" y="306"/>
			<point x="844" y="292" type="curve" smooth="yes"/>
			<point x="1082" y="229"/>
			<point x="1190" y="101"/>
			<point x="1190" y="-60" type="curve" smooth="yes"/>
			<point x="1190" y="-360"/>
			<point x="884" y="-480"/>
			<point x="582" y="-480" type="curve" smooth="yes"/>
			<point x="228" y="-480"/>
			<point x="30" y="-306"/>
		</contour>
	</outline>
</glyph>
<glyph name="three.tosf" format="2">
	<advance width="1400" height="2310"/>
	<outline>
		<contour>
			<point x="112" y="-112" type="curve" smooth="yes"/>
			<point x="112" y="24"/>
			<point x="202" y="130"/>
			<point x="350" y="130" type="curve" smooth="yes"/>
			<point x="484" y="130"/>
			<point x="554" y="58"/>
			<point x="554" y="-36" type="curve" smooth="yes"/>
			<point x="554" y="-168"/>
			<point x="429" y="-168"/>
			<point x="429" y="-214" type="curve" smooth="yes"/>
			<point x="429" y="-268"/>
			<point x="526" y="-296"/>
			<point x="604" y="-296" type="curve" smooth="yes"/>
			<point x="752" y="-296"/>
			<point x="870" y="-248"/>
			<point x="870" y="-40" type="curve" smooth="yes"/>
			<point x="870" y="96"/>
			<point x="781" y="195"/>
			<point x="598" y="210" type="curve" smooth="yes"/>
			<point x="560" y="213"/>
			<point x="546" y="203"/>
			<point x="546" y="247" type="curve" smooth="yes"/>
			<point x="546" y="378" type="line" smooth="yes"/>
			<point x="546" y="417"/>
			<point x="555" y="409"/>
			<point x="589" y="412" type="curve" smooth="yes"/>
			<point x="773" y="426"/>
			<point x="830" y="535"/>
			<point x="830" y="682" type="curve" smooth="yes"/>
			<point x="830" y="830"/>
			<point x="732" y="886"/>
			<point x="604" y="886" type="curve" smooth="yes"/>
			<point x="546" y="886"/>
			<point x="480" y="870"/>
			<point x="480" y="836" type="curve" smooth="yes"/>
			<point x="480" y="790"/>
			<point x="614" y="800"/>
			<point x="614" y="658" type="curve" smooth="yes"/>
			<point x="614" y="574"/>
			<point x="534" y="492"/>
			<point x="410" y="492" type="curve" smooth="yes"/>
			<point x="292" y="492"/>
			<point x="172" y="568"/>
			<point x="172" y="714" type="curve" smooth="yes"/>
			<point x="172" y="908"/>
			<point x="370" y="1060"/>
			<point x="684" y="1060" type="curve" smooth="yes"/>
			<point x="1016" y="1060"/>
			<point x="1232" y="912"/>
			<point x="1232" y="682" type="curve" smooth="yes"/>
			<point x="1232" y="538"/>
			<point x="1147" y="408"/>
			<point x="926" y="338" type="curve" smooth="yes"/>
			<point x="882" y="324"/>
			<point x="852" y="329"/>
			<point x="852" y="315" type="curve" smooth="yes"/>
			<point x="852" y="298"/>
			<point x="871" y="306"/>
			<point x="926" y="292" type="curve" smooth="yes"/>
			<point x="1164" y="229"/>
			<point x="1272" y="101"/>
			<point x="1272" y="-60" type="curve" smooth="yes"/>
			<point x="1272" y="-360"/>
			<point x="966" y="-480"/>
			<point x="664" y="-480" type="curve" smooth="yes"/>
			<point x="310" y="-480"/>
			<point x="112" y="-306"/>
		</contour>
	</outline>
</glyph>
<glyph name="two.tosf" format="2">
	<advance width="1400" height="2310"/>
	<outline>
		<contour>
			<point x="1287" y="380" type="curve" smooth="yes"/>
			<point x="1278" y="104"/>
			<point x="1120" y="-60"/>
			<point x="947" y="-60" type="curve" smooth="yes"/>
			<point x="733" y="-60"/>
			<point x="634" y="60"/>
			<point x="468" y="60" type="curve" smooth="yes"/>
			<point x="403" y="60"/>
			<point x="352" y="35"/>
			<point x="324" y="-5" type="curve" smooth="yes"/>
			<point x="306" y="-30"/>
			<point x="303" y="-40"/>
			<point x="258" y="-40" type="curve" smooth="yes"/>
			<point x="152" y="-40" type="line" smooth="yes"/>
			<point x="119" y="-40"/>
			<point x="116" y="-26"/>
			<point x="118" y="3" type="curve" smooth="yes"/>
			<point x="136" y="275"/>
			<point x="322" y="477"/>
			<point x="591" y="608" type="curve" smooth="yes"/>
			<point x="712" y="667"/>
			<point x="761" y="742"/>
			<point x="761" y="840" type="curve" smooth="yes"/>
			<point x="761" y="948"/>
			<point x="689" y="996"/>
			<point x="591" y="996" type="curve" smooth="yes"/>
			<point x="513" y="996"/>
			<point x="477" y="968"/>
			<point x="477" y="944" type="curve" smooth="yes"/>
			<point x="477" y="918"/>
			<point x="541" y="888"/>
			<point x="541" y="816" type="curve" smooth="yes"/>
			<point x="541" y="682"/>
			<point x="431" y="600"/>
			<point x="327" y="600" type="curve" smooth="yes"/>
			<point x="189" y="600"/>
			<point x="99" y="686"/>
			<point x="99" y="802" type="curve" smooth="yes"/>
			<point x="99" y="1006"/>
			<point x="397" y="1140"/>
			<point x="671" y="1140" type="curve" smooth="yes"/>
			<point x="983" y="1140"/>
			<point x="1183" y="1050"/>
			<point x="1183" y="870" type="curve" smooth="yes"/>
			<point x="1183" y="669"/>
			<point x="922" y="581"/>
			<point x="601" y="460" type="curve" smooth="yes"/>
			<point x="438" y="399"/>
			<point x="356" y="309"/>
			<point x="310" y="207" type="curve" smooth="yes"/>
			<point x="292" y="167"/>
			<point x="284" y="142"/>
			<point x="294" y="139" type="curve" smooth="yes"/>
			<point x="300" y="137"/>
			<point x="309" y="165"/>
			<point x="336" y="197" type="curve" smooth="yes"/>
			<point x="403" y="275"/>
			<point x="520" y="394"/>
			<point x="667" y="394" type="curve" smooth="yes"/>
			<point x="817" y="394"/>
			<point x="867" y="326"/>
			<point x="989" y="326" type="curve" smooth="yes"/>
			<point x="1063" y="326"/>
			<point x="1103" y="350"/>
			<point x="1115" y="387" type="curve" smooth="yes"/>
			<point x="1122" y="408"/>
			<point x="1126" y="414"/>
			<point x="1152" y="414" type="curve" smooth="yes"/>
			<point x="1254" y="414" type="line" smooth="yes"/>
			<point x="1281" y="414"/>
			<point x="1288" y="408"/>
		</contour>
	</outline>
</glyph>
<glyph name="v.sc" format="2">
	<advance width="1450" height="0"/>
	<anchor x="760" y="1040" name="Anchor-0"/>
	<anchor x="674" y="-54" name="Anchor-1"/>
	<outline>
		<contour>
			<point x="849" y="547" type="curve" smooth="yes"/>
			<point x="973" y="799" type="line" smooth="yes"/>
			<point x="985" y="825"/>
			<point x="974" y="830"/>
			<point x="946" y="830" type="curve" smooth="yes"/>
			<point x="886" y="830" type="line" smooth="yes"/>
			<point x="869" y="830"/>
			<point x="860" y="840"/>
			<point x="860" y="859" type="curve" smooth="yes"/>
			<point x="860" y="1010" type="line" smooth="yes"/>
			<point x="860" y="1034"/>
			<point x="865" y="1040"/>
			<point x="888" y="1040" type="curve" smooth="yes"/>
			<point x="1342" y="1040" type="line" smooth="yes"/>
			<point x="1359" y="1040"/>
			<point x="1368" y="1032"/>
			<point x="1368" y="1015" type="curve" smooth="yes"/>
			<point x="1368" y="857" type="line" smooth="yes"/>
			<point x="1368" y="839"/>
			<point x="1359" y="830"/>
			<point x="1342" y="830" type="curve" smooth="yes"/>
			<point x="1262" y="830" type="line" smooth="yes"/>
			<point x="1234" y="830"/>
			<point x="1227" y="818"/>
			<point x="1218" y="799" type="curve" smooth="yes"/>
			<point x="816" y="2" type="line" smooth="yes"/>
			<point x="802" y="-24"/>
			<point x="794" y="-30"/>
			<point x="754" y="-30" type="curve" smooth="yes"/>
			<point x="622" y="-30" type="line" smooth="yes"/>
			<point x="592" y="-30"/>
			<point x="584" y="-24"/>
			<point x="573" y="-5" type="curve" smooth="yes"/>
			<point x="149" y="812" type="line" smooth="yes"/>
			<point x="142" y="824"/>
			<point x="127" y="830"/>
			<point x="104" y="830" type="curve" smooth="yes"/>
			<point x="22" y="830" type="line" smooth="yes"/>
			<point x="-2" y="830"/>
			<point x="-10" y="833"/>
			<point x="-10" y="856" type="curve" smooth="yes"/>
			<point x="-10" y="1012" type="line" smooth="yes"/>
			<point x="-10" y="1034"/>
			<point x="-4" y="1040"/>
			<point x="18" y="1040" type="curve" smooth="yes"/>
			<point x="662" y="1040" type="line" smooth="yes"/>
			<point x="681" y="1040"/>
			<point x="682" y="1030"/>
			<point x="682" y="1011" type="curve" smooth="yes"/>
			<point x="682" y="855" type="line" smooth="yes"/>
			<point x="682" y="832"/>
			<point x="674" y="830"/>
			<point x="650" y="830" type="curve" smooth="yes"/>
			<point x="593" y="830" type="line" smooth="yes"/>
			<point x="562" y="830"/>
			<point x="558" y="821"/>
			<point x="569" y="797" type="curve" smooth="yes"/>
			<point x="710" y="492" type="line" smooth="yes"/>
			<point x="718" y="474"/>
			<point x="742" y="394"/>
			<point x="760" y="394" type="curve" smooth="yes"/>
			<point x="793" y="394"/>
			<point x="837" y="522"/>
		</contour>
	</outline>
</glyph>
